<svg width="143.311035" height="200.000000" viewBox="0 0 143.311 200" fill="none" xmlns="http://www.w3.org/2000/svg" xmlns:xlink="http://www.w3.org/1999/xlink">
	<desc>
			Created with Pixso.
	</desc>
	<defs>
		<filter id="filter_87_9574_dd" x="0.000000" y="0.000000" width="143.311035" height="200.000000" filterUnits="userSpaceOnUse" color-interpolation-filters="sRGB">
			<feFlood flood-opacity="0" result="BackgroundImageFix"/>
			<feColorMatrix in="SourceAlpha" type="matrix" values="0 0 0 0 0 0 0 0 0 0 0 0 0 0 0 0 0 0 127 0" result="hardAlpha"/>
			<feOffset dx="0" dy="0"/>
			<feGaussianBlur stdDeviation="6.66667"/>
			<feComposite in2="hardAlpha" operator="out" k2="-1" k3="1"/>
			<feColorMatrix type="matrix" values="0 0 0 0 0.32157 0 0 0 0 0.52157 0 0 0 0 0.93333 0 0 0 0.3 0"/>
			<feBlend mode="normal" in2="BackgroundImageFix" result="effect_dropShadow_1"/>
			<feBlend mode="normal" in="SourceGraphic" in2="effect_dropShadow_1" result="shape"/>
		</filter>
		<clipPath id="clip3_8378">
			<rect id="svgexport-4 3" rx="0.000000" width="83.768211" height="80.589401" transform="translate(29.506836 59.705322)" fill="white" fill-opacity="0"/>
		</clipPath>
		<clipPath id="clip87_9574">
			<rect id="card_matrix" rx="10.500000" width="96.311256" height="153.000000" transform="translate(23.500000 23.500000)" fill="white" fill-opacity="0"/>
		</clipPath>
	</defs>
	<g filter="url(#filter_87_9574_dd)">
		<rect id="card_matrix" rx="10.500000" width="96.311256" height="153.000000" transform="translate(23.500000 23.500000)" fill="#FFFFFF" fill-opacity="0"/>
		<g clip-path="url(#clip87_9574)">
			<mask id="mask3_8330" mask-type="alpha" maskUnits="userSpaceOnUse" x="20.000000" y="20.000000" width="103.311035" height="160.000000">
				<path id="Vector" d="M20 20L123.31 20L123.31 180L20 180L20 20Z" fill="#000000" fill-opacity="1.000000" fill-rule="nonzero"/>
			</mask>
			<g mask="url(#mask3_8330)">
				<path id="Vector" d="M26.64 20L116.67 20C120.33 20 123.31 22.97 123.31 26.63L123.31 173.36C123.31 177.02 120.33 180 116.67 180L26.64 180C22.97 180 20 177.02 20 173.36L20 26.63C20 22.97 22.97 20 26.64 20Z" fill="#DAE5FB" fill-opacity="1.000000" fill-rule="evenodd"/>
				<mask id="mask3_8333" mask-type="alpha" maskUnits="userSpaceOnUse" x="29.392090" y="32.000000" width="84.526855" height="136.000000">
					<path id="Vector" d="M113.91 84.53C113.91 55.52 95.12 32 71.93 32C48.74 32 29.91 55.52 29.91 84.53C29.91 89.53 30.47 94.35 31.51 98.93C30.1 104.33 29.39 109.88 29.39 115.46C29.39 144.47 48.18 168 71.37 168C94.56 168 113.36 144.47 113.36 115.46C113.36 110.46 112.8 105.64 111.75 101.06C113.19 95.67 113.92 90.11 113.91 84.53Z" fill="#DAE5FB" fill-opacity="1.000000" fill-rule="nonzero"/>
				</mask>
				<path id="Vector" d="M33 161.79L33.6 164.29L36.19 164.05L33.95 165.37L34.96 167.76L33 166.06L31.04 167.76L32.09 165.37L29.85 164.05L32.44 164.29L33 161.79L33 161.79Z" fill="#5285EE" fill-opacity="1.000000" fill-rule="evenodd"/>
				<path id="Vector" d="M36.05 159.57C35.38 159.57 34.72 159.71 34.12 159.92C36.36 160.68 37.8 162 37.94 164.92C37.94 167.21 36.36 169.15 34.12 169.91C34.72 170.12 35.38 170.26 36.05 170.26C39.03 170.26 41.44 167.87 41.44 164.92C41.48 161.97 39.06 159.57 36.05 159.57Z" fill="#5285EE" fill-opacity="1.000000" fill-rule="evenodd"/>
				<path id="Vector" d="M109.73 161.76L109.14 164.29L106.55 164.05L108.79 165.37L107.77 167.76L109.73 166.06L111.7 167.76L110.65 165.37L112.89 164.05L110.29 164.29L109.73 161.76Z" fill="#5285EE" fill-opacity="1.000000" fill-rule="evenodd"/>
				<path id="Vector" d="M106.69 159.57C107.35 159.57 108.02 159.71 108.61 159.92C106.37 160.68 104.94 162 104.8 164.92C104.8 167.21 106.37 169.15 108.61 169.92C108.02 170.12 107.35 170.26 106.69 170.26C103.71 170.26 101.29 167.87 101.29 164.92C101.26 161.97 103.68 159.57 106.69 159.57Z" fill="#5285EE" fill-opacity="1.000000" fill-rule="evenodd"/>
				<path id="Vector" d="M109.73 32.06L109.14 34.56L106.55 34.32L108.79 35.64L107.77 38.03L109.73 36.33L111.7 38.03L110.65 35.64L112.89 34.32L110.29 34.56L109.73 32.06Z" fill="#5285EE" fill-opacity="1.000000" fill-rule="evenodd"/>
				<path id="Vector" d="M106.69 29.84C107.35 29.84 108.02 29.98 108.61 30.19C106.37 30.95 104.94 32.27 104.8 35.19C104.8 37.48 106.37 39.42 108.61 40.18C108.02 40.39 107.35 40.53 106.69 40.53C103.71 40.53 101.29 38.14 101.29 35.19C101.26 32.24 103.68 29.84 106.69 29.84L106.69 29.84Z" fill="#5285EE" fill-opacity="1.000000" fill-rule="evenodd"/>
				<path id="Vector" d="M33.04 32.06L33.6 34.56L36.19 34.35L33.95 35.67L35 38.03L33.04 36.33L31.08 38.03L32.09 35.67L29.85 34.35L32.44 34.56L33.04 32.06L33.04 32.06Z" fill="#5285EE" fill-opacity="1.000000" fill-rule="evenodd"/>
				<path id="Vector" d="M36.08 29.84C35.42 29.84 34.75 29.98 34.16 30.19C36.4 30.95 37.84 32.27 37.98 35.19C37.98 37.48 36.4 39.42 34.16 40.18C34.75 40.39 35.42 40.53 36.08 40.53C39.06 40.53 41.48 38.14 41.48 35.19C41.48 32.24 39.06 29.84 36.08 29.84Z" fill="#5285EE" fill-opacity="1.000000" fill-rule="evenodd"/>
				<path id="Vector" d="M113.91 84.53C113.91 55.52 95.12 32 71.93 32C48.74 32 29.91 55.52 29.91 84.53C29.91 89.53 30.47 94.35 31.51 98.93C30.1 104.33 29.39 109.88 29.39 115.46C29.39 144.47 48.18 168 71.37 168C94.56 168 113.36 144.47 113.36 115.46C113.36 110.46 112.8 105.64 111.75 101.06C113.19 95.67 113.92 90.11 113.91 84.53Z" fill="#5285EE" fill-opacity="1.000000" fill-rule="nonzero"/>
			</g>
			<rect id="svgexport-4 3" rx="0.000000" width="83.768211" height="80.589401" transform="translate(29.506836 59.705322)" fill="#FFFFFF" fill-opacity="0"/>
			<g clip-path="url(#clip3_8378)">
				<path id="Vector" d="M104.74 100.07L71.58 134L38.3 99.96L71.46 66.03L104.74 100.07Z" stroke="#FFFFFF" stroke-opacity="1.000000" stroke-width="1.500000"/>
				<path id="Vector" d="M40.6 100.08L102.33 100.08" stroke="#FFFFFF" stroke-opacity="1.000000" stroke-width="1.500000"/>
				<path id="Vector" d="M71.31 68.53L71.31 131.62" stroke="#FFFFFF" stroke-opacity="1.000000" stroke-width="1.500000"/>
				<path id="Vector" d="M47.32 76.14L94.5 123.97" stroke="#9BD1FF" stroke-opacity="1.000000" stroke-width="1.500000"/>
				<path id="Vector" d="M94.66 76.14L47.48 123.97" stroke="#FF72BA" stroke-opacity="1.000000" stroke-width="1.500000"/>
				<path id="Vector" d="M74.46 100.08C74.46 101.76 73.12 103.13 71.46 103.13C69.81 103.13 68.47 101.76 68.47 100.08C68.47 98.39 69.81 97.02 71.46 97.02C73.12 97.02 74.46 98.39 74.46 100.08Z" fill="#FFFFFF" fill-opacity="1.000000" fill-rule="evenodd"/>
				<path id="Vector" d="M73.2 100.08C73.2 101.05 72.42 101.85 71.46 101.85C70.51 101.85 69.73 101.05 69.73 100.08C69.73 99.1 70.51 98.31 71.46 98.31C72.42 98.31 73.2 99.1 73.2 100.08Z" fill="#5285EE" fill-opacity="0.600000" fill-rule="evenodd"/>
				<path id="Vector" d="M95.96 74.76L45.87 74.76L45.87 125.71L95.96 125.71L95.96 74.76ZM94.46 76.26L47.37 76.26L47.37 124.21L94.46 124.21L94.46 76.26Z" fill="#FFFFFF" fill-opacity="1.000000" fill-rule="evenodd"/>
				<path id="Vector" d="M71.38 63.38L71.39 63.38C72.74 63.38 73.83 64.5 73.83 65.87C73.83 67.24 72.74 68.36 71.39 68.36L71.38 68.36C70.04 68.36 68.95 67.24 68.95 65.87C68.95 64.5 70.04 63.38 71.38 63.38Z" fill="#FFFFFF" fill-opacity="1.000000" fill-rule="evenodd"/>
				<path id="Vector" d="M71.39 63.38C72.74 63.38 73.83 64.5 73.83 65.87C73.83 67.24 72.74 68.36 71.39 68.36L71.38 68.36C70.04 68.36 68.95 67.24 68.95 65.87C68.95 64.5 70.04 63.38 71.38 63.38L71.39 63.38Z" stroke="#FFFFFF" stroke-opacity="1.000000" stroke-width="1.860010"/>
				<path id="Vector" d="M70.64 66.74C70.64 66.74 70.64 66.21 70.64 65.15C70.64 65.15 70.56 65.15 70.4 65.15C70.4 65.15 70.4 65.04 70.4 64.83C70.4 64.83 70.6 64.83 70.98 64.83C70.98 64.83 70.98 65.46 70.98 66.74C70.98 66.74 70.86 66.74 70.64 66.74ZM72.05 66.74C72.05 66.74 72.05 66.21 72.05 65.15C72.05 65.15 71.98 65.15 71.82 65.15C71.82 65.15 71.82 65.04 71.82 64.83C71.82 64.83 72.01 64.83 72.39 64.83C72.39 64.83 72.39 65.46 72.39 66.74C72.39 66.74 72.28 66.74 72.05 66.74Z" fill="#000000" fill-opacity="1.000000" fill-rule="nonzero"/>
				<path id="Vector" d="M104.85 97.5L105.01 97.5C106.31 97.5 107.37 98.58 107.37 99.91L107.37 99.91C107.37 101.25 106.31 102.33 105.01 102.33L104.85 102.33C103.55 102.33 102.49 101.25 102.49 99.91L102.49 99.91C102.49 98.58 103.55 97.5 104.85 97.5Z" fill="#FFFFFF" fill-opacity="1.000000" fill-rule="evenodd"/>
				<path id="Vector" d="M105.01 97.5C106.31 97.5 107.37 98.58 107.37 99.91L107.37 99.91C107.37 101.25 106.31 102.33 105.01 102.33L104.85 102.33C103.55 102.33 102.49 101.25 102.49 99.91L102.49 99.91C102.49 98.58 103.55 97.5 104.85 97.5L105.01 97.5Z" stroke="#FFFFFF" stroke-opacity="1.000000" stroke-width="1.860010"/>
				<path id="Vector" d="M104.58 99.81C104.52 99.74 104.48 99.69 104.46 99.64C104.43 99.58 104.42 99.52 104.42 99.45C104.42 99.31 104.47 99.18 104.57 99.08C104.67 98.98 104.79 98.93 104.94 98.93C105.08 98.93 105.2 98.98 105.3 99.08C105.4 99.17 105.45 99.3 105.45 99.45C105.45 99.6 105.39 99.72 105.29 99.81C105.33 99.83 105.36 99.85 105.38 99.87C105.4 99.88 105.42 99.9 105.44 99.92C105.51 100.01 105.55 100.13 105.55 100.27C105.55 100.45 105.49 100.6 105.37 100.72C105.26 100.84 105.11 100.9 104.93 100.9C104.75 100.9 104.61 100.84 104.49 100.72C104.37 100.6 104.31 100.45 104.31 100.27C104.31 100.14 104.34 100.03 104.41 99.94C104.43 99.91 104.46 99.89 104.48 99.87C104.5 99.85 104.53 99.83 104.58 99.81ZM104.93 99.24C104.88 99.24 104.83 99.26 104.8 99.3C104.76 99.34 104.74 99.39 104.74 99.45C104.74 99.51 104.76 99.56 104.8 99.6C104.84 99.64 104.88 99.66 104.94 99.66C104.99 99.66 105.03 99.64 105.07 99.6C105.11 99.56 105.12 99.51 105.12 99.45C105.12 99.39 105.11 99.34 105.07 99.3C105.03 99.26 104.99 99.24 104.93 99.24ZM104.93 99.99C104.85 99.99 104.78 100.02 104.73 100.08C104.67 100.14 104.64 100.21 104.64 100.29C104.64 100.37 104.67 100.44 104.73 100.5C104.78 100.56 104.85 100.59 104.94 100.59C105.02 100.59 105.08 100.56 105.14 100.5C105.19 100.44 105.22 100.37 105.22 100.29C105.22 100.2 105.19 100.13 105.13 100.08C105.08 100.02 105.01 99.99 104.93 99.99Z" fill="#000000" fill-opacity="1.000000" fill-rule="nonzero"/>
				<path id="Vector" d="M71.38 131.78L71.39 131.78C72.74 131.78 73.83 132.89 73.83 134.27C73.83 135.64 72.74 136.75 71.39 136.75L71.38 136.75C70.04 136.75 68.95 135.64 68.95 134.27C68.95 132.89 70.04 131.78 71.38 131.78Z" fill="#FFFFFF" fill-opacity="1.000000" fill-rule="evenodd"/>
				<path id="Vector" d="M71.39 131.78C72.74 131.78 73.83 132.89 73.83 134.27C73.83 135.64 72.74 136.75 71.39 136.75L71.38 136.75C70.04 136.75 68.95 135.64 68.95 134.27C68.95 132.89 70.04 131.78 71.38 131.78L71.39 131.78Z" stroke="#FFFFFF" stroke-opacity="1.000000" stroke-width="1.860010"/>
				<path id="Vector" d="M70.57 135.22C70.57 135.22 70.57 134.69 70.57 133.63C70.57 133.63 70.49 133.63 70.34 133.63C70.34 133.63 70.34 133.53 70.34 133.31C70.34 133.31 70.53 133.31 70.91 133.31C70.91 133.31 70.91 133.95 70.91 135.22C70.91 135.22 70.8 135.22 70.57 135.22ZM71.41 134.65C71.41 134.65 71.7 134.21 72.27 133.31C72.27 133.31 72.37 133.31 72.55 133.31C72.55 133.31 72.55 133.75 72.55 134.63C72.55 134.63 72.62 134.63 72.75 134.63C72.75 134.63 72.75 134.73 72.75 134.93C72.75 134.93 72.68 134.93 72.55 134.93C72.55 134.93 72.55 135.03 72.55 135.22C72.55 135.22 72.44 135.22 72.22 135.22C72.22 135.22 72.22 135.12 72.22 134.93C72.22 134.93 71.95 134.93 71.41 134.93C71.41 134.93 71.41 134.84 71.41 134.65ZM72.22 134.63C72.22 134.63 72.22 134.38 72.22 133.89C72.22 133.89 72.06 134.13 71.75 134.63C71.75 134.63 71.91 134.63 72.22 134.63Z" fill="#000000" fill-opacity="1.000000" fill-rule="nonzero"/>
				<path id="Vector" d="M37.99 97.66L38.01 97.66C39.35 97.66 40.44 98.78 40.44 100.15C40.44 101.52 39.35 102.64 38.01 102.64L37.99 102.64C36.65 102.64 35.56 101.52 35.56 100.15C35.56 98.78 36.65 97.66 37.99 97.66Z" fill="#FFFFFF" fill-opacity="1.000000" fill-rule="evenodd"/>
				<path id="Vector" d="M38.01 97.66C39.35 97.66 40.44 98.78 40.44 100.15C40.44 101.52 39.35 102.64 38.01 102.64L37.99 102.64C36.65 102.64 35.56 101.52 35.56 100.15C35.56 98.78 36.65 97.66 37.99 97.66L38.01 97.66Z" stroke="#FFFFFF" stroke-opacity="1.000000" stroke-width="1.860010"/>
				<path id="Vector" d="M37.86 100.18C37.86 100.18 37.86 100.07 37.86 99.85C37.94 99.85 38 99.84 38.05 99.82C38.12 99.79 38.15 99.74 38.15 99.66C38.15 99.6 38.13 99.56 38.1 99.53C38.07 99.49 38.03 99.48 37.99 99.48C37.94 99.48 37.9 99.49 37.88 99.52C37.85 99.55 37.84 99.59 37.83 99.65L37.49 99.65C37.49 99.57 37.51 99.5 37.52 99.45C37.54 99.41 37.57 99.36 37.62 99.32C37.71 99.21 37.83 99.16 37.98 99.16C38.13 99.16 38.25 99.21 38.34 99.31C38.44 99.4 38.49 99.53 38.49 99.67C38.49 99.75 38.47 99.81 38.45 99.86C38.42 99.92 38.38 99.96 38.33 100C38.52 100.09 38.62 100.26 38.62 100.5C38.62 100.68 38.56 100.83 38.44 100.96C38.32 101.08 38.17 101.14 37.99 101.14C37.81 101.14 37.66 101.08 37.54 100.97C37.42 100.85 37.36 100.7 37.35 100.52L37.69 100.52C37.7 100.62 37.73 100.69 37.79 100.74C37.84 100.8 37.91 100.82 37.99 100.82C38.08 100.82 38.14 100.79 38.2 100.73C38.26 100.67 38.28 100.6 38.28 100.5C38.28 100.41 38.25 100.33 38.18 100.27C38.12 100.21 38.03 100.18 37.92 100.18L37.86 100.18Z" fill="#000000" fill-opacity="1.000000" fill-rule="nonzero"/>
				<path id="Vector" d="M76.79 92.75C76.79 92.75 76.75 92.79 76.68 92.87C76.68 92.87 76.49 92.68 76.13 92.31C76.13 92.31 76.16 92.64 76.24 93.31C76.24 93.31 76.19 93.36 76.09 93.46C76.09 93.46 76.05 93.1 75.98 92.39C75.98 92.39 75.63 92.35 74.94 92.28C74.94 92.28 74.99 92.23 75.08 92.13C75.08 92.13 75.41 92.17 76.06 92.24C76.06 92.24 75.88 92.05 75.52 91.69C75.52 91.69 75.56 91.65 75.64 91.57C75.64 91.57 75.82 91.75 76.18 92.12C76.18 92.12 76.14 91.79 76.07 91.12C76.07 91.12 76.12 91.07 76.22 90.97C76.22 90.97 76.25 91.33 76.32 92.04C76.32 92.04 76.67 92.08 77.37 92.15C77.37 92.15 77.32 92.2 77.23 92.3C77.23 92.3 76.9 92.26 76.24 92.19C76.24 92.19 76.43 92.38 76.79 92.75ZM77.89 90.83C77.89 90.83 77.63 91.1 77.11 91.62C77.2 91.71 77.31 91.74 77.43 91.74C77.55 91.73 77.66 91.68 77.75 91.59C77.81 91.53 77.86 91.45 77.87 91.36C77.89 91.26 77.89 91.17 77.85 91.09L77.97 90.97C78.03 91.09 78.05 91.22 78.03 91.36C78.01 91.49 77.95 91.61 77.86 91.7C77.8 91.76 77.73 91.81 77.65 91.85C77.57 91.88 77.49 91.9 77.41 91.9C77.33 91.9 77.25 91.88 77.17 91.85C77.09 91.81 77.02 91.76 76.95 91.7C76.87 91.62 76.82 91.52 76.79 91.41C76.76 91.3 76.76 91.19 76.79 91.08C76.82 90.97 76.87 90.88 76.95 90.79C77.04 90.71 77.14 90.65 77.25 90.62C77.36 90.59 77.47 90.59 77.58 90.63C77.64 90.65 77.69 90.67 77.73 90.7C77.78 90.73 77.83 90.78 77.89 90.83ZM77.01 91.51L77.67 90.85C77.56 90.78 77.46 90.75 77.35 90.76C77.24 90.77 77.14 90.82 77.06 90.9C76.98 90.98 76.93 91.08 76.92 91.2C76.91 91.31 76.94 91.41 77.01 91.51ZM79.18 90.31C79.18 90.31 79.14 90.35 79.06 90.43C79.06 90.43 78.94 90.3 78.68 90.03C78.68 90.03 78.51 90.21 78.17 90.56C78.17 90.56 78.3 90.69 78.55 90.95C78.55 90.95 78.51 90.99 78.44 91.07C78.44 91.07 78.15 90.78 77.58 90.19C77.58 90.19 77.62 90.15 77.7 90.08C77.7 90.08 77.82 90.2 78.06 90.45C78.06 90.45 78.23 90.28 78.58 89.93C78.58 89.93 78.45 89.8 78.21 89.55C78.21 89.55 78.25 89.51 78.33 89.43C78.33 89.43 78.61 89.72 79.18 90.31ZM79.85 89.11C79.85 89.11 79.89 89.07 79.98 88.98C80 89.05 80.01 89.11 80.02 89.16C80.02 89.21 80.02 89.26 80.02 89.31C80 89.45 79.94 89.58 79.83 89.69C79.74 89.77 79.64 89.83 79.53 89.87C79.42 89.9 79.31 89.9 79.2 89.87C79.09 89.84 79 89.79 78.91 89.7C78.83 89.62 78.78 89.52 78.75 89.41C78.72 89.3 78.72 89.19 78.75 89.07C78.78 88.96 78.84 88.86 78.93 88.78C79.02 88.68 79.13 88.62 79.26 88.59C79.39 88.56 79.51 88.58 79.63 88.63L79.5 88.76C79.41 88.74 79.33 88.74 79.25 88.76C79.17 88.78 79.09 88.82 79.03 88.89C78.94 88.98 78.89 89.1 78.89 89.24C78.89 89.37 78.94 89.49 79.03 89.58C79.13 89.68 79.24 89.73 79.38 89.73C79.51 89.73 79.62 89.68 79.72 89.58C79.78 89.52 79.82 89.45 79.84 89.38C79.86 89.31 79.86 89.22 79.85 89.11ZM79.53 88.2C79.53 88.2 79.57 88.16 79.65 88.08C79.65 88.08 79.78 88.21 80.03 88.47C80.03 88.47 80.03 88.21 80.04 87.68C80.04 87.68 80.09 87.63 80.19 87.53C80.19 87.53 80.19 87.81 80.18 88.39C80.18 88.39 80.47 88.39 81.05 88.4C81.05 88.4 81 88.45 80.89 88.56C80.89 88.56 80.63 88.55 80.1 88.54C80.1 88.54 80.24 88.68 80.51 88.95C80.51 88.95 80.47 88.99 80.39 89.07C80.39 89.07 80.1 88.78 79.53 88.2ZM80.93 86.77C80.93 86.77 80.97 86.73 81.05 86.65C81.05 86.65 81.33 86.94 81.91 87.52C81.91 87.52 81.87 87.56 81.79 87.64C81.79 87.64 81.56 87.41 81.1 86.93C81.1 86.93 81.16 87.35 81.27 88.17C81.27 88.17 81.23 88.21 81.15 88.29C81.15 88.29 80.87 88 80.3 87.42C80.3 87.42 80.34 87.38 80.41 87.3C80.41 87.3 80.64 87.53 81.1 88.01C81.1 88.01 81.05 87.59 80.93 86.77ZM81.07 85.99C81.07 85.99 81.11 85.95 81.19 85.87C81.28 85.96 81.36 85.96 81.44 85.88C81.52 85.8 81.52 85.71 81.43 85.62L81.55 85.5C81.61 85.58 81.63 85.66 81.62 85.74C81.62 85.82 81.58 85.89 81.51 85.95C81.45 86.02 81.38 86.06 81.31 86.06C81.23 86.07 81.15 86.05 81.07 85.99ZM81.88 85.8C81.88 85.8 81.92 85.76 82 85.68C82 85.68 82.29 85.97 82.85 86.55C82.85 86.55 82.82 86.59 82.74 86.67C82.74 86.67 82.51 86.43 82.05 85.96C82.05 85.96 82.11 86.38 82.22 87.2C82.22 87.2 82.18 87.24 82.1 87.32C82.1 87.32 81.82 87.03 81.25 86.45C81.25 86.45 81.29 86.41 81.36 86.33C81.36 86.33 81.59 86.56 82.05 87.03C82.05 87.03 82 86.62 81.88 85.8ZM82.63 85.03C82.63 85.03 82.67 84.99 82.75 84.91C82.75 84.91 82.8 84.96 82.89 85.06C82.88 84.97 82.88 84.88 82.91 84.8C82.94 84.71 82.99 84.63 83.06 84.55C83.15 84.46 83.24 84.41 83.35 84.38C83.46 84.35 83.57 84.35 83.67 84.38C83.78 84.41 83.88 84.46 83.96 84.55C84.05 84.63 84.1 84.73 84.13 84.84C84.16 84.95 84.16 85.06 84.13 85.17C84.1 85.29 84.04 85.38 83.96 85.47C83.89 85.54 83.81 85.59 83.72 85.62C83.64 85.65 83.55 85.66 83.46 85.64L83.9 86.1L83.79 86.21L82.63 85.03ZM83.16 84.67C83.07 84.76 83.02 84.88 83.02 85.01C83.02 85.15 83.07 85.26 83.17 85.36C83.26 85.46 83.38 85.51 83.51 85.51C83.64 85.51 83.75 85.46 83.85 85.36C83.94 85.26 83.99 85.15 83.99 85.02C83.99 84.89 83.94 84.77 83.85 84.67C83.75 84.57 83.63 84.52 83.5 84.52C83.37 84.52 83.26 84.57 83.16 84.67ZM84.1 83.49C84.18 83.41 84.27 83.35 84.38 83.32C84.49 83.29 84.59 83.3 84.7 83.33C84.81 83.36 84.9 83.42 84.99 83.5C85.12 83.64 85.18 83.79 85.18 83.96C85.18 84.13 85.12 84.28 85 84.41C84.91 84.49 84.81 84.55 84.71 84.59C84.6 84.62 84.49 84.62 84.38 84.59C84.27 84.56 84.18 84.5 84.09 84.42C83.96 84.28 83.9 84.13 83.9 83.96C83.9 83.78 83.97 83.63 84.1 83.49ZM84.19 83.61C84.1 83.71 84.06 83.82 84.06 83.95C84.06 84.08 84.11 84.2 84.21 84.3C84.31 84.4 84.42 84.45 84.55 84.45C84.68 84.45 84.79 84.4 84.89 84.3C84.98 84.2 85.03 84.09 85.02 83.97C85.02 83.84 84.97 83.73 84.87 83.63C84.77 83.52 84.66 83.47 84.53 83.47C84.4 83.46 84.29 83.51 84.19 83.61ZM86.3 83.03C86.3 83.03 86.05 83.29 85.55 83.8C85.55 83.8 85.6 83.88 85.71 84.04C85.71 84.04 85.68 84.07 85.63 84.12C85.63 84.12 85.53 84.02 85.32 83.82C85.32 83.82 85.36 83.78 85.44 83.7C85.44 83.7 85.29 83.34 85.01 82.61C85.01 82.61 85.05 82.56 85.14 82.47C85.14 82.47 85.49 82.62 86.21 82.91C86.21 82.91 86.25 82.87 86.32 82.8C86.32 82.8 86.42 82.9 86.62 83.11C86.62 83.11 86.59 83.13 86.54 83.19C86.54 83.19 86.46 83.14 86.3 83.03ZM86.09 83.04C86.09 83.04 85.79 82.92 85.2 82.67C85.2 82.67 85.32 82.98 85.56 83.58C85.56 83.58 85.73 83.4 86.09 83.04Z" fill="#FFFFFF" fill-opacity="1.000000" fill-rule="nonzero"/>
				<path id="Vector" d="M35.17 106.06C35.17 106.06 35.54 106.06 36.28 106.06C36.28 106.06 36.09 105.61 35.72 104.73C35.72 104.73 35.54 105.17 35.17 106.06ZM36.62 106.06C36.62 106.06 36.62 106.21 36.62 106.52C36.62 106.52 36.58 106.52 36.51 106.52C36.51 106.52 36.49 106.41 36.44 106.21C36.44 106.21 35.96 106.21 35 106.21C35 106.21 34.98 106.31 34.94 106.52C34.94 106.52 34.9 106.52 34.83 106.52C34.83 106.52 34.83 106.36 34.83 106.06C34.83 106.06 34.88 106.06 34.99 106.06C34.99 106.06 35.21 105.55 35.63 104.54C35.63 104.54 35.69 104.54 35.82 104.54C35.82 104.54 36.03 105.04 36.45 106.06C36.45 106.06 36.51 106.06 36.62 106.06ZM37.9 105.64C37.9 105.64 37.54 105.64 36.81 105.64C36.81 105.77 36.86 105.87 36.95 105.96C37.05 106.04 37.15 106.08 37.28 106.08C37.37 106.08 37.46 106.06 37.53 106.01C37.61 105.95 37.67 105.89 37.7 105.8L37.87 105.8C37.83 105.93 37.75 106.04 37.64 106.12C37.53 106.2 37.41 106.24 37.28 106.24C37.19 106.24 37.11 106.22 37.03 106.19C36.95 106.15 36.88 106.11 36.83 106.05C36.77 105.99 36.73 105.92 36.69 105.84C36.66 105.76 36.64 105.67 36.64 105.58C36.64 105.47 36.67 105.36 36.73 105.26C36.78 105.16 36.86 105.08 36.95 105.03C37.05 104.97 37.15 104.94 37.27 104.94C37.39 104.94 37.5 104.97 37.6 105.03C37.7 105.09 37.78 105.17 37.83 105.28C37.86 105.33 37.87 105.38 37.88 105.44C37.9 105.49 37.9 105.56 37.9 105.64ZM36.81 105.49L37.74 105.49C37.71 105.37 37.65 105.27 37.57 105.2C37.49 105.13 37.39 105.1 37.27 105.1C37.15 105.1 37.06 105.13 36.97 105.21C36.89 105.28 36.83 105.37 36.81 105.49ZM39.18 106.21C39.18 106.21 39.13 106.21 39.02 106.21C39.02 106.21 39.02 106.02 39.02 105.65C39.02 105.65 38.78 105.65 38.29 105.65C38.29 105.65 38.29 105.84 38.29 106.21C38.29 106.21 38.24 106.21 38.13 106.21C38.13 106.21 38.13 105.8 38.13 104.97C38.13 104.97 38.18 104.97 38.29 104.97C38.29 104.97 38.29 105.15 38.29 105.5C38.29 105.5 38.53 105.5 39.02 105.5C39.02 105.5 39.02 105.33 39.02 104.97C39.02 104.97 39.07 104.97 39.18 104.97C39.18 104.97 39.18 105.38 39.18 106.21ZM39.62 105.62C39.62 105.62 39.62 105.76 39.62 106.06C39.62 106.06 39.73 106.06 39.94 106.06C40.13 106.06 40.23 105.98 40.23 105.84C40.23 105.69 40.13 105.62 39.94 105.62L39.62 105.62ZM39.98 105.47C40.1 105.47 40.2 105.5 40.28 105.57C40.36 105.64 40.39 105.73 40.39 105.84C40.39 105.94 40.36 106.03 40.28 106.1C40.2 106.17 40.1 106.21 39.98 106.21L39.46 106.21L39.46 104.97L39.62 104.97L39.62 105.47L39.98 105.47ZM32.67 108.99C32.67 108.99 32.67 108.43 32.67 107.32C32.67 107.32 32.82 107.32 33.12 107.32C33.23 107.32 33.31 107.32 33.38 107.34C33.45 107.35 33.51 107.37 33.56 107.4C33.62 107.44 33.67 107.5 33.7 107.57C33.74 107.64 33.75 107.72 33.75 107.82C33.75 107.9 33.74 107.98 33.71 108.05C33.68 108.11 33.64 108.17 33.59 108.2C33.54 108.24 33.48 108.27 33.41 108.29C33.35 108.3 33.26 108.31 33.15 108.31L32.83 108.31L32.83 108.99L32.67 108.99ZM32.83 108.16L33.14 108.16C33.29 108.16 33.39 108.14 33.45 108.1C33.5 108.08 33.53 108.04 33.55 107.99C33.58 107.94 33.59 107.88 33.59 107.82C33.59 107.74 33.57 107.67 33.54 107.61C33.51 107.56 33.46 107.52 33.4 107.5C33.33 107.48 33.22 107.47 33.07 107.47L32.83 107.47L32.83 108.16ZM34.51 107.72C34.63 107.72 34.73 107.75 34.83 107.8C34.92 107.86 35 107.94 35.05 108.04C35.1 108.14 35.13 108.25 35.13 108.37C35.13 108.56 35.07 108.71 34.96 108.83C34.84 108.95 34.69 109.01 34.51 109.01C34.39 109.01 34.28 108.99 34.18 108.93C34.08 108.88 34.01 108.8 33.95 108.7C33.9 108.6 33.87 108.49 33.87 108.37C33.87 108.18 33.93 108.03 34.05 107.9C34.17 107.78 34.32 107.72 34.51 107.72ZM34.5 107.87C34.36 107.87 34.25 107.92 34.17 108.02C34.08 108.11 34.03 108.23 34.03 108.37C34.03 108.51 34.08 108.63 34.17 108.72C34.26 108.81 34.37 108.86 34.51 108.86C34.64 108.86 34.75 108.81 34.84 108.72C34.92 108.63 34.97 108.51 34.97 108.37C34.97 108.23 34.92 108.11 34.83 108.01C34.75 107.92 34.63 107.87 34.5 107.87ZM35.88 107.75C35.88 107.75 35.93 107.75 36.04 107.75C36.04 107.75 36.04 107.94 36.04 108.31C36.04 108.31 36.2 108.12 36.52 107.75C36.52 107.75 36.59 107.75 36.73 107.75C36.73 107.75 36.55 107.95 36.21 108.35C36.21 108.35 36.38 108.56 36.73 108.99C36.73 108.99 36.66 108.99 36.52 108.99C36.52 108.99 36.36 108.79 36.04 108.39C36.04 108.39 36.04 108.59 36.04 108.99C36.04 108.99 35.99 108.99 35.88 108.99C35.88 108.99 35.88 108.79 35.88 108.39C35.88 108.39 35.72 108.59 35.4 108.99C35.4 108.99 35.33 108.99 35.19 108.99C35.19 108.99 35.37 108.77 35.71 108.35C35.71 108.35 35.54 108.15 35.19 107.75C35.19 107.75 35.26 107.75 35.4 107.75C35.4 107.75 35.56 107.94 35.88 108.31C35.88 108.31 35.88 108.12 35.88 107.75ZM38.01 108.99C38.01 108.99 37.66 108.99 36.95 108.99C36.95 108.99 36.93 109.08 36.89 109.27C36.89 109.27 36.85 109.27 36.77 109.27C36.77 109.27 36.77 109.12 36.77 108.83C36.77 108.83 36.83 108.83 36.93 108.83C36.93 108.83 37.08 108.47 37.38 107.75C37.38 107.75 37.45 107.75 37.57 107.75C37.57 107.75 37.72 108.11 38.02 108.83C38.02 108.83 38.08 108.83 38.18 108.83C38.18 108.83 38.18 108.98 38.18 109.27C38.18 109.27 38.14 109.27 38.07 109.27C38.07 109.27 38.05 109.17 38.01 108.99ZM37.85 108.83C37.85 108.83 37.73 108.54 37.48 107.94C37.48 107.94 37.35 108.24 37.1 108.83C37.1 108.83 37.35 108.83 37.85 108.83ZM39.46 108.42C39.46 108.42 39.1 108.42 38.37 108.42C38.37 108.54 38.42 108.65 38.51 108.73C38.61 108.82 38.71 108.86 38.84 108.86C38.93 108.86 39.02 108.83 39.09 108.78C39.17 108.73 39.23 108.66 39.26 108.58L39.43 108.58C39.39 108.71 39.31 108.81 39.2 108.89C39.09 108.97 38.97 109.01 38.84 109.01C38.75 109.01 38.67 109 38.59 108.96C38.51 108.93 38.45 108.88 38.39 108.83C38.33 108.77 38.29 108.7 38.25 108.62C38.22 108.54 38.2 108.45 38.2 108.36C38.2 108.24 38.23 108.14 38.29 108.04C38.34 107.94 38.42 107.86 38.51 107.8C38.61 107.75 38.71 107.72 38.83 107.72C38.95 107.72 39.06 107.75 39.16 107.81C39.26 107.87 39.34 107.95 39.39 108.06C39.42 108.11 39.43 108.16 39.45 108.22C39.46 108.27 39.46 108.34 39.46 108.42ZM38.37 108.27L39.3 108.27C39.27 108.15 39.22 108.05 39.13 107.98C39.05 107.91 38.95 107.87 38.83 107.87C38.72 107.87 38.62 107.91 38.53 107.98C38.45 108.06 38.39 108.15 38.37 108.27ZM40.74 108.99C40.74 108.99 40.69 108.99 40.58 108.99C40.58 108.99 40.58 108.8 40.58 108.43C40.58 108.43 40.34 108.43 39.85 108.43C39.85 108.43 39.85 108.62 39.85 108.99C39.85 108.99 39.8 108.99 39.69 108.99C39.69 108.99 39.69 108.57 39.69 107.75C39.69 107.75 39.74 107.75 39.85 107.75C39.85 107.75 39.85 107.93 39.85 108.28C39.85 108.28 40.09 108.28 40.58 108.28C40.58 108.28 40.58 108.1 40.58 107.75C40.58 107.75 40.63 107.75 40.74 107.75C40.74 107.75 40.74 108.16 40.74 108.99ZM41.92 107.75C41.92 107.75 41.97 107.75 42.08 107.75C42.08 107.75 42.08 108.16 42.08 108.99C42.08 108.99 42.03 108.99 41.92 108.99C41.92 108.99 41.92 108.65 41.92 107.99C41.92 107.99 41.67 108.32 41.18 108.99C41.18 108.99 41.13 108.99 41.02 108.99C41.02 108.99 41.02 108.57 41.02 107.75C41.02 107.75 41.07 107.75 41.18 107.75C41.18 107.75 41.18 108.08 41.18 108.75C41.18 108.75 41.43 108.41 41.92 107.75ZM43.04 108.33C43.04 108.33 43.04 108.19 43.04 107.9C43.04 107.9 42.94 107.9 42.76 107.9C42.56 107.9 42.46 107.97 42.46 108.12C42.46 108.26 42.56 108.33 42.76 108.33C42.76 108.33 42.85 108.33 43.04 108.33ZM42.77 108.49C42.77 108.49 42.66 108.65 42.43 108.99C42.43 108.99 42.37 108.99 42.24 108.99C42.24 108.99 42.36 108.81 42.59 108.47C42.5 108.45 42.43 108.41 42.38 108.34C42.32 108.28 42.3 108.21 42.3 108.12C42.3 108.01 42.34 107.92 42.41 107.85C42.49 107.78 42.59 107.75 42.71 107.75L43.2 107.75L43.2 108.99C43.2 108.99 43.15 108.99 43.04 108.99C43.04 108.99 43.04 108.82 43.04 108.49C43.04 108.49 42.95 108.49 42.77 108.49Z" fill="#FFFFFF" fill-opacity="1.000000" fill-rule="nonzero"/>
				<path id="Vector" d="M103.7 104.69C103.7 104.69 103.49 104.69 103.07 104.69C103.07 104.69 103.07 105.2 103.07 106.21C103.07 106.21 103.02 106.21 102.91 106.21C102.91 106.21 102.91 105.65 102.91 104.54C102.91 104.54 103.17 104.54 103.7 104.54C103.7 104.54 103.7 104.59 103.7 104.69ZM104.26 104.94C104.38 104.94 104.48 104.97 104.58 105.03C104.67 105.08 104.75 105.16 104.8 105.26C104.85 105.36 104.88 105.47 104.88 105.59C104.88 105.78 104.82 105.93 104.71 106.05C104.59 106.18 104.44 106.24 104.27 106.24C104.14 106.24 104.03 106.21 103.93 106.15C103.84 106.1 103.76 106.02 103.7 105.92C103.65 105.82 103.62 105.71 103.62 105.59C103.62 105.4 103.68 105.25 103.8 105.13C103.92 105 104.08 104.94 104.26 104.94ZM104.25 105.1C104.12 105.1 104.01 105.14 103.92 105.24C103.83 105.33 103.79 105.45 103.79 105.59C103.79 105.73 103.83 105.85 103.92 105.94C104.01 106.04 104.12 106.08 104.26 106.08C104.39 106.08 104.5 106.04 104.59 105.95C104.67 105.85 104.72 105.74 104.72 105.6C104.72 105.45 104.67 105.33 104.58 105.24C104.5 105.14 104.38 105.1 104.25 105.1ZM106.14 106.21C106.14 106.21 105.79 106.21 105.08 106.21C105.08 106.21 105.06 106.3 105.02 106.49C105.02 106.49 104.98 106.49 104.91 106.49C104.91 106.49 104.91 106.35 104.91 106.06C104.91 106.06 104.96 106.06 105.06 106.06C105.06 106.06 105.21 105.69 105.52 104.97C105.52 104.97 105.58 104.97 105.7 104.97C105.7 104.97 105.85 105.33 106.16 106.06C106.16 106.06 106.21 106.06 106.31 106.06C106.31 106.06 106.31 106.2 106.31 106.49C106.31 106.49 106.27 106.49 106.2 106.49C106.2 106.49 106.18 106.4 106.14 106.21ZM105.98 106.06C105.98 106.06 105.86 105.76 105.61 105.16C105.61 105.16 105.48 105.46 105.23 106.06C105.23 106.06 105.48 106.06 105.98 106.06ZM99.6 108.99C99.6 108.99 99.6 108.43 99.6 107.32C99.6 107.32 99.75 107.32 100.05 107.32C100.16 107.32 100.24 107.32 100.31 107.34C100.38 107.35 100.44 107.37 100.49 107.4C100.55 107.44 100.6 107.5 100.63 107.57C100.66 107.64 100.68 107.72 100.68 107.82C100.68 107.9 100.67 107.98 100.64 108.05C100.61 108.11 100.57 108.17 100.52 108.2C100.47 108.24 100.41 108.27 100.34 108.29C100.28 108.3 100.19 108.31 100.08 108.31L99.76 108.31L99.76 108.99L99.6 108.99ZM99.76 108.16L100.07 108.16C100.21 108.16 100.32 108.14 100.38 108.1C100.42 108.08 100.46 108.04 100.48 107.99C100.5 107.94 100.52 107.88 100.52 107.82C100.52 107.74 100.5 107.67 100.47 107.61C100.44 107.56 100.39 107.52 100.33 107.5C100.26 107.48 100.15 107.47 100 107.47L99.76 107.47L99.76 108.16ZM101.44 107.72C101.56 107.72 101.66 107.75 101.76 107.8C101.85 107.86 101.93 107.94 101.98 108.04C102.03 108.14 102.06 108.25 102.06 108.37C102.06 108.56 102 108.71 101.88 108.83C101.77 108.95 101.62 109.01 101.44 109.01C101.32 109.01 101.21 108.99 101.11 108.93C101.01 108.88 100.94 108.8 100.88 108.7C100.83 108.6 100.8 108.49 100.8 108.37C100.8 108.18 100.86 108.03 100.98 107.9C101.1 107.78 101.25 107.72 101.44 107.72ZM101.43 107.87C101.29 107.87 101.18 107.92 101.1 108.02C101.01 108.11 100.96 108.23 100.96 108.37C100.96 108.51 101.01 108.63 101.1 108.72C101.19 108.81 101.3 108.86 101.44 108.86C101.57 108.86 101.68 108.81 101.77 108.72C101.85 108.63 101.89 108.51 101.89 108.37C101.89 108.23 101.85 108.11 101.76 108.01C101.67 107.92 101.56 107.87 101.43 107.87ZM102.81 107.75C102.81 107.75 102.86 107.75 102.97 107.75C102.97 107.75 102.97 107.94 102.97 108.31C102.97 108.31 103.13 108.12 103.45 107.75C103.45 107.75 103.52 107.75 103.65 107.75C103.65 107.75 103.48 107.95 103.14 108.35C103.14 108.35 103.31 108.56 103.65 108.99C103.65 108.99 103.59 108.99 103.45 108.99C103.45 108.99 103.29 108.79 102.97 108.39C102.97 108.39 102.97 108.59 102.97 108.99C102.97 108.99 102.92 108.99 102.81 108.99C102.81 108.99 102.81 108.79 102.81 108.39C102.81 108.39 102.65 108.59 102.33 108.99C102.33 108.99 102.26 108.99 102.12 108.99C102.12 108.99 102.3 108.77 102.64 108.35C102.64 108.35 102.47 108.15 102.12 107.75C102.12 107.75 102.19 107.75 102.33 107.75C102.33 107.75 102.49 107.94 102.81 108.31C102.81 108.31 102.81 108.12 102.81 107.75ZM104.94 108.99C104.94 108.99 104.58 108.99 103.88 108.99C103.88 108.99 103.86 109.08 103.82 109.27C103.82 109.27 103.78 109.27 103.7 109.27C103.7 109.27 103.7 109.12 103.7 108.83C103.7 108.83 103.76 108.83 103.86 108.83C103.86 108.83 104.01 108.47 104.31 107.75C104.31 107.75 104.38 107.75 104.5 107.75C104.5 107.75 104.65 108.11 104.95 108.83C104.95 108.83 105.01 108.83 105.11 108.83C105.11 108.83 105.11 108.98 105.11 109.27C105.11 109.27 105.07 109.27 105 109.27C105 109.27 104.98 109.17 104.94 108.99ZM104.78 108.83C104.78 108.83 104.66 108.54 104.41 107.94C104.41 107.94 104.28 108.24 104.03 108.83C104.03 108.83 104.28 108.83 104.78 108.83ZM106.39 108.42C106.39 108.42 106.03 108.42 105.3 108.42C105.3 108.54 105.35 108.65 105.44 108.73C105.53 108.82 105.64 108.86 105.77 108.86C105.86 108.86 105.94 108.83 106.02 108.78C106.1 108.73 106.16 108.66 106.19 108.58L106.36 108.58C106.32 108.71 106.24 108.81 106.13 108.89C106.02 108.97 105.9 109.01 105.77 109.01C105.68 109.01 105.6 109 105.52 108.96C105.44 108.93 105.37 108.88 105.32 108.83C105.26 108.77 105.22 108.7 105.18 108.62C105.15 108.54 105.13 108.45 105.13 108.36C105.13 108.24 105.16 108.14 105.22 108.04C105.27 107.94 105.35 107.86 105.44 107.8C105.54 107.75 105.64 107.72 105.76 107.72C105.88 107.72 105.99 107.75 106.09 107.81C106.19 107.87 106.27 107.95 106.32 108.06C106.34 108.11 106.36 108.16 106.37 108.22C106.39 108.27 106.39 108.34 106.39 108.42ZM105.3 108.27L106.23 108.27C106.2 108.15 106.14 108.05 106.06 107.98C105.98 107.91 105.88 107.87 105.76 107.87C105.64 107.87 105.54 107.91 105.46 107.98C105.38 108.06 105.32 108.15 105.3 108.27ZM107.67 108.99C107.67 108.99 107.62 108.99 107.51 108.99C107.51 108.99 107.51 108.8 107.51 108.43C107.51 108.43 107.26 108.43 106.78 108.43C106.78 108.43 106.78 108.62 106.78 108.99C106.78 108.99 106.73 108.99 106.62 108.99C106.62 108.99 106.62 108.57 106.62 107.75C106.62 107.75 106.67 107.75 106.78 107.75C106.78 107.75 106.78 107.93 106.78 108.28C106.78 108.28 107.02 108.28 107.51 108.28C107.51 108.28 107.51 108.1 107.51 107.75C107.51 107.75 107.56 107.75 107.67 107.75C107.67 107.75 107.67 108.16 107.67 108.99ZM108.85 107.75C108.85 107.75 108.9 107.75 109.01 107.75C109.01 107.75 109.01 108.16 109.01 108.99C109.01 108.99 108.96 108.99 108.85 108.99C108.85 108.99 108.85 108.65 108.85 107.99C108.85 107.99 108.6 108.32 108.11 108.99C108.11 108.99 108.06 108.99 107.95 108.99C107.95 108.99 107.95 108.57 107.95 107.75C107.95 107.75 108 107.75 108.11 107.75C108.11 107.75 108.11 108.08 108.11 108.75C108.11 108.75 108.36 108.41 108.85 107.75ZM109.97 108.33C109.97 108.33 109.97 108.19 109.97 107.9C109.97 107.9 109.87 107.9 109.69 107.9C109.49 107.9 109.39 107.97 109.39 108.12C109.39 108.26 109.49 108.33 109.69 108.33C109.69 108.33 109.78 108.33 109.97 108.33ZM109.7 108.49C109.7 108.49 109.58 108.65 109.36 108.99C109.36 108.99 109.3 108.99 109.17 108.99C109.17 108.99 109.29 108.81 109.52 108.47C109.43 108.45 109.36 108.41 109.31 108.34C109.25 108.28 109.23 108.21 109.23 108.12C109.23 108.01 109.27 107.92 109.34 107.85C109.42 107.78 109.52 107.75 109.64 107.75L110.13 107.75L110.13 108.99C110.13 108.99 110.08 108.99 109.97 108.99C109.97 108.99 109.97 108.82 109.97 108.49C109.97 108.49 109.88 108.49 109.7 108.49Z" fill="#FFFFFF" fill-opacity="1.000000" fill-rule="nonzero"/>
				<path id="Vector" d="M62.04 61.46C62.04 61.46 62.04 60.9 62.04 59.79C62.04 59.79 62.13 59.79 62.3 59.79C62.3 59.79 62.5 60.26 62.89 61.21C62.89 61.21 63.09 60.73 63.49 59.79C63.49 59.79 63.57 59.79 63.74 59.79C63.74 59.79 63.74 60.34 63.74 61.46C63.74 61.46 63.68 61.46 63.58 61.46C63.58 61.46 63.58 60.96 63.58 59.97C63.58 59.97 63.37 60.47 62.96 61.46C62.96 61.46 62.91 61.46 62.82 61.46C62.82 61.46 62.62 60.96 62.21 59.97C62.21 59.97 62.21 60.47 62.21 61.46C62.21 61.46 62.15 61.46 62.04 61.46ZM65.28 60.89C65.28 60.89 64.91 60.89 64.18 60.89C64.19 61.02 64.24 61.12 64.33 61.21C64.42 61.29 64.53 61.33 64.65 61.33C64.75 61.33 64.83 61.31 64.91 61.26C64.99 61.2 65.04 61.13 65.08 61.05L65.25 61.05C65.2 61.18 65.12 61.29 65.02 61.37C64.91 61.45 64.79 61.49 64.66 61.49C64.57 61.49 64.49 61.47 64.41 61.44C64.33 61.4 64.26 61.36 64.2 61.3C64.15 61.24 64.1 61.17 64.07 61.09C64.03 61.01 64.02 60.92 64.02 60.83C64.02 60.72 64.05 60.61 64.1 60.51C64.16 60.41 64.23 60.33 64.33 60.28C64.42 60.22 64.53 60.19 64.64 60.19C64.76 60.19 64.87 60.22 64.97 60.28C65.07 60.34 65.15 60.42 65.2 60.53C65.23 60.58 65.25 60.63 65.26 60.69C65.27 60.74 65.28 60.81 65.28 60.89ZM64.19 60.74L65.11 60.74C65.09 60.62 65.03 60.52 64.95 60.45C64.86 60.38 64.76 60.34 64.64 60.34C64.53 60.34 64.43 60.38 64.35 60.46C64.26 60.53 64.21 60.62 64.19 60.74ZM66.52 61.09C66.52 61.09 66.58 61.09 66.71 61.09C66.67 61.16 66.64 61.21 66.61 61.25C66.58 61.29 66.55 61.32 66.51 61.35C66.4 61.44 66.27 61.49 66.12 61.49C65.99 61.49 65.88 61.46 65.78 61.4C65.68 61.34 65.6 61.27 65.54 61.17C65.49 61.07 65.46 60.96 65.46 60.84C65.46 60.72 65.49 60.61 65.54 60.51C65.6 60.41 65.68 60.33 65.78 60.28C65.88 60.22 65.99 60.19 66.1 60.19C66.24 60.19 66.36 60.23 66.47 60.3C66.58 60.37 66.66 60.47 66.71 60.6L66.52 60.6C66.48 60.52 66.42 60.45 66.34 60.41C66.27 60.37 66.19 60.34 66.1 60.34C65.97 60.34 65.85 60.39 65.76 60.49C65.67 60.58 65.62 60.7 65.62 60.84C65.62 60.98 65.67 61.09 65.76 61.19C65.86 61.28 65.97 61.33 66.11 61.33C66.2 61.33 66.27 61.31 66.33 61.28C66.4 61.24 66.46 61.18 66.52 61.09ZM67.61 60.81C67.61 60.81 67.61 60.66 67.61 60.37C67.61 60.37 67.52 60.37 67.33 60.37C67.13 60.37 67.04 60.44 67.04 60.59C67.04 60.73 67.13 60.81 67.33 60.81C67.33 60.81 67.42 60.81 67.61 60.81ZM67.34 60.96C67.34 60.96 67.23 61.12 67 61.46C67 61.46 66.94 61.46 66.82 61.46C66.82 61.46 66.93 61.29 67.17 60.94C67.07 60.92 67 60.88 66.95 60.82C66.9 60.75 66.87 60.68 66.87 60.59C66.87 60.48 66.91 60.39 66.98 60.33C67.06 60.26 67.16 60.22 67.29 60.22L67.77 60.22L67.77 61.46C67.77 61.46 67.72 61.46 67.61 61.46C67.61 61.46 67.61 61.29 67.61 60.96C67.61 60.96 67.52 60.96 67.34 60.96ZM69.07 60.22C69.07 60.22 69.07 60.58 69.07 61.31C69.07 61.31 69.14 61.31 69.27 61.31C69.27 61.31 69.27 61.45 69.27 61.74C69.27 61.74 69.23 61.74 69.16 61.74C69.16 61.74 69.14 61.65 69.1 61.46C69.1 61.46 68.75 61.46 68.05 61.46C68.05 61.46 68.05 61.05 68.05 60.22C68.05 60.22 68.11 60.22 68.22 60.22C68.22 60.22 68.22 60.58 68.22 61.31C68.22 61.31 68.45 61.31 68.91 61.31C68.91 61.31 68.91 60.94 68.91 60.22C68.91 60.22 68.96 60.22 69.07 60.22ZM70.07 61.46C70.07 61.46 70.07 60.9 70.07 59.79C70.07 59.79 70.22 59.79 70.52 59.79C70.63 59.79 70.71 59.79 70.78 59.81C70.85 59.82 70.91 59.84 70.96 59.87C71.02 59.91 71.07 59.97 71.1 60.04C71.13 60.11 71.15 60.2 71.15 60.29C71.15 60.38 71.14 60.45 71.11 60.52C71.08 60.58 71.04 60.64 70.99 60.68C70.94 60.71 70.88 60.74 70.81 60.76C70.75 60.77 70.66 60.78 70.55 60.78L70.23 60.78L70.23 61.46L70.07 61.46ZM70.23 60.63L70.54 60.63C70.68 60.63 70.79 60.61 70.85 60.57C70.89 60.55 70.93 60.51 70.95 60.46C70.97 60.41 70.99 60.36 70.99 60.29C70.99 60.21 70.97 60.14 70.94 60.09C70.91 60.03 70.86 59.99 70.8 59.97C70.73 59.95 70.62 59.94 70.47 59.94L70.23 59.94L70.23 60.63ZM71.91 60.19C72.03 60.19 72.13 60.22 72.23 60.28C72.32 60.33 72.4 60.41 72.45 60.51C72.5 60.61 72.53 60.72 72.53 60.84C72.53 61.03 72.47 61.18 72.35 61.3C72.24 61.43 72.09 61.49 71.91 61.49C71.79 61.49 71.68 61.46 71.58 61.4C71.48 61.35 71.41 61.27 71.35 61.17C71.29 61.07 71.27 60.96 71.27 60.84C71.27 60.65 71.33 60.5 71.45 60.38C71.57 60.25 71.72 60.19 71.91 60.19ZM71.9 60.34C71.76 60.34 71.65 60.39 71.56 60.49C71.48 60.58 71.43 60.7 71.43 60.84C71.43 60.98 71.48 61.1 71.57 61.19C71.66 61.29 71.77 61.33 71.91 61.33C72.04 61.33 72.15 61.29 72.24 61.2C72.32 61.1 72.36 60.99 72.36 60.84C72.36 60.7 72.32 60.58 72.23 60.49C72.14 60.39 72.03 60.34 71.9 60.34ZM73.28 60.22C73.28 60.22 73.33 60.22 73.44 60.22C73.44 60.22 73.44 60.41 73.44 60.78C73.44 60.78 73.6 60.59 73.92 60.22C73.92 60.22 73.99 60.22 74.12 60.22C74.12 60.22 73.95 60.42 73.61 60.82C73.61 60.82 73.78 61.03 74.12 61.46C74.12 61.46 74.06 61.46 73.92 61.46C73.92 61.46 73.76 61.26 73.44 60.86C73.44 60.86 73.44 61.06 73.44 61.46C73.44 61.46 73.39 61.46 73.28 61.46C73.28 61.46 73.28 61.26 73.28 60.86C73.28 60.86 73.12 61.06 72.8 61.46C72.8 61.46 72.73 61.46 72.59 61.46C72.59 61.46 72.77 61.25 73.11 60.82C73.11 60.82 72.94 60.62 72.59 60.22C72.59 60.22 72.66 60.22 72.8 60.22C72.8 60.22 72.96 60.41 73.28 60.78C73.28 60.78 73.28 60.59 73.28 60.22ZM75.41 61.46C75.41 61.46 75.05 61.46 74.35 61.46C74.35 61.46 74.33 61.55 74.29 61.74C74.29 61.74 74.25 61.74 74.17 61.74C74.17 61.74 74.17 61.6 74.17 61.31C74.17 61.31 74.23 61.31 74.33 61.31C74.33 61.31 74.48 60.94 74.78 60.22C74.78 60.22 74.85 60.22 74.97 60.22C74.97 60.22 75.12 60.58 75.42 61.31C75.42 61.31 75.48 61.31 75.58 61.31C75.58 61.31 75.58 61.45 75.58 61.74C75.58 61.74 75.54 61.74 75.47 61.74C75.47 61.74 75.45 61.65 75.41 61.46ZM75.25 61.31C75.25 61.31 75.13 61.01 74.88 60.41C74.88 60.41 74.75 60.71 74.5 61.31C74.5 61.31 74.75 61.31 75.25 61.31ZM76.86 60.89C76.86 60.89 76.5 60.89 75.77 60.89C75.77 61.02 75.82 61.12 75.91 61.21C76 61.29 76.11 61.33 76.24 61.33C76.33 61.33 76.41 61.31 76.49 61.26C76.57 61.2 76.63 61.13 76.66 61.05L76.83 61.05C76.79 61.18 76.71 61.29 76.6 61.37C76.49 61.45 76.37 61.49 76.24 61.49C76.15 61.49 76.07 61.47 75.99 61.44C75.91 61.4 75.84 61.36 75.79 61.3C75.73 61.24 75.68 61.17 75.65 61.09C75.62 61.01 75.6 60.92 75.6 60.83C75.6 60.72 75.63 60.61 75.68 60.51C75.74 60.41 75.82 60.33 75.91 60.28C76.01 60.22 76.11 60.19 76.23 60.19C76.35 60.19 76.46 60.22 76.56 60.28C76.66 60.34 76.74 60.42 76.79 60.53C76.81 60.58 76.83 60.63 76.84 60.69C76.85 60.74 76.86 60.81 76.86 60.89ZM75.77 60.74L76.7 60.74C76.67 60.62 76.61 60.52 76.53 60.45C76.45 60.38 76.35 60.34 76.23 60.34C76.11 60.34 76.01 60.38 75.93 60.46C75.85 60.53 75.79 60.62 75.77 60.74ZM78.14 61.46C78.14 61.46 78.09 61.46 77.98 61.46C77.98 61.46 77.98 61.27 77.98 60.9C77.98 60.9 77.73 60.9 77.25 60.9C77.25 60.9 77.25 61.09 77.25 61.46C77.25 61.46 77.2 61.46 77.09 61.46C77.09 61.46 77.09 61.05 77.09 60.22C77.09 60.22 77.14 60.22 77.25 60.22C77.25 60.22 77.25 60.4 77.25 60.75C77.25 60.75 77.49 60.75 77.98 60.75C77.98 60.75 77.98 60.57 77.98 60.22C77.98 60.22 78.03 60.22 78.14 60.22C78.14 60.22 78.14 60.63 78.14 61.46ZM79.32 60.22C79.32 60.22 79.37 60.22 79.48 60.22C79.48 60.22 79.48 60.63 79.48 61.46C79.48 61.46 79.43 61.46 79.32 61.46C79.32 61.46 79.32 61.12 79.32 60.46C79.32 60.46 79.07 60.79 78.58 61.46C78.58 61.46 78.53 61.46 78.42 61.46C78.42 61.46 78.42 61.05 78.42 60.22C78.42 60.22 78.47 60.22 78.58 60.22C78.58 60.22 78.58 60.55 78.58 61.22C78.58 61.22 78.83 60.89 79.32 60.22ZM80.44 60.81C80.44 60.81 80.44 60.66 80.44 60.37C80.44 60.37 80.34 60.37 80.16 60.37C79.96 60.37 79.86 60.44 79.86 60.59C79.86 60.73 79.96 60.81 80.16 60.81C80.16 60.81 80.25 60.81 80.44 60.81ZM80.17 60.96C80.17 60.96 80.05 61.12 79.83 61.46C79.83 61.46 79.76 61.46 79.64 61.46C79.64 61.46 79.76 61.29 79.99 60.94C79.9 60.92 79.83 60.88 79.77 60.82C79.72 60.75 79.7 60.68 79.7 60.59C79.7 60.48 79.74 60.39 79.81 60.33C79.89 60.26 79.99 60.22 80.11 60.22L80.6 60.22L80.6 61.46C80.6 61.46 80.54 61.46 80.44 61.46C80.44 61.46 80.44 61.29 80.44 60.96C80.44 60.96 80.35 60.96 80.17 60.96Z" fill="#FFFFFF" fill-opacity="1.000000" fill-rule="nonzero"/>
				<path id="Vector" d="M60.91 140.15C60.91 140.15 60.66 139.89 60.17 139.37C60.17 139.37 60.17 139.63 60.17 140.15C60.17 140.15 60.12 140.15 60.01 140.15C60.01 140.15 60.01 139.59 60.01 138.48C60.01 138.48 60.06 138.48 60.17 138.48C60.17 138.48 60.17 138.74 60.17 139.25C60.17 139.25 60.42 138.99 60.91 138.48C60.91 138.48 60.99 138.48 61.13 138.48C61.13 138.48 60.86 138.75 60.33 139.31C60.33 139.31 60.59 139.59 61.13 140.15C61.13 140.15 61.06 140.15 60.91 140.15ZM62.43 138.91C62.43 138.91 62.43 139.33 62.43 140.15C62.43 140.15 62.37 140.15 62.26 140.15C62.26 140.15 62.26 140.08 62.26 139.93C62.2 140.02 62.13 140.08 62.06 140.12C61.99 140.16 61.9 140.18 61.8 140.18C61.68 140.18 61.57 140.15 61.47 140.1C61.37 140.04 61.29 139.96 61.23 139.87C61.18 139.77 61.15 139.66 61.15 139.53C61.15 139.41 61.18 139.3 61.23 139.2C61.29 139.1 61.36 139.03 61.46 138.97C61.56 138.91 61.67 138.88 61.79 138.88C61.89 138.88 61.98 138.9 62.06 138.94C62.14 138.98 62.2 139.05 62.26 139.13L62.26 138.91L62.43 138.91ZM61.78 139.04C61.65 139.04 61.54 139.09 61.45 139.18C61.36 139.28 61.32 139.39 61.32 139.53C61.32 139.67 61.36 139.78 61.46 139.88C61.55 139.98 61.66 140.03 61.8 140.03C61.93 140.03 62.04 139.98 62.13 139.88C62.22 139.79 62.26 139.67 62.26 139.53C62.26 139.39 62.22 139.27 62.13 139.18C62.04 139.08 61.92 139.04 61.78 139.04ZM62.71 138.91C62.71 138.91 62.76 138.91 62.87 138.91C62.87 138.91 62.87 138.98 62.87 139.13C62.92 139.05 62.99 138.99 63.07 138.95C63.15 138.9 63.24 138.88 63.35 138.88C63.46 138.88 63.57 138.91 63.67 138.97C63.77 139.03 63.84 139.1 63.9 139.2C63.95 139.3 63.98 139.41 63.98 139.53C63.98 139.65 63.95 139.76 63.9 139.86C63.84 139.96 63.76 140.04 63.67 140.1C63.57 140.15 63.46 140.18 63.34 140.18C63.24 140.18 63.15 140.16 63.07 140.12C62.99 140.08 62.92 140.02 62.87 139.94L62.87 140.58L62.71 140.58L62.71 138.91ZM63.33 139.04C63.2 139.04 63.09 139.09 63 139.18C62.9 139.28 62.86 139.39 62.86 139.53C62.86 139.67 62.9 139.79 63 139.88C63.09 139.98 63.2 140.03 63.34 140.03C63.47 140.03 63.59 139.98 63.68 139.89C63.77 139.79 63.82 139.68 63.82 139.54C63.82 139.39 63.77 139.27 63.68 139.18C63.59 139.08 63.47 139.04 63.33 139.04ZM64.21 140.15C64.21 140.15 64.21 139.74 64.21 138.91C64.21 138.91 64.3 138.91 64.47 138.91C64.47 138.91 64.61 139.25 64.89 139.92C64.89 139.92 65.03 139.58 65.31 138.91C65.31 138.91 65.4 138.91 65.57 138.91C65.57 138.91 65.57 139.33 65.57 140.15C65.57 140.15 65.51 140.15 65.4 140.15C65.4 140.15 65.4 139.8 65.4 139.1C65.4 139.1 65.26 139.45 64.96 140.15C64.96 140.15 64.91 140.15 64.82 140.15C64.82 140.15 64.67 139.8 64.38 139.1C64.38 139.1 64.38 139.45 64.38 140.15C64.38 140.15 64.32 140.15 64.21 140.15ZM66.75 138.91C66.75 138.91 66.8 138.91 66.91 138.91C66.91 138.91 66.91 139.33 66.91 140.15C66.91 140.15 66.86 140.15 66.75 140.15C66.75 140.15 66.75 139.82 66.75 139.15C66.75 139.15 66.5 139.48 66.01 140.15C66.01 140.15 65.96 140.15 65.85 140.15C65.85 140.15 65.85 139.74 65.85 138.91C65.85 138.91 65.9 138.91 66.01 138.91C66.01 138.91 66.01 139.25 66.01 139.91C66.01 139.91 66.26 139.58 66.75 138.91ZM68.07 138.91C68.07 138.91 68.07 139.33 68.07 140.15C68.07 140.15 68.01 140.15 67.9 140.15C67.9 140.15 67.9 139.99 67.9 139.66C67.78 139.67 67.66 139.68 67.52 139.68C67.48 139.68 67.44 139.67 67.4 139.66C67.35 139.65 67.32 139.63 67.29 139.61C67.2 139.55 67.15 139.44 67.15 139.29L67.15 138.91C67.15 138.91 67.2 138.91 67.31 138.91C67.31 138.91 67.31 139.04 67.31 139.29C67.31 139.34 67.32 139.38 67.33 139.41C67.34 139.44 67.36 139.46 67.38 139.48C67.41 139.5 67.44 139.51 67.49 139.52C67.53 139.53 67.58 139.53 67.65 139.53C67.72 139.53 67.8 139.52 67.9 139.51L67.9 138.91L68.07 138.91ZM69.56 139.59C69.56 139.59 69.19 139.59 68.47 139.59C68.47 139.71 68.52 139.81 68.61 139.9C68.7 139.98 68.81 140.03 68.94 140.03C69.03 140.03 69.11 140 69.19 139.95C69.27 139.9 69.32 139.83 69.36 139.74L69.53 139.74C69.48 139.87 69.41 139.98 69.3 140.06C69.19 140.14 69.07 140.18 68.94 140.18C68.85 140.18 68.77 140.16 68.69 140.13C68.61 140.1 68.54 140.05 68.49 139.99C68.43 139.93 68.38 139.86 68.35 139.78C68.32 139.7 68.3 139.62 68.3 139.53C68.3 139.41 68.33 139.3 68.38 139.2C68.44 139.1 68.51 139.03 68.61 138.97C68.71 138.91 68.81 138.88 68.93 138.88C69.05 138.88 69.16 138.91 69.26 138.97C69.36 139.03 69.43 139.12 69.49 139.22C69.51 139.27 69.53 139.33 69.54 139.38C69.55 139.44 69.56 139.5 69.56 139.59ZM68.47 139.44L69.4 139.44C69.37 139.31 69.31 139.22 69.23 139.14C69.15 139.07 69.04 139.04 68.93 139.04C68.81 139.04 68.71 139.07 68.63 139.15C68.54 139.22 68.49 139.32 68.47 139.44ZM70.81 139.79C70.81 139.79 70.87 139.79 70.99 139.79C70.96 139.85 70.93 139.91 70.9 139.94C70.87 139.98 70.83 140.02 70.79 140.05C70.68 140.14 70.55 140.18 70.4 140.18C70.28 140.18 70.16 140.15 70.06 140.1C69.96 140.04 69.88 139.96 69.83 139.86C69.77 139.76 69.74 139.65 69.74 139.53C69.74 139.41 69.77 139.3 69.83 139.2C69.88 139.1 69.96 139.03 70.06 138.97C70.16 138.91 70.27 138.88 70.39 138.88C70.52 138.88 70.65 138.92 70.75 138.99C70.86 139.07 70.94 139.17 70.99 139.29L70.81 139.29C70.76 139.21 70.7 139.15 70.63 139.1C70.56 139.06 70.47 139.04 70.39 139.04C70.25 139.04 70.14 139.09 70.04 139.18C69.95 139.28 69.91 139.39 69.91 139.53C69.91 139.67 69.95 139.79 70.05 139.88C70.14 139.98 70.26 140.03 70.39 140.03C70.48 140.03 70.55 140.01 70.62 139.97C70.68 139.93 70.74 139.87 70.81 139.79ZM71.22 138.91C71.22 138.91 71.27 138.91 71.38 138.91C71.38 138.91 71.38 139.1 71.38 139.46C71.38 139.46 71.57 139.28 71.93 138.91C71.93 138.91 72.01 138.91 72.15 138.91C72.15 138.91 71.95 139.11 71.54 139.51C71.54 139.51 71.74 139.72 72.15 140.15C72.15 140.15 72.08 140.15 71.93 140.15C71.93 140.15 71.75 139.96 71.38 139.57C71.38 139.57 71.38 139.76 71.38 140.15C71.38 140.15 71.33 140.15 71.22 140.15C71.22 140.15 71.22 139.74 71.22 138.91ZM72.85 138.88C72.97 138.88 73.08 138.91 73.17 138.97C73.26 139.03 73.34 139.1 73.39 139.2C73.45 139.3 73.47 139.41 73.47 139.53C73.47 139.72 73.41 139.87 73.3 140C73.18 140.12 73.03 140.18 72.86 140.18C72.73 140.18 72.62 140.15 72.53 140.1C72.43 140.04 72.35 139.96 72.29 139.86C72.24 139.77 72.21 139.66 72.21 139.53C72.21 139.35 72.27 139.19 72.39 139.07C72.51 138.95 72.67 138.88 72.85 138.88ZM72.84 139.04C72.71 139.04 72.6 139.09 72.51 139.18C72.42 139.27 72.38 139.39 72.38 139.53C72.38 139.68 72.42 139.79 72.51 139.89C72.6 139.98 72.72 140.03 72.85 140.03C72.99 140.03 73.09 139.98 73.18 139.89C73.26 139.8 73.31 139.68 73.31 139.54C73.31 139.39 73.26 139.27 73.18 139.18C73.09 139.08 72.98 139.04 72.84 139.04ZM74.92 139.59C74.92 139.59 74.55 139.59 73.82 139.59C73.83 139.71 73.88 139.81 73.97 139.9C74.06 139.98 74.17 140.03 74.29 140.03C74.39 140.03 74.47 140 74.55 139.95C74.63 139.9 74.68 139.83 74.72 139.74L74.89 139.74C74.84 139.87 74.77 139.98 74.66 140.06C74.55 140.14 74.43 140.18 74.3 140.18C74.21 140.18 74.13 140.16 74.05 140.13C73.97 140.1 73.9 140.05 73.84 139.99C73.79 139.93 73.74 139.86 73.71 139.78C73.68 139.7 73.66 139.62 73.66 139.53C73.66 139.41 73.69 139.3 73.74 139.2C73.8 139.1 73.87 139.03 73.97 138.97C74.07 138.91 74.17 138.88 74.29 138.88C74.41 138.88 74.52 138.91 74.62 138.97C74.72 139.03 74.79 139.12 74.85 139.22C74.87 139.27 74.89 139.33 74.9 139.38C74.91 139.44 74.92 139.5 74.92 139.59ZM73.83 139.44L74.76 139.44C74.73 139.31 74.67 139.22 74.59 139.14C74.5 139.07 74.4 139.04 74.29 139.04C74.17 139.04 74.07 139.07 73.99 139.15C73.9 139.22 73.85 139.32 73.83 139.44ZM76.64 138.91C76.64 138.91 76.64 139.33 76.64 140.15C76.64 140.15 76.58 140.15 76.47 140.15C76.47 140.15 76.47 139.99 76.47 139.66C76.35 139.67 76.22 139.68 76.09 139.68C76.05 139.68 76.01 139.67 75.97 139.66C75.92 139.65 75.89 139.63 75.86 139.61C75.76 139.55 75.72 139.44 75.72 139.29L75.72 138.91C75.72 138.91 75.77 138.91 75.88 138.91C75.88 138.91 75.88 139.04 75.88 139.29C75.88 139.34 75.89 139.38 75.9 139.41C75.91 139.44 75.93 139.46 75.95 139.48C75.98 139.5 76.01 139.51 76.05 139.52C76.1 139.53 76.15 139.53 76.22 139.53C76.29 139.53 76.37 139.52 76.47 139.51L76.47 138.91L76.64 138.91ZM77.82 138.91C77.82 138.91 77.87 138.91 77.98 138.91C77.98 138.91 77.98 139.33 77.98 140.15C77.98 140.15 77.93 140.15 77.82 140.15C77.82 140.15 77.82 139.82 77.82 139.15C77.82 139.15 77.57 139.48 77.08 140.15C77.08 140.15 77.03 140.15 76.92 140.15C76.92 140.15 76.92 139.74 76.92 138.91C76.92 138.91 76.97 138.91 77.08 138.91C77.08 138.91 77.08 139.25 77.08 139.91C77.08 139.91 77.33 139.58 77.82 138.91ZM79.28 139.79C79.28 139.79 79.34 139.79 79.46 139.79C79.43 139.85 79.4 139.91 79.37 139.94C79.34 139.98 79.31 140.02 79.27 140.05C79.16 140.14 79.02 140.18 78.87 140.18C78.75 140.18 78.64 140.15 78.54 140.1C78.44 140.04 78.36 139.96 78.3 139.86C78.24 139.76 78.21 139.65 78.21 139.53C78.21 139.41 78.24 139.3 78.3 139.2C78.36 139.1 78.43 139.03 78.53 138.97C78.63 138.91 78.74 138.88 78.86 138.88C79 138.88 79.12 138.92 79.23 138.99C79.34 139.07 79.41 139.17 79.46 139.29L79.28 139.29C79.23 139.21 79.17 139.15 79.1 139.1C79.03 139.06 78.95 139.04 78.86 139.04C78.72 139.04 78.61 139.09 78.52 139.18C78.43 139.28 78.38 139.39 78.38 139.53C78.38 139.67 78.43 139.79 78.52 139.88C78.61 139.98 78.73 140.03 78.87 140.03C78.95 140.03 79.03 140.01 79.09 139.97C79.15 139.93 79.22 139.87 79.28 139.79ZM80.75 140.15C80.75 140.15 80.69 140.15 80.58 140.15C80.58 140.15 80.43 139.8 80.14 139.1C80.14 139.1 79.99 139.45 79.7 140.15C79.7 140.15 79.64 140.15 79.52 140.15C79.52 140.15 79.7 139.74 80.04 138.91C80.04 138.91 80.11 138.91 80.23 138.91C80.23 138.91 80.4 139.33 80.75 140.15ZM81.43 138.88C81.55 138.88 81.65 138.91 81.75 138.97C81.84 139.03 81.92 139.1 81.97 139.2C82.03 139.3 82.05 139.41 82.05 139.53C82.05 139.72 81.99 139.87 81.88 140C81.76 140.12 81.61 140.18 81.44 140.18C81.31 140.18 81.2 140.15 81.11 140.1C81.01 140.04 80.93 139.96 80.87 139.86C80.82 139.77 80.79 139.66 80.79 139.53C80.79 139.35 80.85 139.19 80.97 139.07C81.09 138.95 81.25 138.88 81.43 138.88ZM81.42 139.04C81.29 139.04 81.18 139.09 81.09 139.18C81 139.27 80.96 139.39 80.96 139.53C80.96 139.68 81 139.79 81.09 139.89C81.18 139.98 81.29 140.03 81.43 140.03C81.56 140.03 81.67 139.98 81.76 139.89C81.84 139.8 81.89 139.68 81.89 139.54C81.89 139.39 81.84 139.27 81.76 139.18C81.67 139.08 81.56 139.04 81.42 139.04Z" fill="#FFFFFF" fill-opacity="1.000000" fill-rule="nonzero"/>
				<path id="Vector" d="M77.79 105.46C77.79 105.46 78.17 105.07 78.94 104.28C78.94 104.28 79 104.34 79.12 104.46C79.12 104.46 78.94 104.94 78.56 105.9C78.56 105.9 79.03 105.7 79.96 105.32C79.96 105.32 80.02 105.38 80.14 105.5C80.14 105.5 79.76 105.9 78.99 106.68C78.99 106.68 78.95 106.65 78.87 106.57C78.87 106.57 79.22 106.22 79.9 105.51C79.9 105.51 79.41 105.72 78.44 106.12C78.44 106.12 78.4 106.09 78.34 106.02C78.34 106.02 78.54 105.52 78.93 104.53C78.93 104.53 78.59 104.88 77.9 105.58C77.9 105.58 77.87 105.54 77.79 105.46ZM79.01 107.32C79.01 107.32 79.17 107.26 79.48 107.13C79.48 107.13 79.65 106.74 79.98 105.95C79.98 105.95 80.02 105.99 80.1 106.08C80.1 106.08 79.97 106.4 79.69 107.05C79.69 107.05 80.02 106.92 80.66 106.65C80.66 106.65 80.7 106.69 80.79 106.77C80.79 106.77 80.24 107 79.14 107.45C79.14 107.45 79.1 107.41 79.01 107.32ZM81.29 107.29C81.29 107.29 81.33 107.33 81.41 107.41C81.41 107.41 81.28 107.54 81.02 107.81C81.02 107.81 81.26 107.79 81.75 107.75C81.75 107.75 81.79 107.8 81.89 107.9C81.89 107.9 81.63 107.92 81.11 107.95C81.11 107.95 81.08 108.23 81.04 108.78C81.04 108.78 80.99 108.73 80.89 108.63C80.89 108.63 80.91 108.37 80.96 107.86C80.96 107.86 80.83 108 80.55 108.28C80.55 108.28 80.51 108.24 80.44 108.16C80.44 108.16 80.57 108.02 80.85 107.75C80.85 107.75 80.6 107.77 80.1 107.82C80.1 107.82 80.05 107.77 79.95 107.67C79.95 107.67 80.22 107.65 80.76 107.6C80.76 107.6 80.77 107.33 80.81 106.8C80.81 106.8 80.86 106.85 80.95 106.95C80.95 106.95 80.94 107.19 80.9 107.69C80.9 107.69 81.03 107.55 81.29 107.29ZM82.09 109.34C82.09 109.34 82.13 109.38 82.22 109.47C82.15 109.49 82.09 109.51 82.04 109.51C82 109.52 81.95 109.52 81.9 109.51C81.76 109.49 81.63 109.43 81.53 109.32C81.44 109.23 81.38 109.13 81.35 109.02C81.32 108.9 81.31 108.79 81.34 108.68C81.37 108.57 81.43 108.47 81.51 108.38C81.59 108.3 81.69 108.24 81.8 108.21C81.91 108.19 82.01 108.19 82.12 108.22C82.23 108.25 82.33 108.31 82.41 108.4C82.51 108.49 82.57 108.61 82.6 108.74C82.62 108.87 82.61 108.99 82.56 109.12L82.43 108.98C82.45 108.89 82.45 108.81 82.43 108.72C82.41 108.64 82.37 108.57 82.31 108.5C82.21 108.41 82.1 108.36 81.97 108.36C81.83 108.36 81.72 108.41 81.62 108.51C81.53 108.6 81.48 108.72 81.48 108.86C81.48 108.99 81.53 109.11 81.63 109.21C81.69 109.27 81.75 109.31 81.82 109.33C81.89 109.35 81.98 109.35 82.09 109.34ZM82.98 109.02C82.98 109.02 83.02 109.06 83.1 109.14C83.1 109.14 82.97 109.27 82.72 109.52C82.72 109.52 82.97 109.53 83.49 109.53C83.49 109.53 83.54 109.59 83.64 109.69C83.64 109.69 83.36 109.68 82.8 109.67C82.8 109.67 82.79 109.97 82.78 110.56C82.78 110.56 82.73 110.51 82.63 110.41C82.63 110.41 82.64 110.14 82.65 109.6C82.65 109.6 82.51 109.73 82.24 110.01C82.24 110.01 82.2 109.97 82.13 109.89C82.13 109.89 82.41 109.6 82.98 109.02ZM84.16 110.18C84.24 110.26 84.3 110.36 84.32 110.47C84.35 110.57 84.35 110.68 84.32 110.79C84.29 110.9 84.23 111 84.15 111.09C84.02 111.22 83.87 111.28 83.7 111.29C83.54 111.29 83.39 111.22 83.26 111.1C83.18 111.01 83.12 110.91 83.09 110.8C83.06 110.69 83.06 110.58 83.08 110.47C83.11 110.36 83.17 110.26 83.25 110.17C83.38 110.04 83.53 109.97 83.7 109.97C83.87 109.97 84.03 110.04 84.16 110.18ZM84.04 110.28C83.95 110.18 83.84 110.13 83.71 110.14C83.58 110.14 83.47 110.19 83.37 110.29C83.27 110.39 83.22 110.51 83.22 110.64C83.22 110.77 83.27 110.88 83.37 110.98C83.46 111.08 83.57 111.13 83.69 111.12C83.82 111.12 83.93 111.07 84.03 110.97C84.13 110.86 84.18 110.75 84.18 110.62C84.19 110.49 84.14 110.37 84.04 110.28ZM85.19 110.64C85.19 110.64 85.23 110.68 85.31 110.76C85.22 110.84 85.22 110.93 85.3 111.01C85.38 111.1 85.46 111.09 85.55 111.01L85.67 111.12C85.59 111.18 85.51 111.21 85.43 111.2C85.36 111.19 85.29 111.15 85.23 111.09C85.16 111.02 85.12 110.95 85.12 110.87C85.11 110.8 85.13 110.72 85.19 110.64ZM85.38 111.47C85.38 111.47 85.42 111.5 85.49 111.58C85.49 111.58 85.21 111.87 84.64 112.46C84.64 112.46 84.6 112.42 84.52 112.34C84.52 112.34 84.75 112.1 85.21 111.63C85.21 111.63 84.81 111.69 84 111.81C84 111.81 83.96 111.77 83.89 111.69C83.89 111.69 84.17 111.4 84.74 110.81C84.74 110.81 84.78 110.85 84.86 110.93C84.86 110.93 84.63 111.17 84.17 111.64C84.17 111.64 84.57 111.58 85.38 111.47ZM86.12 112.23C86.12 112.23 86.16 112.27 86.24 112.35C86.24 112.35 86.19 112.4 86.09 112.5C86.18 112.48 86.27 112.48 86.36 112.51C86.44 112.54 86.52 112.59 86.6 112.67C86.68 112.76 86.74 112.85 86.77 112.96C86.8 113.07 86.8 113.18 86.77 113.29C86.74 113.41 86.68 113.5 86.6 113.59C86.52 113.67 86.42 113.73 86.31 113.76C86.2 113.79 86.1 113.79 85.99 113.76C85.88 113.73 85.78 113.67 85.7 113.58C85.63 113.51 85.58 113.43 85.55 113.34C85.52 113.26 85.52 113.16 85.53 113.07L85.09 113.53L84.97 113.41L86.12 112.23ZM86.48 112.77C86.39 112.67 86.28 112.63 86.14 112.63C86.01 112.63 85.9 112.68 85.8 112.78C85.71 112.87 85.66 112.99 85.66 113.12C85.66 113.26 85.71 113.37 85.8 113.47C85.9 113.57 86.01 113.62 86.14 113.62C86.27 113.62 86.38 113.57 86.48 113.47C86.58 113.37 86.63 113.25 86.63 113.12C86.63 112.99 86.58 112.87 86.48 112.77ZM87.63 113.73C87.72 113.81 87.77 113.91 87.8 114.02C87.83 114.12 87.83 114.23 87.79 114.34C87.76 114.45 87.71 114.55 87.62 114.64C87.49 114.77 87.34 114.83 87.18 114.84C87.01 114.84 86.86 114.77 86.74 114.65C86.65 114.56 86.59 114.46 86.56 114.35C86.53 114.24 86.53 114.13 86.56 114.02C86.59 113.91 86.64 113.81 86.73 113.72C86.86 113.59 87.01 113.52 87.18 113.52C87.35 113.53 87.5 113.59 87.63 113.73ZM87.52 113.83C87.42 113.73 87.31 113.68 87.18 113.69C87.06 113.69 86.94 113.74 86.85 113.84C86.75 113.94 86.7 114.06 86.7 114.19C86.7 114.32 86.75 114.43 86.84 114.53C86.94 114.63 87.05 114.68 87.17 114.67C87.29 114.67 87.4 114.62 87.5 114.52C87.6 114.42 87.65 114.3 87.66 114.17C87.66 114.04 87.61 113.92 87.52 113.83ZM88.08 115.98C88.08 115.98 87.83 115.72 87.33 115.21C87.33 115.21 87.25 115.27 87.09 115.37C87.09 115.37 87.07 115.34 87.02 115.29C87.02 115.29 87.12 115.19 87.32 114.98C87.32 114.98 87.35 115.02 87.43 115.09C87.43 115.09 87.78 114.95 88.5 114.65C88.5 114.65 88.54 114.7 88.63 114.79C88.63 114.79 88.49 115.15 88.2 115.88C88.2 115.88 88.24 115.92 88.31 116C88.31 116 88.21 116.1 88.01 116.31C88.01 116.31 87.98 116.28 87.93 116.22C87.93 116.22 87.98 116.14 88.08 115.98ZM88.08 115.76C88.08 115.76 88.2 115.46 88.43 114.86C88.43 114.86 88.14 114.98 87.55 115.22C87.55 115.22 87.73 115.4 88.08 115.76Z" fill="#FFFFFF" fill-opacity="1.000000" fill-rule="nonzero"/>
				<path id="Vector" d="M55.47 114.37C55.47 114.37 54.98 114.17 54.01 113.77C54.01 113.77 54.21 114.27 54.6 115.27C54.6 115.27 54.56 115.31 54.47 115.39C54.47 115.39 54.25 114.83 53.82 113.71C53.82 113.71 53.86 113.66 53.94 113.57C53.94 113.57 54.49 113.8 55.6 114.25C55.6 114.25 55.55 114.29 55.47 114.37ZM55.49 112.6C55.49 112.6 55.53 112.56 55.61 112.49C55.61 112.49 55.89 112.78 56.46 113.36C56.46 113.36 56.43 113.4 56.35 113.48C56.35 113.48 56.12 113.24 55.66 112.77C55.66 112.77 55.71 113.18 55.83 114.01C55.83 114.01 55.79 114.05 55.71 114.13C55.71 114.13 55.43 113.84 54.86 113.25C54.86 113.25 54.9 113.21 54.97 113.14C54.97 113.14 55.2 113.37 55.66 113.84C55.66 113.84 55.61 113.43 55.49 112.6ZM57.41 112.4C57.41 112.4 57.37 112.44 57.29 112.52C57.29 112.52 57.16 112.38 56.91 112.12C56.91 112.12 56.74 112.3 56.39 112.65C56.39 112.65 56.52 112.78 56.78 113.04C56.78 113.04 56.74 113.08 56.66 113.16C56.66 113.16 56.38 112.87 55.81 112.28C55.81 112.28 55.85 112.24 55.92 112.16C55.92 112.16 56.05 112.29 56.29 112.54C56.29 112.54 56.46 112.37 56.8 112.02C56.8 112.02 56.68 111.89 56.44 111.64C56.44 111.64 56.47 111.6 56.55 111.52C56.55 111.52 56.84 111.81 57.41 112.4ZM57.38 110.67C57.38 110.67 57.42 110.63 57.5 110.55C57.5 110.55 57.79 110.84 58.36 111.43C58.36 111.43 58.32 111.47 58.24 111.55C58.24 111.55 58.01 111.31 57.55 110.84C57.55 110.84 57.61 111.25 57.72 112.08C57.72 112.08 57.68 112.12 57.6 112.2C57.6 112.2 57.32 111.9 56.75 111.32C56.75 111.32 56.79 111.28 56.86 111.2C56.86 111.2 57.09 111.44 57.56 111.91C57.56 111.91 57.5 111.5 57.38 110.67ZM58.58 110.28C58.58 110.28 58.48 110.17 58.28 109.97C58.28 109.97 58.21 110.04 58.08 110.17C57.94 110.31 57.92 110.44 58.02 110.54C58.12 110.64 58.24 110.62 58.38 110.48C58.38 110.48 58.45 110.41 58.58 110.28ZM58.5 110.58C58.5 110.58 58.53 110.78 58.6 111.18C58.6 111.18 58.56 111.22 58.47 111.31C58.47 111.31 58.43 111.11 58.36 110.7C58.28 110.75 58.2 110.77 58.12 110.76C58.04 110.75 57.97 110.72 57.91 110.66C57.83 110.58 57.8 110.49 57.81 110.39C57.81 110.28 57.86 110.19 57.95 110.1L58.29 109.75L59.15 110.62C59.15 110.62 59.11 110.66 59.03 110.74C59.03 110.74 58.91 110.62 58.68 110.38C58.68 110.38 58.62 110.45 58.5 110.58ZM59.31 108.7C59.31 108.7 59.35 108.66 59.43 108.58C59.43 108.58 59.56 108.71 59.82 108.98C59.82 108.98 59.8 108.73 59.77 108.24C59.77 108.24 59.82 108.19 59.91 108.09C59.91 108.09 59.93 108.35 59.96 108.89C59.96 108.89 60.23 108.91 60.77 108.96C60.77 108.96 60.72 109.01 60.62 109.11C60.62 109.11 60.37 109.09 59.88 109.04C59.88 109.04 60.01 109.18 60.29 109.46C60.29 109.46 60.25 109.5 60.17 109.57C60.17 109.57 60.03 109.43 59.76 109.15C59.76 109.15 59.78 109.41 59.83 109.92C59.83 109.92 59.78 109.97 59.69 110.07C59.69 110.07 59.66 109.79 59.61 109.25C59.61 109.25 59.35 109.23 58.83 109.19C58.83 109.19 58.88 109.14 58.98 109.04C58.98 109.04 59.22 109.06 59.7 109.1C59.7 109.1 59.57 108.96 59.31 108.7ZM60.66 107.33C60.66 107.33 60.69 107.29 60.77 107.21C60.77 107.21 61.06 107.5 61.63 108.08C61.63 108.08 61.59 108.12 61.51 108.2C61.51 108.2 61.28 107.97 60.82 107.5C60.82 107.5 60.88 107.91 60.99 108.73C60.99 108.73 60.95 108.77 60.87 108.85C60.87 108.85 60.59 108.56 60.02 107.98C60.02 107.98 60.06 107.94 60.14 107.86C60.14 107.86 60.37 108.1 60.83 108.57C60.83 108.57 60.77 108.15 60.66 107.33ZM61.63 107.26L61.53 107.16C61.61 107.08 61.65 107.01 61.66 106.95C61.68 106.89 61.66 106.83 61.62 106.79C61.58 106.75 61.54 106.74 61.48 106.74C61.42 106.75 61.37 106.77 61.33 106.82C61.29 106.86 61.26 106.91 61.26 106.97C61.25 107.02 61.27 107.07 61.3 107.11L61.18 107.23C61.12 107.16 61.09 107.07 61.1 106.97C61.11 106.87 61.15 106.78 61.22 106.71C61.3 106.63 61.39 106.58 61.49 106.58C61.59 106.57 61.67 106.6 61.74 106.67C61.78 106.71 61.8 106.76 61.81 106.82C61.82 106.88 61.81 106.94 61.78 106.99C61.85 106.95 61.92 106.93 61.99 106.94C62.06 106.94 62.12 106.96 62.17 107.02C62.25 107.1 62.28 107.19 62.27 107.31C62.26 107.43 62.21 107.53 62.12 107.62C62.03 107.71 61.93 107.76 61.82 107.77C61.71 107.78 61.61 107.75 61.54 107.67L61.65 107.55C61.7 107.6 61.76 107.62 61.83 107.61C61.9 107.6 61.96 107.57 62.01 107.51C62.07 107.45 62.1 107.39 62.11 107.32C62.12 107.25 62.1 107.19 62.06 107.14C62.01 107.09 61.95 107.08 61.88 107.09C61.8 107.11 61.72 107.16 61.63 107.26ZM63.32 106.35C63.32 106.35 63.28 106.39 63.21 106.47C63.21 106.47 63.08 106.34 62.82 106.08C62.82 106.08 62.65 106.26 62.31 106.6C62.31 106.6 62.44 106.73 62.69 107C62.69 107 62.65 107.04 62.58 107.11C62.58 107.11 62.29 106.82 61.72 106.24C61.72 106.24 61.76 106.2 61.84 106.12C61.84 106.12 61.96 106.25 62.2 106.5C62.2 106.5 62.38 106.32 62.72 105.97C62.72 105.97 62.59 105.85 62.35 105.6C62.35 105.6 62.39 105.56 62.47 105.48C62.47 105.48 62.75 105.77 63.32 106.35ZM63.3 104.63C63.3 104.63 63.34 104.59 63.41 104.51C63.41 104.51 63.7 104.8 64.27 105.38C64.27 105.38 64.23 105.42 64.15 105.5C64.15 105.5 63.92 105.27 63.46 104.8C63.46 104.8 63.52 105.21 63.63 106.03C63.63 106.03 63.59 106.07 63.52 106.15C63.52 106.15 63.23 105.86 62.66 105.28C62.66 105.28 62.7 105.24 62.78 105.16C62.78 105.16 63.01 105.4 63.47 105.87C63.47 105.87 63.41 105.45 63.3 104.63Z" fill="#FFFFFF" fill-opacity="1.000000" fill-rule="nonzero"/>
				<path id="Vector" d="M56.21 84.21C56.21 84.21 56.41 83.72 56.8 82.72C56.8 82.72 56.31 82.92 55.34 83.32C55.34 83.32 55.3 83.28 55.21 83.2C55.21 83.2 55.77 82.97 56.87 82.52C56.87 82.52 56.91 82.57 57 82.65C57 82.65 56.78 83.22 56.34 84.34C56.34 84.34 56.3 84.3 56.21 84.21ZM57.95 84.24C57.95 84.24 57.98 84.28 58.06 84.36C58.06 84.36 57.78 84.65 57.21 85.23C57.21 85.23 57.17 85.19 57.09 85.11C57.09 85.11 57.32 84.88 57.78 84.41C57.78 84.41 57.38 84.46 56.57 84.58C56.57 84.58 56.53 84.54 56.45 84.46C56.45 84.46 56.74 84.17 57.31 83.59C57.31 83.59 57.35 83.63 57.42 83.71C57.42 83.71 57.19 83.94 56.73 84.41C56.73 84.41 57.14 84.35 57.95 84.24ZM58.15 86.19C58.15 86.19 58.11 86.15 58.03 86.07C58.03 86.07 58.16 85.94 58.42 85.68C58.42 85.68 58.24 85.51 57.9 85.16C57.9 85.16 57.78 85.29 57.52 85.55C57.52 85.55 57.48 85.51 57.4 85.43C57.4 85.43 57.69 85.14 58.26 84.56C58.26 84.56 58.3 84.6 58.37 84.68C58.37 84.68 58.25 84.8 58.01 85.05C58.01 85.05 58.18 85.23 58.52 85.58C58.52 85.58 58.64 85.45 58.89 85.2C58.89 85.2 58.93 85.24 59 85.32C59 85.32 58.72 85.61 58.15 86.19ZM59.84 86.17C59.84 86.17 59.87 86.21 59.95 86.29C59.95 86.29 59.67 86.58 59.1 87.16C59.1 87.16 59.06 87.12 58.98 87.04C58.98 87.04 59.21 86.81 59.67 86.34C59.67 86.34 59.27 86.4 58.46 86.51C58.46 86.51 58.42 86.47 58.34 86.39C58.34 86.39 58.63 86.1 59.2 85.52C59.2 85.52 59.24 85.56 59.32 85.64C59.32 85.64 59.09 85.87 58.62 86.34C58.62 86.34 59.03 86.29 59.84 86.17ZM60.22 87.39C60.22 87.39 60.32 87.29 60.52 87.08C60.52 87.08 60.46 87.02 60.32 86.88C60.19 86.74 60.07 86.72 59.97 86.82C59.87 86.93 59.89 87.05 60.02 87.19C60.02 87.19 60.09 87.26 60.22 87.39ZM59.93 87.3C59.93 87.3 59.73 87.34 59.34 87.41C59.34 87.41 59.3 87.37 59.21 87.28C59.21 87.28 59.41 87.24 59.81 87.17C59.76 87.09 59.74 87 59.75 86.92C59.75 86.84 59.79 86.77 59.85 86.7C59.92 86.63 60.01 86.59 60.11 86.6C60.21 86.61 60.31 86.65 60.4 86.74L60.74 87.1L59.89 87.97C59.89 87.97 59.85 87.93 59.77 87.85C59.77 87.85 59.89 87.73 60.12 87.5C60.12 87.5 60.05 87.43 59.93 87.3ZM61.77 88.14C61.77 88.14 61.8 88.18 61.88 88.26C61.88 88.26 61.75 88.39 61.49 88.66C61.49 88.66 61.74 88.64 62.22 88.6C62.22 88.6 62.27 88.65 62.36 88.75C62.36 88.75 62.1 88.77 61.58 88.8C61.58 88.8 61.56 89.08 61.51 89.63C61.51 89.63 61.46 89.58 61.36 89.48C61.36 89.48 61.39 89.22 61.44 88.71C61.44 88.71 61.3 88.85 61.03 89.13C61.03 89.13 60.99 89.09 60.91 89.01C60.91 89.01 61.05 88.88 61.32 88.6C61.32 88.6 61.07 88.62 60.57 88.67C60.57 88.67 60.52 88.62 60.43 88.52C60.43 88.52 60.7 88.5 61.23 88.45C61.23 88.45 61.25 88.18 61.28 87.65C61.28 87.65 61.33 87.7 61.43 87.8C61.43 87.8 61.41 88.04 61.38 88.54C61.38 88.54 61.51 88.41 61.77 88.14ZM63.11 89.51C63.11 89.51 63.15 89.55 63.22 89.63C63.22 89.63 62.94 89.92 62.37 90.5C62.37 90.5 62.33 90.47 62.25 90.39C62.25 90.39 62.48 90.15 62.94 89.68C62.94 89.68 62.54 89.74 61.73 89.85C61.73 89.85 61.69 89.82 61.62 89.74C61.62 89.74 61.9 89.44 62.47 88.86C62.47 88.86 62.51 88.9 62.59 88.98C62.59 88.98 62.36 89.22 61.9 89.69C61.9 89.69 62.3 89.63 63.11 89.51ZM63.18 90.51L63.27 90.41C63.35 90.49 63.42 90.53 63.48 90.54C63.54 90.56 63.6 90.54 63.64 90.5C63.67 90.46 63.69 90.41 63.68 90.36C63.68 90.3 63.65 90.25 63.61 90.2C63.56 90.16 63.52 90.13 63.46 90.13C63.41 90.12 63.36 90.14 63.32 90.17L63.21 90.05C63.28 89.99 63.36 89.96 63.46 89.97C63.55 89.97 63.64 90.01 63.72 90.09C63.79 90.17 63.84 90.26 63.84 90.36C63.85 90.46 63.82 90.55 63.76 90.62C63.72 90.66 63.66 90.68 63.6 90.69C63.55 90.7 63.49 90.69 63.44 90.66C63.47 90.73 63.49 90.8 63.49 90.87C63.49 90.94 63.46 91.01 63.41 91.06C63.33 91.14 63.24 91.17 63.13 91.16C63.01 91.15 62.91 91.1 62.82 91.01C62.73 90.92 62.69 90.82 62.68 90.7C62.67 90.59 62.7 90.49 62.77 90.41L62.89 90.53C62.85 90.58 62.83 90.64 62.83 90.71C62.84 90.78 62.87 90.84 62.93 90.9C62.98 90.96 63.05 90.99 63.12 91C63.19 91.01 63.25 90.99 63.29 90.94C63.34 90.9 63.35 90.84 63.34 90.76C63.32 90.68 63.27 90.6 63.18 90.51ZM64.06 92.24C64.06 92.24 64.02 92.2 63.95 92.12C63.95 92.12 64.07 91.99 64.33 91.73C64.33 91.73 64.16 91.55 63.82 91.2C63.82 91.2 63.69 91.33 63.43 91.59C63.43 91.59 63.39 91.55 63.32 91.47C63.32 91.47 63.6 91.18 64.17 90.6C64.17 90.6 64.21 90.64 64.29 90.72C64.29 90.72 64.17 90.84 63.92 91.09C63.92 91.09 64.09 91.27 64.43 91.62C64.43 91.62 64.56 91.49 64.8 91.24C64.8 91.24 64.84 91.28 64.92 91.36C64.92 91.36 64.63 91.65 64.06 92.24ZM65.75 92.21C65.75 92.21 65.79 92.25 65.87 92.33C65.87 92.33 65.58 92.62 65.01 93.2C65.01 93.2 64.97 93.17 64.89 93.09C64.89 93.09 65.13 92.85 65.59 92.38C65.59 92.38 65.18 92.44 64.37 92.55C64.37 92.55 64.34 92.52 64.26 92.44C64.26 92.44 64.54 92.14 65.11 91.56C65.11 91.56 65.15 91.6 65.23 91.68C65.23 91.68 65 91.92 64.54 92.39C64.54 92.39 64.94 92.33 65.75 92.21Z" fill="#FFFFFF" fill-opacity="1.000000" fill-rule="nonzero"/>
			</g>
		</g>
		<rect id="card_matrix" rx="10.500000" width="96.311256" height="153.000000" transform="translate(23.500000 23.500000)" stroke="#FFFFFF" stroke-opacity="1.000000" stroke-width="7.000000"/>
	</g>
</svg>
