<svg width="175.741699" height="268.000000" viewBox="0 0 175.742 268" fill="none" xmlns="http://www.w3.org/2000/svg" xmlns:xlink="http://www.w3.org/1999/xlink">
	<desc>
			Created with Pixso.
	</desc>
	<defs>
		<filter id="filter_2_2570_dd" x="0.000000" y="0.000000" width="175.741699" height="268.000000" filterUnits="userSpaceOnUse" color-interpolation-filters="sRGB">
			<feFlood flood-opacity="0" result="BackgroundImageFix"/>
			<feColorMatrix in="SourceAlpha" type="matrix" values="0 0 0 0 0 0 0 0 0 0 0 0 0 0 0 0 0 0 127 0" result="hardAlpha"/>
			<feOffset dx="4" dy="4"/>
			<feGaussianBlur stdDeviation="1.33333"/>
			<feComposite in2="hardAlpha" operator="out" k2="-1" k3="1"/>
			<feColorMatrix type="matrix" values="0 0 0 0 0 0 0 0 0 0 0 0 0 0 0 0 0 0 0.1 0"/>
			<feBlend mode="normal" in2="BackgroundImageFix" result="effect_dropShadow_1"/>
			<feBlend mode="normal" in="SourceGraphic" in2="effect_dropShadow_1" result="shape"/>
		</filter>
		<clipPath id="clip2_2570">
			<rect id="card_tarot" rx="13.500000" width="166.741928" height="259.000000" transform="translate(0.500000 0.500000)" fill="white" fill-opacity="0"/>
		</clipPath>
		<linearGradient x1="77.932930" y1="116.605728" x2="61.620033" y2="122.978714" id="paint_linear_2_2612_0" gradientUnits="userSpaceOnUse">
			<stop stop-color="#C973D3"/>
			<stop offset="1.000000" stop-color="#E1C6FF"/>
		</linearGradient>
		<linearGradient x1="88.873413" y1="122.853012" x2="91.310463" y2="130.633850" id="paint_linear_2_2613_0" gradientUnits="userSpaceOnUse">
			<stop stop-color="#C973D3"/>
			<stop offset="1.000000" stop-color="#E1C6FF"/>
		</linearGradient>
	</defs>
	<g filter="url(#filter_2_2570_dd)">
		<rect id="card_tarot" rx="13.500000" width="166.741928" height="259.000000" transform="translate(0.500000 0.500000)" fill="#FFFFFF" fill-opacity="0"/>
		<g clip-path="url(#clip2_2570)">
			<mask id="mask2_2572" mask-type="alpha" maskUnits="userSpaceOnUse" x="0.000000" y="0.000000" width="167.741699" height="260.000000">
				<path id="Vector" d="M0 0L167.74 0L167.74 260L0 260L0 0Z" fill="#000000" fill-opacity="1.000000" fill-rule="nonzero"/>
			</mask>
			<g mask="url(#mask2_2572)">
				<path id="Vector" d="M10.78 0L156.95 0C162.91 0 167.74 4.82 167.74 10.78L167.74 249.21C167.74 255.17 162.91 260 156.95 260L10.78 260C4.82 260 0 255.17 0 249.21L0 10.78C0 4.82 4.82 0 10.78 0Z" fill="#E1C6FF" fill-opacity="1.000000" fill-rule="evenodd"/>
				<path id="Vector" d="M30.93 218.04C44.86 235.32 63.5 244.83 83.38 244.83C103.27 244.83 121.91 235.32 135.9 218.04C149.55 201.16 157.08 178.7 157.08 154.9C157.08 147.13 156.29 139.37 154.65 131.82C156.82 123.08 157.93 114.1 157.93 105.09C157.93 81.29 150.4 58.89 136.75 41.95C122.81 24.67 104.18 15.16 84.29 15.16C64.41 15.16 45.77 24.67 31.83 41.95C18.18 58.83 10.65 81.29 10.65 105.09C10.65 112.86 11.44 120.62 13.08 128.17C10.91 136.91 9.81 145.89 9.8 154.9C9.8 178.7 17.27 201.1 30.93 218.04ZM21.5 105.21C21.5 61.54 49.65 25.97 84.32 25.97C118.99 25.97 147.14 61.54 147.14 105.21C147.14 113.74 146.04 122.23 143.86 130.48L143.52 131.77L143.8 133.07C145.46 140.28 146.29 147.67 146.3 155.07C146.3 198.74 118.14 234.31 83.47 234.31C48.86 234.31 20.65 198.74 20.65 155.07C20.65 146.46 21.78 137.96 23.94 129.8L24.27 128.51L23.99 127.21C22.34 120 21.5 112.62 21.5 105.21Z" fill="#82298C" fill-opacity="1.000000" fill-rule="evenodd"/>
				<path id="Vector" d="M152.49 104.86C152.49 57.72 121.97 19.5 84.32 19.5C46.67 19.5 16.09 57.72 16.09 104.86C16.09 112.98 17 120.82 18.7 128.26C16.41 137.03 15.25 146.06 15.24 155.13C15.24 202.27 45.76 240.5 83.41 240.5C121.06 240.5 151.58 202.27 151.58 155.13C151.58 147 150.67 139.17 148.98 131.73C151.32 122.97 152.5 113.93 152.49 104.86Z" fill="#E1C6FF" fill-opacity="1.000000" fill-rule="nonzero"/>
				<mask id="mask2_2579" mask-type="alpha" maskUnits="userSpaceOnUse" x="15.249023" y="19.500000" width="137.243164" height="221.000000">
					<path id="Vector" d="M152.49 104.86C152.49 57.72 121.97 19.5 84.32 19.5C46.67 19.5 16.09 57.72 16.09 104.86C16.09 112.98 17 120.82 18.7 128.26C16.41 137.03 15.25 146.06 15.24 155.13C15.24 202.27 45.76 240.5 83.41 240.5C121.06 240.5 151.58 202.27 151.58 155.13C151.58 147 150.67 139.17 148.98 131.73C151.32 122.97 152.5 113.93 152.49 104.86Z" fill="#FFFFFF" fill-opacity="1.000000" fill-rule="nonzero"/>
				</mask>
				<g mask="url(#mask2_2579)">
					<path id="Vector" d="M85.64 132.41L85.38 132.48L85.11 132.48L84.84 132.41L84.61 132.28L84.51 132.18L84.42 132.09L84.28 131.85L84.21 131.59L84.21 131.33L84.28 131.07L84.42 130.83L84.51 130.74C84.42 130.83 84.34 130.94 84.29 131.07C84.24 131.19 84.21 131.33 84.21 131.46C84.21 131.74 84.33 132 84.51 132.18C84.66 132.33 84.84 132.42 85.04 132.46C85.24 132.5 85.44 132.48 85.63 132.4C85.82 132.33 85.98 132.2 86.09 132.03C86.21 131.86 86.27 131.66 86.27 131.46C86.27 131.25 86.21 131.06 86.1 130.89C85.98 130.72 85.82 130.59 85.63 130.51C85.44 130.43 85.24 130.41 85.04 130.45C84.84 130.49 84.66 130.59 84.51 130.74L84.61 130.64L84.84 130.5L85.11 130.44L85.38 130.44L85.64 130.5L85.87 130.64L85.97 130.74L86.06 130.83L86.2 131.07L86.27 131.33L86.27 131.59L86.2 131.85L86.06 132.09L85.87 132.28L85.64 132.41ZM118.62 134.89L208.32 130.38L118.62 125.87L204.09 98.41L116.27 117.15L191.69 68.63L111.73 109.33L171.95 43.05L105.31 102.95L146.24 23.42L97.45 98.44L116.29 11.09L88.69 96.1L84.15 6.87L79.61 96.1L52.01 11.09L70.85 98.44L22.06 23.42L62.99 102.95L-3.65 43.05L56.57 109.33L-23.39 68.63L52.04 117.15L-35.79 98.41L49.69 125.87L-40.02 130.38L49.69 134.89L-35.79 162.34L52.04 143.6L-23.39 192.13L56.57 151.42L-3.65 217.7L62.99 157.81L22.06 237.33L70.85 162.32L52.01 249.67L79.61 164.65L84.15 253.88L88.69 164.65L116.29 249.67L97.45 162.32L146.24 237.33L105.31 157.81L171.95 217.7L111.73 151.42L191.69 192.13L116.27 143.6L204.09 162.34L118.62 134.89Z" fill="#FFFFFF" fill-opacity="1.000000" fill-rule="evenodd"/>
				</g>
				<path id="Vector" d="M26.17 225.96C16.96 214.57 10.54 200.64 7.3 185.52L7.18 185.41L7.18 243.44C7.18 248.63 11.39 252.81 16.62 252.81L75.13 252.81L75.02 252.69C56.48 251.57 39.25 242.15 26.17 225.96Z" fill="#82298C" fill-opacity="1.000000" fill-rule="evenodd"/>
				<path id="Vector" d="M141.56 225.96C150.77 214.57 157.19 200.64 160.43 185.52L160.55 185.41L160.55 243.44C160.55 248.63 156.34 252.81 151.11 252.81L92.54 252.81L92.65 252.69C111.25 251.57 128.48 242.15 141.56 225.96Z" fill="#82298C" fill-opacity="1.000000" fill-rule="evenodd"/>
				<path id="Vector" d="M26.17 33.97C16.97 45.37 10.54 59.3 7.3 74.41L7.18 74.52L7.18 16.54C7.18 11.36 11.39 7.18 16.62 7.18L75.13 7.18L75.02 7.3C56.54 8.37 39.31 17.79 26.17 33.97Z" fill="#82298C" fill-opacity="1.000000" fill-rule="evenodd"/>
				<path id="Vector" d="M141.56 33.97C150.77 45.37 157.19 59.3 160.43 74.41L160.55 74.52L160.55 16.54C160.55 11.36 156.34 7.18 151.11 7.18L92.6 7.18L92.71 7.3C111.25 8.37 128.48 17.79 141.56 33.97Z" fill="#82298C" fill-opacity="1.000000" fill-rule="evenodd"/>
				<path id="Vector" d="M17.09 235.42L18.06 239.48L22.27 239.09L18.63 241.23L20.28 245.12L17.09 242.36L13.91 245.12L15.62 241.23L11.98 239.09L16.18 239.48L17.1 235.42L17.09 235.42Z" fill="#E1C6FF" fill-opacity="1.000000" fill-rule="nonzero"/>
				<path id="Vector" d="M22.04 231.81C20.96 231.81 19.88 232.04 18.91 232.37C22.55 233.61 24.88 235.76 25.11 240.5C25.11 244.22 22.55 247.38 18.91 248.62C19.88 248.96 20.96 249.18 22.04 249.18C26.87 249.18 30.8 245.29 30.8 240.5C30.85 235.7 26.93 231.81 22.04 231.81Z" fill="#E1C6FF" fill-opacity="1.000000" fill-rule="evenodd"/>
				<path id="Vector" d="M150.64 235.36L149.67 239.48L145.46 239.09L149.1 241.23L147.45 245.12L150.64 242.36L153.82 245.12L152.12 241.23L155.75 239.09L151.55 239.48L150.64 235.36Z" fill="#E1C6FF" fill-opacity="1.000000" fill-rule="nonzero"/>
				<path id="Vector" d="M145.69 231.81C146.77 231.81 147.85 232.04 148.82 232.37C145.18 233.61 142.85 235.76 142.62 240.5C142.62 244.22 145.18 247.38 148.82 248.62C147.85 248.96 146.77 249.18 145.69 249.18C140.86 249.18 136.93 245.29 136.93 240.5C136.88 235.7 140.8 231.81 145.69 231.81Z" fill="#E1C6FF" fill-opacity="1.000000" fill-rule="evenodd"/>
				<path id="Vector" d="M150.64 14.42L149.67 18.48L145.46 18.08L149.1 20.23L147.45 24.12L150.64 21.36L153.82 24.12L152.12 20.23L155.75 18.08L151.55 18.48L150.64 14.42Z" fill="#E1C6FF" fill-opacity="1.000000" fill-rule="nonzero"/>
				<path id="Vector" d="M145.69 10.81C146.77 10.81 147.85 11.04 148.82 11.37C145.18 12.61 142.85 14.76 142.62 19.5C142.62 23.22 145.18 26.38 148.82 27.62C147.85 27.96 146.77 28.18 145.69 28.18C140.86 28.18 136.93 24.29 136.93 19.5C136.88 14.7 140.8 10.81 145.69 10.81L145.69 10.81Z" fill="#E1C6FF" fill-opacity="1.000000" fill-rule="evenodd"/>
				<path id="Vector" d="M17.15 14.39L18.06 18.45L22.27 18.11L18.63 20.25L20.33 24.09L17.15 21.32L13.97 24.09L15.62 20.25L11.98 18.11L16.18 18.45L17.15 14.39L17.15 14.39Z" fill="#E1C6FF" fill-opacity="1.000000" fill-rule="nonzero"/>
				<path id="Vector" d="M22.1 10.78C21.02 10.78 19.94 11 18.97 11.34C22.61 12.58 24.94 14.73 25.17 19.46C25.17 23.19 22.61 26.34 18.97 27.59C19.94 27.92 21.02 28.15 22.1 28.15C26.93 28.15 30.85 24.26 30.85 19.46C30.85 14.67 26.93 10.78 22.1 10.78Z" fill="#E1C6FF" fill-opacity="1.000000" fill-rule="evenodd"/>
				<path id="Vector" d="M110.54 130.31C110.54 144.94 98.58 156.8 83.84 156.8C69.09 156.8 57.13 144.94 57.13 130.31C57.13 115.68 69.09 103.82 83.84 103.82C98.58 103.82 110.54 115.68 110.54 130.31Z" fill="#E1C6FF" fill-opacity="1.000000" fill-rule="evenodd"/>
				<path id="Vector" d="M90.21 104.52C90.21 104.52 90.02 99.97 92.44 98.45C94.86 96.87 97.35 95.29 97.79 92.63C98.24 90.04 98.49 81.26 103.21 79.23C104.8 78.6 106.78 78.03 106.78 78.03C106.78 78.03 103.78 79.99 103.4 83.22C102.96 86.95 105.95 92.76 103.72 98.07C102.57 100.85 101.68 102.18 100.53 104.33C99.45 106.54 99.7 108.94 99.7 108.94L94.92 106.29L90.21 104.52Z" fill="#C973D3" fill-opacity="1.000000" fill-rule="nonzero"/>
				<path id="Vector" d="M70.2 107.49C70.2 107.49 66.76 103.76 67.58 100.6C68.35 97.82 69.3 95.04 67.9 92.76C66.56 90.48 61.08 83.6 63.38 79.04C64.14 77.53 65.35 75.88 65.35 75.88C65.35 75.88 64.33 79.3 66.18 82.01C68.28 85.18 74.34 87.7 76.06 93.2C76.95 96.05 77.14 97.63 77.72 100.03C78.29 102.43 80.08 104.14 80.08 104.14L74.72 105.15L70.2 107.49Z" fill="#C973D3" fill-opacity="1.000000" fill-rule="nonzero"/>
				<path id="Vector" d="M57.85 123.62C57.85 123.62 52.73 123.23 51.14 120.32C49.74 117.8 48.53 115.08 45.98 114.38C43.43 113.62 34.7 112.3 33.23 107.43C32.79 105.78 32.47 103.76 32.47 103.76C32.47 103.76 34.12 106.92 37.25 107.68C40.94 108.57 47.12 106.29 52.16 109.13C54.77 110.59 55.98 111.66 58.09 112.99C60.19 114.32 62.61 114.38 62.61 114.38L59.84 118.93L57.85 123.62Z" fill="#C973D3" fill-opacity="1.000000" fill-rule="nonzero"/>
				<path id="Vector" d="M106.84 116.47C106.84 116.47 110.28 113.18 113.09 113.88C115.89 114.57 118.76 115.33 120.99 113.88C123.22 112.42 129.92 106.67 134.57 108.76C136.1 109.45 137.88 110.53 137.88 110.53C137.88 110.53 134.38 109.7 131.76 111.6C128.7 113.81 126.41 119.94 120.99 121.97C118.19 122.98 116.6 123.23 114.17 123.93C111.75 124.62 110.16 126.46 110.16 126.46L108.88 121.21L106.84 116.47Z" fill="#C973D3" fill-opacity="1.000000" fill-rule="nonzero"/>
				<path id="Vector" d="M109.78 136.63C109.78 136.63 114.49 136.44 116.15 138.78C117.81 141.12 119.53 143.02 122.2 143.33C124.88 143.65 133.67 143.65 135.91 148.27C136.61 149.78 137.24 151.74 137.24 151.74C137.24 151.74 135.14 148.83 131.89 148.58C128.07 148.27 122.33 151.42 116.91 149.4C114.11 148.39 112.71 147.51 110.48 146.49C108.18 145.48 105.76 145.8 105.76 145.8L108.31 141.37L109.78 136.63Z" fill="#C973D3" fill-opacity="1.000000" fill-rule="nonzero"/>
				<path id="Vector" d="M60.75 143.98C60.75 143.98 57.39 147.19 54.65 146.43C51.84 145.67 48.97 144.85 46.74 146.3C44.45 147.7 37.69 153.26 33.04 151.11C31.51 150.35 29.79 149.21 29.79 149.21C29.79 149.21 33.23 150.1 35.97 148.26C39.09 146.12 41.52 140.05 47 138.15C49.86 137.2 51.46 137.01 53.82 136.38C56.24 135.75 57.58 134.23 57.58 134.23L58.98 139.22L60.75 143.98Z" fill="#C973D3" fill-opacity="1.000000" fill-rule="nonzero"/>
				<path id="Vector" d="M98.17 152.88C98.17 152.88 101.55 155.91 100.98 158.69C100.41 161.48 99.83 164.38 101.36 166.53C102.89 168.68 109.01 175 107.16 179.75C106.52 181.33 105.5 183.1 105.5 183.1C105.5 183.1 106.14 179.62 104.1 177.09C101.74 174.12 95.43 172.22 93.2 166.91C92.06 164.19 91.74 162.61 90.91 160.28C90.08 157.94 88.17 156.42 88.17 156.42L93.39 154.9L98.17 152.88Z" fill="#C973D3" fill-opacity="1.000000" fill-rule="nonzero"/>
				<path id="Vector" d="M77.91 155.91C77.91 155.91 78.03 160.15 75.49 161.67C72.94 163.18 70.32 164.7 69.88 167.29C69.43 169.88 68.92 178.54 64.01 180.44C62.42 181.07 60.32 181.58 60.32 181.58C60.32 181.58 63.44 179.68 63.89 176.52C64.4 172.79 61.4 167.04 63.82 161.79C65.03 159.07 66.05 157.81 67.2 155.66C68.41 153.51 68.16 151.8 68.16 151.8L72.74 154.27L77.91 155.91Z" fill="#C973D3" fill-opacity="1.000000" fill-rule="nonzero"/>
				<path id="Vector" d="M99.67 108.56L123.54 93.65L106.84 116.59L103.72 112.55L99.83 109.01L99.67 108.56Z" fill="#C973D3" fill-opacity="1.000000" fill-rule="nonzero"/>
				<path id="Vector" d="M68.09 151.93L44.7 167.23L60.96 144.03L64.21 148.01L68.09 151.42L68.09 151.93Z" fill="#C973D3" fill-opacity="1.000000" fill-rule="nonzero"/>
				<path id="Vector" d="M110.6 125.95L138.07 131.64L109.97 136.57L110.54 131.51L110.6 125.95Z" fill="#C973D3" fill-opacity="1.000000" fill-rule="nonzero"/>
				<path id="Vector" d="M79.44 103.95L84.22 76.52L90.23 104.25L85.05 103.82L79.82 104.27L79.44 103.95Z" fill="#C973D3" fill-opacity="1.000000" fill-rule="nonzero"/>
				<path id="Vector" d="M62.02 114.37L47.51 90.42L70.26 107.49L66.12 110.52L62.53 114.37L62.02 114.37L62.02 114.37Z" fill="#C973D3" fill-opacity="1.000000" fill-rule="nonzero"/>
				<path id="Vector" d="M57.32 134.67L29.66 129.81L57.74 124.02L57.19 129.11L57.64 134.29L57.32 134.67Z" fill="#C973D3" fill-opacity="1.000000" fill-rule="nonzero"/>
				<path id="Vector" d="M106 145.72L120.87 169.44L97.86 152.69L102 149.65L105.57 145.86L106 145.72Z" fill="#C973D3" fill-opacity="1.000000" fill-rule="nonzero"/>
				<path id="Vector" d="M88.61 156.55L82.94 184.11L77.84 156.23L82.94 156.8L88.17 156.48L88.61 156.55Z" fill="#C973D3" fill-opacity="1.000000" fill-rule="nonzero"/>
				<path id="Vector" d="M64.46 119.75C64.46 119.75 77.84 120.45 80.14 122.35C82.5 124.18 80.27 136.19 80.39 136.95C80.52 137.71 83.2 138.66 83.45 138.66C83.52 138.66 83.52 139.86 83.45 142.13C82.3 141.56 78.23 142.95 78.16 143.33C78.16 143.84 81.09 144.53 83.32 144.85C83.2 148.07 82.56 152.44 82.18 152.69C81.35 153.13 68.92 148.64 66.05 142.95C60 130.88 64.46 119.75 64.46 119.75Z" fill="url(#paint_linear_2_2612_0)" fill-opacity="1.000000" fill-rule="evenodd"/>
				<path id="Vector" d="M89.06 126.46C89.06 126.46 89.25 123.86 90.97 122.85C93.46 121.27 102.64 119.75 103.08 120.39C104.04 121.78 105.31 127.91 103.66 129.3C102 130.75 89.95 132.78 89.44 131.26C88.93 129.74 89.06 126.46 89.06 126.46Z" fill="url(#paint_linear_2_2613_0)" fill-opacity="1.000000" fill-rule="evenodd"/>
				<path id="Vector" d="M56.94 130.31C56.94 145.1 69.05 157.11 83.96 157.11C98.88 157.11 110.99 145.1 110.99 130.31C110.99 115.52 98.88 103.51 83.96 103.51C69.05 103.51 56.94 115.52 56.94 130.31ZM57.58 130.25C57.58 115.83 69.43 104.08 83.96 104.08C98.56 104.08 110.35 115.83 110.35 130.25C110.35 144.66 98.49 156.42 83.96 156.42C69.43 156.42 57.58 144.66 57.58 130.25Z" fill="#E1C6FF" fill-opacity="1.000000" fill-rule="evenodd"/>
			</g>
		</g>
	</g>
</svg>
