<svg width="175.741699" height="268.000000" viewBox="0 0 175.742 268" fill="none" xmlns="http://www.w3.org/2000/svg" xmlns:xlink="http://www.w3.org/1999/xlink">
	<desc>
			Created with Pixso.
	</desc>
	<defs>
		<filter id="filter_2_2615_dd" x="0.000000" y="0.000000" width="175.741699" height="268.000000" filterUnits="userSpaceOnUse" color-interpolation-filters="sRGB">
			<feFlood flood-opacity="0" result="BackgroundImageFix"/>
			<feColorMatrix in="SourceAlpha" type="matrix" values="0 0 0 0 0 0 0 0 0 0 0 0 0 0 0 0 0 0 127 0" result="hardAlpha"/>
			<feOffset dx="4" dy="4"/>
			<feGaussianBlur stdDeviation="1.33333"/>
			<feComposite in2="hardAlpha" operator="out" k2="-1" k3="1"/>
			<feColorMatrix type="matrix" values="0 0 0 0 0 0 0 0 0 0 0 0 0 0 0 0 0 0 0.1 0"/>
			<feBlend mode="normal" in2="BackgroundImageFix" result="effect_dropShadow_1"/>
			<feBlend mode="normal" in="SourceGraphic" in2="effect_dropShadow_1" result="shape"/>
		</filter>
		<clipPath id="clip2_2637">
			<rect id="svgexport-4 3" rx="0.000000" width="149.000000" height="143.000000" transform="translate(9.500000 58.500000)" fill="white" fill-opacity="0"/>
		</clipPath>
		<clipPath id="clip2_2615">
			<rect id="card_matrix" rx="10.000000" width="159.741928" height="252.000000" transform="translate(4.000000 4.000000)" fill="white" fill-opacity="0"/>
		</clipPath>
		<linearGradient x1="83.871002" y1="0.000000" x2="83.871002" y2="260.000000" id="paint_linear_2_2620_0" gradientUnits="userSpaceOnUse">
			<stop stop-color="#2E1848"/>
			<stop offset="1.000000" stop-color="#4C1651"/>
		</linearGradient>
		<linearGradient x1="83.870483" y1="19.500000" x2="83.870483" y2="240.500015" id="paint_linear_2_2621_0" gradientUnits="userSpaceOnUse">
			<stop stop-color="#2E1848"/>
			<stop offset="1.000000" stop-color="#4C1651"/>
		</linearGradient>
		<linearGradient x1="84.139023" y1="127.018066" x2="84.139023" y2="133.266556" id="paint_linear_2_2644_0" gradientUnits="userSpaceOnUse">
			<stop stop-color="#2E1848"/>
			<stop offset="1.000000" stop-color="#4C1651"/>
		</linearGradient>
	</defs>
	<g filter="url(#filter_2_2615_dd)">
		<rect id="card_matrix" rx="10.000000" width="159.741928" height="252.000000" transform="translate(4.000000 4.000000)" fill="#FFFFFF" fill-opacity="0"/>
		<g clip-path="url(#clip2_2615)">
			<mask id="mask2_2617" mask-type="alpha" maskUnits="userSpaceOnUse" x="0.000000" y="0.000000" width="167.741699" height="260.000000">
				<path id="Vector" d="M0 0L167.74 0L167.74 260L0 260L0 0Z" fill="#000000" fill-opacity="1.000000" fill-rule="nonzero"/>
			</mask>
			<g mask="url(#mask2_2617)">
				<path id="Vector" d="M10.78 0L156.95 0C162.91 0 167.74 4.82 167.74 10.78L167.74 249.21C167.74 255.17 162.91 260 156.95 260L10.78 260C4.82 260 0 255.17 0 249.21L0 10.78C0 4.82 4.82 0 10.78 0Z" fill="url(#paint_linear_2_2620_0)" fill-opacity="1.000000" fill-rule="evenodd"/>
				<path id="Vector" d="M152.49 104.86C152.49 57.72 121.97 19.5 84.32 19.5C46.67 19.5 16.09 57.72 16.09 104.86C16.09 112.98 17 120.82 18.7 128.26C16.41 137.03 15.25 146.06 15.24 155.13C15.24 202.27 45.76 240.5 83.41 240.5C121.06 240.5 151.58 202.27 151.58 155.13C151.58 147 150.67 139.17 148.98 131.73C151.32 122.97 152.5 113.93 152.49 104.86Z" fill="url(#paint_linear_2_2621_0)" fill-opacity="1.000000" fill-rule="nonzero"/>
				<mask id="mask2_2623" mask-type="alpha" maskUnits="userSpaceOnUse" x="15.249023" y="19.500000" width="137.243164" height="221.000000">
					<path id="Vector" d="M152.49 104.86C152.49 57.72 121.97 19.5 84.32 19.5C46.67 19.5 16.09 57.72 16.09 104.86C16.09 112.98 17 120.82 18.7 128.26C16.41 137.03 15.25 146.06 15.24 155.13C15.24 202.27 45.76 240.5 83.41 240.5C121.06 240.5 151.58 202.27 151.58 155.13C151.58 147 150.67 139.17 148.98 131.73C151.32 122.97 152.5 113.93 152.49 104.86Z" fill="#FFFFFF" fill-opacity="1.000000" fill-rule="nonzero"/>
				</mask>
				<path id="Vector" d="M21.11 230.42L22.08 234.48L26.29 234.08L22.65 236.22L24.3 240.12L21.11 237.35L17.93 240.12L19.63 236.22L16 234.08L20.2 234.48L21.11 230.42L21.11 230.42Z" fill="#D6BEFF" fill-opacity="0.400000" fill-rule="nonzero"/>
				<path id="Vector" d="M26.06 226.81C24.98 226.81 23.9 227.03 22.93 227.37C26.57 228.61 28.9 230.75 29.13 235.49C29.13 239.21 26.57 242.37 22.93 243.61C23.9 243.95 24.98 244.18 26.06 244.18C30.89 244.18 34.82 240.28 34.82 235.49C34.87 230.7 30.95 226.81 26.06 226.81Z" fill="#D6BEFF" fill-opacity="0.400000" fill-rule="evenodd"/>
				<path id="Vector" d="M145.7 230.36L144.73 234.48L140.53 234.09L144.17 236.23L142.52 240.12L145.7 237.36L148.89 240.12L147.18 236.23L150.82 234.09L146.61 234.48L145.7 230.36Z" fill="#D6BEFF" fill-opacity="0.400000" fill-rule="nonzero"/>
				<path id="Vector" d="M140.75 226.81C141.83 226.81 142.91 227.04 143.88 227.37C140.24 228.61 137.91 230.76 137.68 235.5C137.68 239.22 140.24 242.38 143.88 243.62C142.91 243.96 141.83 244.18 140.75 244.18C135.92 244.18 132 240.29 132 235.5C131.94 230.7 135.86 226.81 140.75 226.81Z" fill="#D6BEFF" fill-opacity="0.400000" fill-rule="evenodd"/>
				<path id="Vector" d="M145.7 19.61L144.73 23.67L140.53 23.27L144.17 25.41L142.52 29.31L145.7 26.54L148.89 29.31L147.18 25.41L150.82 23.27L146.61 23.67L145.7 19.61Z" fill="#D6BEFF" fill-opacity="0.400000" fill-rule="nonzero"/>
				<path id="Vector" d="M140.75 16C141.83 16 142.91 16.22 143.88 16.56C140.24 17.8 137.91 19.94 137.68 24.68C137.68 28.4 140.24 31.56 143.88 32.8C142.91 33.14 141.83 33.37 140.75 33.37C135.92 33.37 132 29.48 132 24.68C131.94 19.89 135.86 16 140.75 16L140.75 16Z" fill="#D6BEFF" fill-opacity="0.400000" fill-rule="evenodd"/>
				<path id="Vector" d="M21.17 19.61L22.08 23.67L26.29 23.33L22.65 25.47L24.35 29.31L21.17 26.54L17.99 29.31L19.63 25.47L16 23.33L20.2 23.66L21.17 19.6L21.17 19.61Z" fill="#D6BEFF" fill-opacity="0.400000" fill-rule="nonzero"/>
				<path id="Vector" d="M26.12 16C25.04 16 23.96 16.22 22.99 16.56C26.63 17.8 28.96 19.94 29.19 24.68C29.19 28.4 26.63 31.56 22.99 32.8C23.96 33.14 25.04 33.37 26.12 33.37C30.95 33.37 34.87 29.47 34.87 24.68C34.87 19.89 30.95 16 26.12 16Z" fill="#D6BEFF" fill-opacity="0.400000" fill-rule="evenodd"/>
			</g>
			<rect id="svgexport-4 3" rx="0.000000" width="149.000000" height="143.000000" transform="translate(9.500000 58.500000)" fill="#FFFFFF" fill-opacity="0"/>
			<g clip-path="url(#clip2_2637)">
				<path id="Vector" d="M143.01 130.13L84.33 190.02L25.45 129.93L84.13 70.04L143.01 130.13Z" stroke="#FFFFFF" stroke-opacity="1.000000" stroke-width="1.000000"/>
				<path id="Vector" d="M29.52 130.14L138.75 130.14" stroke="#FFFFFF" stroke-opacity="1.000000" stroke-width="1.000000"/>
				<path id="Vector" d="M83.86 74.47L83.86 185.81" stroke="#FFFFFF" stroke-opacity="1.000000" stroke-width="1.000000"/>
				<path id="Vector" d="M41.42 87.9L124.9 172.32" stroke="#9BD1FF" stroke-opacity="1.000000" stroke-width="1.000000"/>
				<path id="Vector" d="M125.18 87.9L41.7 172.32" stroke="#FF72BA" stroke-opacity="1.000000" stroke-width="1.000000"/>
				<path id="Vector" d="M89.43 130.14C89.43 133.12 87.06 135.53 84.13 135.53C81.21 135.53 78.84 133.12 78.84 130.14C78.84 127.16 81.21 124.74 84.13 124.74C87.06 124.74 89.43 127.16 89.43 130.14Z" fill="#D6BEFF" fill-opacity="1.000000" fill-rule="evenodd"/>
				<path id="Vector" d="M87.2 130.14C87.2 131.86 85.83 133.26 84.13 133.26C82.44 133.26 81.07 131.86 81.07 130.14C81.07 128.41 82.44 127.01 84.13 127.01C85.83 127.01 87.2 128.41 87.2 130.14Z" fill="url(#paint_linear_2_2644_0)" fill-opacity="1.000000" fill-rule="evenodd"/>
				<path id="Vector" d="M124.82 88.1L124.82 172.74L41.5 172.74L41.5 88.1L124.82 88.1Z" stroke="#FFFFFF" stroke-opacity="1.000000" stroke-width="1.000000"/>
				<path id="Vector" d="M83.98 65.38L84.01 65.38C86.39 65.38 88.31 67.35 88.31 69.77C88.31 72.19 86.39 74.16 84.01 74.16L83.98 74.16C81.6 74.16 79.68 72.19 79.68 69.77C79.68 67.35 81.6 65.38 83.98 65.38Z" fill="#FFFFFF" fill-opacity="1.000000" fill-rule="evenodd"/>
				<path id="Vector" d="M84.01 65.38C86.39 65.38 88.31 67.35 88.31 69.77C88.31 72.19 86.39 74.16 84.01 74.16L83.98 74.16C81.6 74.16 79.68 72.19 79.68 69.77C79.68 67.35 81.6 65.38 83.98 65.38L84.01 65.38Z" stroke="#FFFFFF" stroke-opacity="1.000000" stroke-width="1.860010"/>
				<path id="Vector" d="M82.67 71.29C82.67 71.29 82.67 70.36 82.67 68.5C82.67 68.5 82.54 68.5 82.26 68.5C82.26 68.5 82.26 68.31 82.26 67.93C82.26 67.93 82.6 67.93 83.27 67.93C83.27 67.93 83.27 69.05 83.27 71.29C83.27 71.29 83.07 71.29 82.67 71.29ZM85.18 71.29C85.18 71.29 85.18 70.36 85.18 68.5C85.18 68.5 85.04 68.5 84.76 68.5C84.76 68.5 84.76 68.31 84.76 67.93C84.76 67.93 85.1 67.93 85.77 67.93C85.77 67.93 85.77 69.05 85.77 71.29C85.77 71.29 85.57 71.29 85.18 71.29Z" fill="#000000" fill-opacity="1.000000" fill-rule="nonzero"/>
				<path id="Vector" d="M143.21 125.59L143.49 125.59C145.8 125.59 147.67 127.5 147.67 129.85L147.67 129.85C147.67 132.21 145.8 134.11 143.49 134.11L143.21 134.11C140.9 134.11 139.03 132.21 139.03 129.85L139.03 129.85C139.03 127.5 140.9 125.59 143.21 125.59Z" fill="#FFFFFF" fill-opacity="1.000000" fill-rule="evenodd"/>
				<path id="Vector" d="M143.49 125.59C145.8 125.59 147.67 127.5 147.67 129.85L147.67 129.85C147.67 132.21 145.8 134.11 143.49 134.11L143.21 134.11C140.9 134.11 139.03 132.21 139.03 129.85L139.03 129.85C139.03 127.5 140.9 125.59 143.21 125.59L143.49 125.59Z" stroke="#FFFFFF" stroke-opacity="1.000000" stroke-width="1.860010"/>
				<path id="Vector" d="M142.73 129.66C142.62 129.55 142.55 129.45 142.51 129.36C142.47 129.27 142.45 129.16 142.45 129.04C142.45 128.78 142.54 128.56 142.72 128.38C142.89 128.2 143.11 128.11 143.36 128.11C143.62 128.11 143.84 128.2 144.01 128.37C144.18 128.55 144.26 128.76 144.26 129.03C144.26 129.3 144.17 129.51 143.99 129.66C144.06 129.71 144.11 129.75 144.15 129.77C144.18 129.8 144.22 129.83 144.25 129.87C144.38 130.03 144.45 130.23 144.45 130.48C144.45 130.8 144.35 131.07 144.14 131.28C143.93 131.49 143.67 131.6 143.36 131.6C143.04 131.6 142.78 131.49 142.57 131.28C142.36 131.06 142.25 130.8 142.25 130.49C142.25 130.25 142.31 130.06 142.44 129.9C142.47 129.85 142.51 129.81 142.55 129.78C142.59 129.75 142.65 129.71 142.73 129.66ZM143.36 128.67C143.26 128.67 143.18 128.7 143.12 128.78C143.05 128.85 143.02 128.93 143.02 129.04C143.02 129.14 143.05 129.22 143.12 129.29C143.19 129.36 143.27 129.4 143.36 129.4C143.46 129.4 143.54 129.36 143.6 129.29C143.66 129.22 143.7 129.13 143.7 129.03C143.7 128.92 143.66 128.84 143.6 128.77C143.53 128.7 143.45 128.67 143.36 128.67ZM143.35 129.98C143.21 129.98 143.09 130.04 142.99 130.14C142.89 130.24 142.85 130.37 142.85 130.51C142.85 130.66 142.89 130.79 143 130.89C143.09 130.99 143.22 131.04 143.36 131.04C143.5 131.04 143.62 130.99 143.72 130.89C143.81 130.79 143.86 130.66 143.86 130.51C143.86 130.36 143.81 130.24 143.71 130.14C143.61 130.03 143.49 129.98 143.35 129.98Z" fill="#000000" fill-opacity="1.000000" fill-rule="nonzero"/>
				<path id="Vector" d="M83.98 186.09L84.01 186.09C86.39 186.09 88.31 188.06 88.31 190.48C88.31 192.9 86.39 194.87 84.01 194.87L83.98 194.87C81.6 194.87 79.68 192.9 79.68 190.48C79.68 188.06 81.6 186.09 83.98 186.09Z" fill="#FFFFFF" fill-opacity="1.000000" fill-rule="evenodd"/>
				<path id="Vector" d="M84.01 186.09C86.39 186.09 88.31 188.06 88.31 190.48C88.31 192.9 86.39 194.87 84.01 194.87L83.98 194.87C81.6 194.87 79.68 192.9 79.68 190.48C79.68 188.06 81.6 186.09 83.98 186.09L84.01 186.09Z" stroke="#FFFFFF" stroke-opacity="1.000000" stroke-width="1.860010"/>
				<path id="Vector" d="M82.56 192.16C82.56 192.16 82.56 191.23 82.56 189.37C82.56 189.37 82.42 189.37 82.14 189.37C82.14 189.37 82.14 189.18 82.14 188.8C82.14 188.8 82.48 188.8 83.15 188.8C83.15 188.8 83.15 189.92 83.15 192.16C83.15 192.16 82.95 192.16 82.56 192.16ZM84.04 191.16C84.04 191.16 84.55 190.38 85.56 188.8C85.56 188.8 85.73 188.8 86.06 188.8C86.06 188.8 86.06 189.57 86.06 191.12C86.06 191.12 86.18 191.12 86.41 191.12C86.41 191.12 86.41 191.3 86.41 191.66C86.41 191.66 86.29 191.66 86.06 191.66C86.06 191.66 86.06 191.83 86.06 192.16C86.06 192.16 85.86 192.16 85.47 192.16C85.47 192.16 85.47 192 85.47 191.66C85.47 191.66 84.99 191.66 84.04 191.66C84.04 191.66 84.04 191.49 84.04 191.16ZM85.47 191.12C85.47 191.12 85.47 190.68 85.47 189.82C85.47 189.82 85.19 190.25 84.64 191.12C84.64 191.12 84.92 191.12 85.47 191.12Z" fill="#000000" fill-opacity="1.000000" fill-rule="nonzero"/>
				<path id="Vector" d="M24.91 125.88L24.93 125.88C27.31 125.88 29.24 127.84 29.24 130.27C29.24 132.69 27.31 134.65 24.93 134.65L24.91 134.65C22.53 134.65 20.6 132.69 20.6 130.27C20.6 127.84 22.53 125.88 24.91 125.88Z" fill="#FFFFFF" fill-opacity="1.000000" fill-rule="evenodd"/>
				<path id="Vector" d="M24.93 125.88C27.31 125.88 29.24 127.84 29.24 130.27C29.24 132.69 27.31 134.65 24.93 134.65L24.91 134.65C22.53 134.65 20.6 132.69 20.6 130.27C20.6 127.84 22.53 125.88 24.91 125.88L24.93 125.88Z" stroke="#FFFFFF" stroke-opacity="1.000000" stroke-width="1.860010"/>
				<path id="Vector" d="M24.67 130.33C24.67 130.33 24.67 130.13 24.67 129.75C24.82 129.74 24.92 129.72 25 129.69C25.12 129.64 25.18 129.54 25.18 129.4C25.18 129.3 25.16 129.23 25.1 129.17C25.05 129.11 24.98 129.08 24.89 129.08C24.81 129.08 24.75 129.1 24.7 129.15C24.66 129.2 24.63 129.28 24.61 129.38L24.01 129.38C24.02 129.24 24.05 129.13 24.08 129.04C24.11 128.96 24.16 128.87 24.24 128.8C24.41 128.61 24.63 128.52 24.89 128.52C25.14 128.52 25.35 128.61 25.52 128.78C25.69 128.95 25.78 129.17 25.78 129.43C25.78 129.56 25.76 129.67 25.71 129.77C25.67 129.86 25.6 129.94 25.5 130.01C25.84 130.17 26.01 130.46 26.01 130.88C26.01 131.21 25.91 131.48 25.7 131.69C25.49 131.9 25.23 132.01 24.91 132.01C24.59 132.01 24.32 131.91 24.11 131.71C23.9 131.51 23.78 131.25 23.77 130.93L24.36 130.93C24.38 131.09 24.44 131.22 24.54 131.31C24.64 131.41 24.76 131.45 24.9 131.45C25.05 131.45 25.17 131.4 25.27 131.3C25.37 131.19 25.42 131.06 25.42 130.89C25.42 130.72 25.36 130.58 25.24 130.48C25.13 130.38 24.97 130.33 24.77 130.33L24.67 130.33Z" fill="#000000" fill-opacity="1.000000" fill-rule="nonzero"/>
				<path id="Vector" d="M93.56 117.21C93.56 117.21 93.49 117.28 93.35 117.41C93.35 117.41 93.03 117.09 92.39 116.43C92.39 116.43 92.45 117.02 92.58 118.2C92.58 118.2 92.5 118.29 92.33 118.46C92.33 118.46 92.26 117.83 92.12 116.57C92.12 116.57 91.51 116.51 90.28 116.38C90.28 116.38 90.37 116.29 90.54 116.12C90.54 116.12 91.11 116.18 92.26 116.3C92.26 116.3 91.95 115.98 91.31 115.33C91.31 115.33 91.38 115.26 91.52 115.12C91.52 115.12 91.83 115.45 92.47 116.09C92.47 116.09 92.41 115.51 92.29 114.33C92.29 114.33 92.37 114.25 92.54 114.07C92.54 114.07 92.61 114.7 92.73 115.95C92.73 115.95 93.35 116.02 94.59 116.16C94.59 116.16 94.5 116.24 94.33 116.42C94.33 116.42 93.75 116.35 92.59 116.22C92.59 116.22 92.91 116.55 93.56 117.21ZM95.5 113.83C95.5 113.83 95.04 114.29 94.13 115.22C94.29 115.37 94.47 115.43 94.69 115.42C94.91 115.41 95.1 115.33 95.25 115.17C95.37 115.05 95.44 114.91 95.48 114.75C95.51 114.58 95.5 114.43 95.44 114.28L95.65 114.06C95.75 114.28 95.79 114.51 95.75 114.75C95.71 114.99 95.61 115.19 95.45 115.36C95.34 115.47 95.21 115.55 95.07 115.61C94.93 115.67 94.79 115.7 94.65 115.7C94.51 115.7 94.36 115.67 94.22 115.61C94.08 115.55 93.96 115.47 93.85 115.36C93.7 115.21 93.61 115.04 93.55 114.85C93.5 114.65 93.5 114.46 93.55 114.27C93.6 114.07 93.7 113.9 93.85 113.76C93.99 113.6 94.17 113.5 94.37 113.45C94.57 113.4 94.76 113.4 94.96 113.46C95.05 113.49 95.14 113.54 95.23 113.59C95.31 113.65 95.4 113.72 95.5 113.83ZM93.95 115.03L95.11 113.85C94.92 113.73 94.73 113.68 94.54 113.7C94.35 113.71 94.18 113.8 94.03 113.95C93.89 114.09 93.81 114.27 93.8 114.46C93.78 114.66 93.83 114.85 93.95 115.03ZM97.79 112.9C97.79 112.9 97.72 112.97 97.58 113.11C97.58 113.11 97.36 112.88 96.9 112.42C96.9 112.42 96.6 112.72 96 113.34C96 113.34 96.22 113.57 96.67 114.03C96.67 114.03 96.61 114.1 96.47 114.24C96.47 114.24 95.96 113.73 94.96 112.7C94.96 112.7 95.02 112.63 95.16 112.49C95.16 112.49 95.38 112.71 95.81 113.15C95.81 113.15 96.11 112.84 96.72 112.23C96.72 112.23 96.5 112.01 96.07 111.56C96.07 111.56 96.14 111.49 96.27 111.36C96.27 111.36 96.78 111.87 97.79 112.9ZM98.96 110.79C98.96 110.79 99.04 110.71 99.2 110.55C99.24 110.68 99.26 110.79 99.27 110.87C99.28 110.95 99.28 111.04 99.27 111.13C99.24 111.38 99.13 111.61 98.94 111.8C98.78 111.96 98.61 112.06 98.41 112.12C98.22 112.18 98.02 112.18 97.83 112.13C97.63 112.08 97.46 111.98 97.32 111.83C97.17 111.68 97.07 111.51 97.02 111.31C96.98 111.12 96.98 110.92 97.03 110.72C97.09 110.52 97.19 110.35 97.34 110.2C97.51 110.02 97.71 109.91 97.93 109.87C98.15 109.82 98.37 109.84 98.59 109.93L98.36 110.17C98.2 110.13 98.05 110.13 97.9 110.16C97.76 110.2 97.63 110.28 97.52 110.39C97.35 110.56 97.27 110.77 97.27 111.01C97.27 111.24 97.36 111.45 97.53 111.62C97.7 111.79 97.9 111.88 98.13 111.88C98.37 111.88 98.57 111.79 98.74 111.62C98.85 111.51 98.92 111.39 98.95 111.26C98.99 111.13 98.99 110.98 98.96 110.79ZM98.41 109.17C98.41 109.17 98.48 109.1 98.62 108.97C98.62 108.97 98.84 109.19 99.29 109.65C99.29 109.65 99.3 109.19 99.31 108.26C99.31 108.26 99.4 108.17 99.57 107.99C99.57 107.99 99.57 108.5 99.55 109.51C99.55 109.51 100.06 109.52 101.09 109.53C101.09 109.53 101 109.62 100.82 109.81C100.82 109.81 100.35 109.8 99.42 109.78C99.42 109.78 99.66 110.02 100.13 110.51C100.13 110.51 100.06 110.58 99.93 110.72C99.93 110.72 99.42 110.2 98.41 109.17ZM100.89 106.65C100.89 106.65 100.96 106.58 101.1 106.44C101.1 106.44 101.6 106.96 102.61 107.98C102.61 107.98 102.54 108.05 102.41 108.19C102.41 108.19 102 107.78 101.18 106.94C101.18 106.94 101.28 107.67 101.48 109.13C101.48 109.13 101.41 109.2 101.28 109.34C101.28 109.34 100.77 108.83 99.76 107.8C99.76 107.8 99.83 107.73 99.97 107.59C99.97 107.59 100.38 108 101.19 108.83C101.19 108.83 101.09 108.11 100.89 106.65ZM101.14 105.27C101.14 105.27 101.21 105.2 101.34 105.07C101.5 105.22 101.65 105.23 101.79 105.08C101.94 104.93 101.93 104.78 101.78 104.62L101.98 104.42C102.08 104.56 102.12 104.7 102.11 104.83C102.1 104.97 102.03 105.09 101.92 105.21C101.8 105.33 101.68 105.39 101.55 105.41C101.42 105.42 101.28 105.37 101.14 105.27ZM102.57 104.94C102.57 104.94 102.64 104.87 102.78 104.73C102.78 104.73 103.28 105.24 104.29 106.27C104.29 106.27 104.22 106.34 104.09 106.48C104.09 106.48 103.68 106.06 102.86 105.23C102.86 105.23 102.96 105.96 103.16 107.42C103.16 107.42 103.1 107.49 102.96 107.63C102.96 107.63 102.45 107.11 101.45 106.08C101.45 106.08 101.51 106.01 101.65 105.87C101.65 105.87 102.06 106.29 102.87 107.12C102.87 107.12 102.77 106.39 102.57 104.94ZM103.89 103.59C103.89 103.59 103.96 103.52 104.1 103.38C104.1 103.38 104.19 103.47 104.36 103.64C104.33 103.48 104.33 103.32 104.38 103.17C104.44 103.01 104.53 102.87 104.66 102.74C104.81 102.58 104.98 102.48 105.17 102.43C105.36 102.38 105.55 102.38 105.74 102.43C105.93 102.48 106.1 102.58 106.25 102.73C106.4 102.88 106.5 103.06 106.55 103.25C106.6 103.45 106.6 103.64 106.54 103.84C106.49 104.03 106.39 104.21 106.24 104.36C106.11 104.49 105.98 104.58 105.82 104.63C105.67 104.68 105.52 104.69 105.35 104.66L106.14 105.46L105.94 105.67L103.89 103.59ZM104.83 102.94C104.66 103.11 104.58 103.32 104.58 103.55C104.59 103.79 104.67 103.99 104.84 104.17C105.01 104.34 105.21 104.43 105.45 104.43C105.68 104.43 105.88 104.34 106.05 104.17C106.22 103.99 106.3 103.79 106.3 103.56C106.3 103.33 106.22 103.12 106.05 102.95C105.87 102.77 105.66 102.68 105.44 102.68C105.21 102.68 105 102.77 104.83 102.94ZM106.49 100.87C106.64 100.72 106.8 100.62 106.99 100.57C107.18 100.52 107.37 100.52 107.55 100.58C107.74 100.63 107.91 100.74 108.06 100.89C108.29 101.12 108.41 101.39 108.41 101.69C108.41 101.99 108.3 102.25 108.08 102.48C107.93 102.64 107.76 102.74 107.56 102.8C107.37 102.85 107.18 102.86 106.99 102.8C106.8 102.75 106.63 102.65 106.48 102.5C106.25 102.26 106.14 101.99 106.14 101.69C106.14 101.38 106.26 101.11 106.49 100.87ZM106.66 101.08C106.5 101.25 106.41 101.45 106.42 101.68C106.43 101.91 106.52 102.11 106.69 102.29C106.86 102.46 107.06 102.55 107.29 102.55C107.52 102.56 107.72 102.47 107.89 102.29C108.05 102.12 108.13 101.93 108.13 101.71C108.12 101.48 108.03 101.28 107.86 101.1C107.68 100.92 107.48 100.83 107.26 100.82C107.03 100.82 106.83 100.9 106.66 101.08ZM110.39 100.05C110.39 100.05 109.95 100.5 109.06 101.41C109.06 101.41 109.15 101.55 109.33 101.84C109.33 101.84 109.29 101.89 109.19 101.98C109.19 101.98 109.02 101.8 108.66 101.44C108.66 101.44 108.73 101.37 108.86 101.24C108.86 101.24 108.6 100.59 108.1 99.31C108.1 99.31 108.17 99.23 108.33 99.07C108.33 99.07 108.96 99.33 110.22 99.84C110.22 99.84 110.29 99.78 110.42 99.64C110.42 99.64 110.6 99.83 110.95 100.19C110.95 100.19 110.91 100.24 110.81 100.33C110.81 100.33 110.67 100.24 110.39 100.05ZM110.01 100.07C110.01 100.07 109.49 99.85 108.44 99.42C108.44 99.42 108.65 99.96 109.07 101.02C109.07 101.02 109.38 100.7 110.01 100.07Z" fill="#FFFFFF" fill-opacity="1.000000" fill-rule="nonzero"/>
				<path id="Vector" d="M19.91 140.69C19.91 140.69 20.56 140.69 21.87 140.69C21.87 140.69 21.54 139.91 20.89 138.35C20.89 138.35 20.56 139.13 19.91 140.69ZM22.48 140.69C22.48 140.69 22.48 140.96 22.48 141.5C22.48 141.5 22.41 141.5 22.27 141.5C22.27 141.5 22.24 141.32 22.16 140.96C22.16 140.96 21.31 140.96 19.61 140.96C19.61 140.96 19.58 141.14 19.5 141.5C19.5 141.5 19.43 141.5 19.3 141.5C19.3 141.5 19.3 141.23 19.3 140.69C19.3 140.69 19.4 140.69 19.6 140.69C19.6 140.69 19.97 139.8 20.72 138.01C20.72 138.01 20.83 138.01 21.05 138.01C21.05 138.01 21.43 138.91 22.18 140.69C22.18 140.69 22.28 140.69 22.48 140.69ZM24.74 139.97C24.74 139.97 24.1 139.97 22.81 139.97C22.82 140.18 22.9 140.36 23.07 140.52C23.23 140.66 23.42 140.74 23.64 140.74C23.8 140.74 23.95 140.69 24.09 140.6C24.23 140.51 24.33 140.39 24.39 140.24L24.69 140.24C24.61 140.47 24.48 140.66 24.28 140.8C24.09 140.94 23.88 141.01 23.65 141.01C23.49 141.01 23.34 140.98 23.2 140.92C23.06 140.86 22.94 140.78 22.84 140.68C22.74 140.58 22.66 140.45 22.6 140.31C22.55 140.17 22.52 140.02 22.52 139.86C22.52 139.65 22.57 139.46 22.66 139.29C22.76 139.11 22.89 138.98 23.06 138.88C23.23 138.78 23.42 138.73 23.62 138.73C23.84 138.73 24.03 138.78 24.21 138.88C24.39 138.99 24.52 139.14 24.61 139.32C24.66 139.41 24.69 139.51 24.71 139.6C24.73 139.7 24.74 139.82 24.74 139.97ZM22.81 139.7L24.45 139.7C24.41 139.48 24.31 139.31 24.16 139.18C24.01 139.06 23.83 139 23.62 139C23.42 139 23.25 139.06 23.1 139.19C22.95 139.32 22.85 139.49 22.81 139.7ZM27.01 140.96C27.01 140.96 26.91 140.96 26.72 140.96C26.72 140.96 26.72 140.63 26.72 139.98C26.72 139.98 26.29 139.98 25.43 139.98C25.43 139.98 25.43 140.31 25.43 140.96C25.43 140.96 25.34 140.96 25.14 140.96C25.14 140.96 25.14 140.23 25.14 138.78C25.14 138.78 25.24 138.78 25.43 138.78C25.43 138.78 25.43 139.09 25.43 139.71C25.43 139.71 25.86 139.71 26.72 139.71C26.72 139.71 26.72 139.4 26.72 138.78C26.72 138.78 26.81 138.78 27.01 138.78C27.01 138.78 27.01 139.5 27.01 140.96ZM27.79 139.92C27.79 139.92 27.79 140.17 27.79 140.69C27.79 140.69 27.97 140.69 28.34 140.69C28.69 140.69 28.86 140.56 28.86 140.31C28.86 140.05 28.69 139.92 28.34 139.92L27.79 139.92ZM28.42 139.65C28.64 139.65 28.82 139.71 28.95 139.84C29.09 139.96 29.15 140.11 29.15 140.31C29.15 140.5 29.09 140.65 28.95 140.78C28.82 140.9 28.64 140.96 28.42 140.96L27.5 140.96L27.5 138.78L27.79 138.78L27.79 139.65L28.42 139.65ZM15.49 145.86C15.49 145.86 15.49 144.88 15.49 142.91C15.49 142.91 15.75 142.91 16.29 142.91C16.47 142.91 16.63 142.93 16.74 142.95C16.86 142.97 16.97 143.01 17.06 143.07C17.17 143.13 17.25 143.23 17.31 143.36C17.37 143.49 17.4 143.64 17.4 143.81C17.4 143.95 17.38 144.09 17.33 144.2C17.28 144.32 17.21 144.41 17.11 144.48C17.03 144.55 16.92 144.6 16.8 144.63C16.69 144.66 16.53 144.67 16.33 144.67L15.78 144.67L15.78 145.86L15.49 145.86ZM15.78 144.4L16.31 144.4C16.57 144.4 16.76 144.37 16.87 144.3C16.95 144.26 17.01 144.2 17.05 144.11C17.09 144.02 17.11 143.92 17.11 143.8C17.11 143.66 17.08 143.54 17.03 143.44C16.97 143.34 16.89 143.28 16.79 143.25C16.66 143.2 16.46 143.18 16.19 143.18L15.78 143.18L15.78 144.4ZM18.74 143.63C18.95 143.63 19.14 143.68 19.3 143.78C19.47 143.88 19.6 144.01 19.7 144.19C19.79 144.36 19.84 144.56 19.84 144.78C19.84 145.1 19.74 145.38 19.53 145.59C19.32 145.81 19.06 145.91 18.75 145.91C18.53 145.91 18.34 145.86 18.16 145.77C17.99 145.67 17.85 145.53 17.75 145.36C17.66 145.18 17.61 144.99 17.61 144.77C17.61 144.44 17.71 144.17 17.93 143.95C18.14 143.74 18.41 143.63 18.74 143.63ZM18.72 143.9C18.48 143.9 18.29 143.98 18.13 144.15C17.98 144.32 17.9 144.52 17.9 144.78C17.9 145.03 17.98 145.23 18.14 145.4C18.3 145.56 18.5 145.64 18.74 145.64C18.98 145.64 19.17 145.56 19.32 145.4C19.47 145.24 19.55 145.03 19.55 144.78C19.55 144.52 19.47 144.31 19.32 144.15C19.16 143.98 18.96 143.9 18.72 143.9ZM21.16 143.68C21.16 143.68 21.26 143.68 21.45 143.68C21.45 143.68 21.45 144.01 21.45 144.67C21.45 144.67 21.74 144.34 22.3 143.68C22.3 143.68 22.42 143.68 22.66 143.68C22.66 143.68 22.36 144.03 21.75 144.74C21.75 144.74 22.05 145.11 22.66 145.86C22.66 145.86 22.54 145.86 22.3 145.86C22.3 145.86 22.02 145.51 21.45 144.82C21.45 144.82 21.45 145.16 21.45 145.86C21.45 145.86 21.36 145.86 21.16 145.86C21.16 145.86 21.16 145.51 21.16 144.82C21.16 144.82 20.88 145.16 20.32 145.86C20.32 145.86 20.2 145.86 19.95 145.86C19.95 145.86 20.26 145.49 20.87 144.74C20.87 144.74 20.56 144.39 19.95 143.68C19.95 143.68 20.08 143.68 20.32 143.68C20.32 143.68 20.6 144.01 21.16 144.67C21.16 144.67 21.16 144.34 21.16 143.68ZM24.93 145.86C24.93 145.86 24.31 145.86 23.06 145.86C23.06 145.86 23.02 146.03 22.95 146.36C22.95 146.36 22.88 146.36 22.75 146.36C22.75 146.36 22.75 146.11 22.75 145.59C22.75 145.59 22.84 145.59 23.03 145.59C23.03 145.59 23.29 144.96 23.83 143.68C23.83 143.68 23.94 143.68 24.16 143.68C24.16 143.68 24.43 144.32 24.96 145.59C24.96 145.59 25.05 145.59 25.24 145.59C25.24 145.59 25.24 145.85 25.24 146.36C25.24 146.36 25.17 146.36 25.04 146.36C25.04 146.36 25 146.2 24.93 145.86ZM24.65 145.59C24.65 145.59 24.43 145.07 23.99 144.02C23.99 144.02 23.77 144.54 23.33 145.59C23.33 145.59 23.77 145.59 24.65 145.59ZM27.5 144.87C27.5 144.87 26.86 144.87 25.57 144.87C25.58 145.08 25.67 145.27 25.83 145.42C25.99 145.57 26.18 145.64 26.4 145.64C26.56 145.64 26.71 145.6 26.85 145.5C26.99 145.41 27.09 145.29 27.15 145.14L27.45 145.14C27.37 145.37 27.24 145.56 27.05 145.7C26.85 145.84 26.64 145.91 26.41 145.91C26.25 145.91 26.11 145.88 25.97 145.82C25.83 145.76 25.71 145.68 25.6 145.58C25.5 145.48 25.42 145.36 25.37 145.21C25.31 145.07 25.28 144.92 25.28 144.76C25.28 144.55 25.33 144.36 25.42 144.19C25.52 144.01 25.66 143.88 25.83 143.78C26 143.68 26.18 143.63 26.39 143.63C26.6 143.63 26.79 143.68 26.97 143.79C27.15 143.89 27.28 144.04 27.38 144.22C27.42 144.31 27.46 144.41 27.48 144.5C27.49 144.6 27.5 144.72 27.5 144.87ZM25.58 144.6L27.22 144.6C27.17 144.38 27.07 144.21 26.92 144.09C26.77 143.96 26.59 143.9 26.39 143.9C26.18 143.9 26.01 143.96 25.86 144.09C25.71 144.22 25.62 144.39 25.58 144.6ZM29.77 145.86C29.77 145.86 29.67 145.86 29.48 145.86C29.48 145.86 29.48 145.53 29.48 144.88C29.48 144.88 29.05 144.88 28.2 144.88C28.2 144.88 28.2 145.21 28.2 145.86C28.2 145.86 28.1 145.86 27.91 145.86C27.91 145.86 27.91 145.13 27.91 143.68C27.91 143.68 28 143.68 28.2 143.68C28.2 143.68 28.2 143.99 28.2 144.62C28.2 144.62 28.62 144.62 29.48 144.62C29.48 144.62 29.48 144.3 29.48 143.68C29.48 143.68 29.58 143.68 29.77 143.68C29.77 143.68 29.77 144.41 29.77 145.86ZM31.85 143.68C31.85 143.68 31.95 143.68 32.14 143.68C32.14 143.68 32.14 144.41 32.14 145.86C32.14 145.86 32.05 145.86 31.85 145.86C31.85 145.86 31.85 145.27 31.85 144.1C31.85 144.1 31.42 144.69 30.55 145.86C30.55 145.86 30.45 145.86 30.26 145.86C30.26 145.86 30.26 145.13 30.26 143.68C30.26 143.68 30.36 143.68 30.55 143.68C30.55 143.68 30.55 144.27 30.55 145.44C30.55 145.44 30.98 144.86 31.85 143.68ZM33.83 144.71C33.83 144.71 33.83 144.46 33.83 143.95C33.83 143.95 33.67 143.95 33.33 143.95C32.99 143.95 32.82 144.07 32.82 144.33C32.82 144.59 32.99 144.71 33.33 144.71C33.33 144.71 33.5 144.71 33.83 144.71ZM33.36 144.98C33.36 144.98 33.16 145.27 32.75 145.86C32.75 145.86 32.64 145.86 32.42 145.86C32.42 145.86 32.63 145.56 33.04 144.96C32.88 144.92 32.75 144.84 32.66 144.73C32.57 144.62 32.52 144.49 32.52 144.33C32.52 144.14 32.59 143.99 32.73 143.87C32.86 143.74 33.04 143.68 33.26 143.68L34.12 143.68L34.12 145.86C34.12 145.86 34.02 145.86 33.83 145.86C33.83 145.86 33.83 145.57 33.83 144.98C33.83 144.98 33.67 144.98 33.36 144.98Z" fill="#FFFFFF" fill-opacity="1.000000" fill-rule="nonzero"/>
				<path id="Vector" d="M141.18 138.28C141.18 138.28 140.81 138.28 140.06 138.28C140.06 138.28 140.06 139.17 140.06 140.96C140.06 140.96 139.96 140.96 139.77 140.96C139.77 140.96 139.77 139.98 139.77 138.01C139.77 138.01 140.24 138.01 141.18 138.01C141.18 138.01 141.18 138.1 141.18 138.28ZM142.17 138.73C142.38 138.73 142.56 138.78 142.73 138.88C142.9 138.97 143.03 139.11 143.12 139.29C143.22 139.46 143.27 139.66 143.27 139.87C143.27 140.2 143.16 140.47 142.96 140.69C142.75 140.9 142.49 141.01 142.17 141.01C141.96 141.01 141.77 140.96 141.59 140.86C141.42 140.77 141.28 140.63 141.18 140.45C141.08 140.28 141.03 140.09 141.03 139.87C141.03 139.54 141.14 139.27 141.35 139.05C141.57 138.83 141.84 138.73 142.17 138.73ZM142.14 139C141.91 139 141.72 139.08 141.56 139.25C141.41 139.41 141.33 139.62 141.33 139.87C141.33 140.12 141.41 140.33 141.57 140.49C141.73 140.66 141.93 140.74 142.17 140.74C142.4 140.74 142.6 140.66 142.75 140.5C142.9 140.34 142.97 140.13 142.97 139.88C142.97 139.62 142.9 139.41 142.74 139.25C142.59 139.08 142.39 139 142.14 139ZM145.49 140.96C145.49 140.96 144.87 140.96 143.61 140.96C143.61 140.96 143.58 141.13 143.51 141.46C143.51 141.46 143.44 141.46 143.31 141.46C143.31 141.46 143.31 141.21 143.31 140.69C143.31 140.69 143.4 140.69 143.59 140.69C143.59 140.69 143.85 140.05 144.39 138.78C144.39 138.78 144.5 138.78 144.72 138.78C144.72 138.78 144.99 139.42 145.52 140.69C145.52 140.69 145.61 140.69 145.8 140.69C145.8 140.69 145.8 140.95 145.8 141.46C145.8 141.46 145.73 141.46 145.6 141.46C145.6 141.46 145.56 141.29 145.49 140.96ZM145.21 140.69C145.21 140.69 144.99 140.17 144.55 139.11C144.55 139.11 144.33 139.64 143.89 140.69C143.89 140.69 144.33 140.69 145.21 140.69ZM133.92 145.86C133.92 145.86 133.92 144.88 133.92 142.91C133.92 142.91 134.19 142.91 134.72 142.91C134.91 142.91 135.06 142.93 135.18 142.95C135.3 142.97 135.4 143.01 135.49 143.07C135.6 143.13 135.68 143.23 135.75 143.36C135.81 143.49 135.83 143.64 135.83 143.81C135.83 143.95 135.81 144.09 135.76 144.2C135.71 144.32 135.64 144.41 135.55 144.48C135.46 144.55 135.36 144.6 135.24 144.63C135.12 144.66 134.96 144.67 134.77 144.67L134.21 144.67L134.21 145.86L133.92 145.86ZM134.21 144.4L134.75 144.4C135.01 144.4 135.19 144.37 135.3 144.3C135.38 144.26 135.44 144.2 135.48 144.11C135.52 144.02 135.54 143.92 135.54 143.8C135.54 143.66 135.51 143.54 135.46 143.44C135.4 143.34 135.32 143.28 135.22 143.25C135.09 143.2 134.89 143.18 134.62 143.18L134.21 143.18L134.21 144.4ZM137.17 143.63C137.38 143.63 137.57 143.68 137.74 143.78C137.9 143.88 138.04 144.01 138.13 144.19C138.23 144.36 138.27 144.56 138.27 144.78C138.27 145.1 138.17 145.38 137.96 145.59C137.76 145.81 137.5 145.91 137.18 145.91C136.97 145.91 136.77 145.86 136.6 145.77C136.42 145.67 136.29 145.53 136.19 145.36C136.09 145.18 136.04 144.99 136.04 144.77C136.04 144.44 136.15 144.17 136.36 143.95C136.57 143.74 136.85 143.63 137.17 143.63ZM137.15 143.9C136.92 143.9 136.72 143.98 136.57 144.15C136.41 144.32 136.33 144.52 136.33 144.78C136.33 145.03 136.41 145.23 136.57 145.4C136.73 145.56 136.93 145.64 137.17 145.64C137.41 145.64 137.6 145.56 137.75 145.4C137.91 145.24 137.98 145.03 137.98 144.78C137.98 144.52 137.9 144.31 137.75 144.15C137.59 143.98 137.39 143.9 137.15 143.9ZM139.6 143.68C139.6 143.68 139.69 143.68 139.89 143.68C139.89 143.68 139.89 144.01 139.89 144.67C139.89 144.67 140.17 144.34 140.73 143.68C140.73 143.68 140.85 143.68 141.09 143.68C141.09 143.68 140.79 144.03 140.18 144.74C140.18 144.74 140.48 145.11 141.09 145.86C141.09 145.86 140.97 145.86 140.73 145.86C140.73 145.86 140.45 145.51 139.89 144.82C139.89 144.82 139.89 145.16 139.89 145.86C139.89 145.86 139.79 145.86 139.6 145.86C139.6 145.86 139.6 145.51 139.6 144.82C139.6 144.82 139.31 145.16 138.75 145.86C138.75 145.86 138.63 145.86 138.39 145.86C138.39 145.86 138.69 145.49 139.3 144.74C139.3 144.74 139 144.39 138.39 143.68C138.39 143.68 138.51 143.68 138.75 143.68C138.75 143.68 139.03 144.01 139.6 144.67C139.6 144.67 139.6 144.34 139.6 143.68ZM143.37 145.86C143.37 145.86 142.74 145.86 141.49 145.86C141.49 145.86 141.45 146.03 141.38 146.36C141.38 146.36 141.31 146.36 141.18 146.36C141.18 146.36 141.18 146.11 141.18 145.59C141.18 145.59 141.27 145.59 141.46 145.59C141.46 145.59 141.73 144.96 142.26 143.68C142.26 143.68 142.37 143.68 142.59 143.68C142.59 143.68 142.86 144.32 143.39 145.59C143.39 145.59 143.49 145.59 143.67 145.59C143.67 145.59 143.67 145.85 143.67 146.36C143.67 146.36 143.6 146.36 143.47 146.36C143.47 146.36 143.44 146.2 143.37 145.86ZM143.09 145.59C143.09 145.59 142.87 145.07 142.43 144.02C142.43 144.02 142.21 144.54 141.76 145.59C141.76 145.59 142.21 145.59 143.09 145.59ZM145.94 144.87C145.94 144.87 145.29 144.87 144 144.87C144.01 145.08 144.1 145.27 144.26 145.42C144.42 145.57 144.61 145.64 144.83 145.64C145 145.64 145.15 145.6 145.28 145.5C145.42 145.41 145.52 145.29 145.58 145.14L145.88 145.14C145.8 145.37 145.67 145.56 145.48 145.7C145.29 145.84 145.08 145.91 144.84 145.91C144.69 145.91 144.54 145.88 144.4 145.82C144.26 145.76 144.14 145.68 144.04 145.58C143.94 145.48 143.86 145.36 143.8 145.21C143.74 145.07 143.71 144.92 143.71 144.76C143.71 144.55 143.76 144.36 143.86 144.19C143.96 144.01 144.09 143.88 144.26 143.78C144.43 143.68 144.62 143.63 144.82 143.63C145.03 143.63 145.22 143.68 145.4 143.79C145.58 143.89 145.72 144.04 145.81 144.22C145.86 144.31 145.89 144.41 145.91 144.5C145.93 144.6 145.94 144.72 145.94 144.87ZM144.01 144.6L145.65 144.6C145.6 144.38 145.5 144.21 145.35 144.09C145.2 143.96 145.03 143.9 144.82 143.9C144.62 143.9 144.44 143.96 144.29 144.09C144.14 144.22 144.05 144.39 144.01 144.6ZM148.2 145.86C148.2 145.86 148.1 145.86 147.91 145.86C147.91 145.86 147.91 145.53 147.91 144.88C147.91 144.88 147.48 144.88 146.63 144.88C146.63 144.88 146.63 145.21 146.63 145.86C146.63 145.86 146.53 145.86 146.34 145.86C146.34 145.86 146.34 145.13 146.34 143.68C146.34 143.68 146.43 143.68 146.63 143.68C146.63 143.68 146.63 143.99 146.63 144.62C146.63 144.62 147.06 144.62 147.91 144.62C147.91 144.62 147.91 144.3 147.91 143.68C147.91 143.68 148.01 143.68 148.2 143.68C148.2 143.68 148.2 144.41 148.2 145.86ZM150.29 143.68C150.29 143.68 150.38 143.68 150.57 143.68C150.57 143.68 150.57 144.41 150.57 145.86C150.57 145.86 150.48 145.86 150.29 145.86C150.29 145.86 150.29 145.27 150.29 144.1C150.29 144.1 149.85 144.69 148.98 145.86C148.98 145.86 148.89 145.86 148.69 145.86C148.69 145.86 148.69 145.13 148.69 143.68C148.69 143.68 148.79 143.68 148.98 143.68C148.98 143.68 148.98 144.27 148.98 145.44C148.98 145.44 149.42 144.86 150.29 143.68ZM152.26 144.71C152.26 144.71 152.26 144.46 152.26 143.95C152.26 143.95 152.1 143.95 151.77 143.95C151.42 143.95 151.25 144.07 151.25 144.33C151.25 144.59 151.42 144.71 151.77 144.71C151.77 144.71 151.93 144.71 152.26 144.71ZM151.79 144.98C151.79 144.98 151.59 145.27 151.19 145.86C151.19 145.86 151.08 145.86 150.86 145.86C150.86 145.86 151.06 145.56 151.48 144.96C151.32 144.92 151.19 144.84 151.09 144.73C151 144.62 150.96 144.49 150.96 144.33C150.96 144.14 151.02 143.99 151.16 143.87C151.29 143.74 151.47 143.68 151.69 143.68L152.55 143.68L152.55 145.86C152.55 145.86 152.46 145.86 152.26 145.86C152.26 145.86 152.26 145.57 152.26 144.98C152.26 144.98 152.11 144.98 151.79 144.98Z" fill="#FFFFFF" fill-opacity="1.000000" fill-rule="nonzero"/>
				<path id="Vector" d="M67.46 61.98C67.46 61.98 67.46 61 67.46 59.03C67.46 59.03 67.61 59.03 67.91 59.03C67.91 59.03 68.26 59.87 68.97 61.54C68.97 61.54 69.32 60.7 70.02 59.03C70.02 59.03 70.17 59.03 70.46 59.03C70.46 59.03 70.46 60.01 70.46 61.98C70.46 61.98 70.37 61.98 70.18 61.98C70.18 61.98 70.18 61.1 70.18 59.35C70.18 59.35 69.81 60.23 69.09 61.98C69.09 61.98 69 61.98 68.84 61.98C68.84 61.98 68.48 61.1 67.75 59.35C67.75 59.35 67.75 60.23 67.75 61.98C67.75 61.98 67.66 61.98 67.46 61.98ZM73.18 60.98C73.18 60.98 72.54 60.98 71.25 60.98C71.26 61.2 71.35 61.38 71.51 61.53C71.67 61.68 71.86 61.76 72.08 61.76C72.24 61.76 72.39 61.71 72.53 61.62C72.67 61.53 72.77 61.41 72.83 61.26L73.13 61.26C73.05 61.49 72.92 61.68 72.73 61.82C72.53 61.96 72.32 62.03 72.09 62.03C71.93 62.03 71.79 62 71.65 61.94C71.51 61.88 71.39 61.8 71.28 61.7C71.18 61.59 71.1 61.47 71.05 61.33C70.99 61.19 70.96 61.04 70.96 60.88C70.96 60.67 71.01 60.48 71.1 60.3C71.2 60.13 71.34 59.99 71.51 59.89C71.68 59.79 71.86 59.74 72.07 59.74C72.28 59.74 72.47 59.8 72.65 59.9C72.83 60.01 72.96 60.15 73.06 60.34C73.1 60.43 73.14 60.52 73.16 60.62C73.17 60.72 73.18 60.84 73.18 60.98ZM71.26 60.72L72.9 60.72C72.85 60.5 72.75 60.33 72.6 60.2C72.45 60.08 72.27 60.01 72.07 60.01C71.86 60.01 71.69 60.08 71.54 60.21C71.39 60.34 71.3 60.51 71.26 60.72ZM75.39 61.34C75.39 61.34 75.5 61.34 75.72 61.34C75.66 61.45 75.6 61.55 75.55 61.61C75.5 61.68 75.44 61.74 75.37 61.79C75.17 61.95 74.94 62.03 74.67 62.03C74.45 62.03 74.26 61.98 74.08 61.88C73.9 61.78 73.76 61.64 73.66 61.47C73.55 61.29 73.5 61.09 73.5 60.88C73.5 60.67 73.55 60.48 73.65 60.31C73.76 60.13 73.89 60 74.07 59.9C74.25 59.79 74.44 59.74 74.65 59.74C74.89 59.74 75.11 59.81 75.3 59.94C75.49 60.07 75.63 60.24 75.71 60.46L75.39 60.46C75.31 60.32 75.2 60.21 75.07 60.13C74.95 60.05 74.8 60.01 74.65 60.01C74.41 60.01 74.21 60.1 74.04 60.27C73.88 60.44 73.8 60.64 73.8 60.89C73.8 61.13 73.88 61.34 74.05 61.51C74.21 61.67 74.42 61.76 74.66 61.76C74.81 61.76 74.94 61.73 75.05 61.66C75.17 61.6 75.28 61.49 75.39 61.34ZM77.31 60.83C77.31 60.83 77.31 60.57 77.31 60.06C77.31 60.06 77.15 60.06 76.82 60.06C76.47 60.06 76.3 60.19 76.3 60.45C76.3 60.7 76.47 60.83 76.82 60.83C76.82 60.83 76.98 60.83 77.31 60.83ZM76.84 61.1C76.84 61.1 76.64 61.39 76.24 61.98C76.24 61.98 76.13 61.98 75.91 61.98C75.91 61.98 76.11 61.68 76.53 61.07C76.36 61.03 76.24 60.96 76.14 60.85C76.05 60.74 76.01 60.6 76.01 60.45C76.01 60.26 76.07 60.1 76.21 59.98C76.34 59.86 76.52 59.8 76.74 59.8L77.6 59.8L77.6 61.98C77.6 61.98 77.51 61.98 77.31 61.98C77.31 61.98 77.31 61.68 77.31 61.1C77.31 61.1 77.16 61.1 76.84 61.1ZM79.9 59.8C79.9 59.8 79.9 60.43 79.9 61.71C79.9 61.71 80.02 61.71 80.25 61.71C80.25 61.71 80.25 61.97 80.25 62.48C80.25 62.48 80.18 62.48 80.05 62.48C80.05 62.48 80.01 62.31 79.94 61.98C79.94 61.98 79.33 61.98 78.1 61.98C78.1 61.98 78.1 61.25 78.1 59.8C78.1 59.8 78.19 59.8 78.39 59.8C78.39 59.8 78.39 60.43 78.39 61.71C78.39 61.71 78.79 61.71 79.61 61.71C79.61 61.71 79.61 61.07 79.61 59.8C79.61 59.8 79.71 59.8 79.9 59.8ZM81.67 61.98C81.67 61.98 81.67 61 81.67 59.03C81.67 59.03 81.93 59.03 82.46 59.03C82.65 59.03 82.8 59.04 82.92 59.07C83.04 59.09 83.15 59.13 83.24 59.18C83.35 59.25 83.43 59.35 83.49 59.48C83.55 59.6 83.58 59.75 83.58 59.92C83.58 60.07 83.56 60.2 83.51 60.32C83.46 60.44 83.38 60.53 83.29 60.6C83.2 60.67 83.1 60.71 82.98 60.74C82.86 60.77 82.71 60.79 82.51 60.79L81.96 60.79L81.96 61.98L81.67 61.98ZM81.96 60.52L82.49 60.52C82.75 60.52 82.94 60.48 83.05 60.42C83.13 60.38 83.18 60.31 83.23 60.23C83.27 60.14 83.29 60.04 83.29 59.92C83.29 59.78 83.26 59.65 83.2 59.56C83.15 59.46 83.07 59.4 82.96 59.36C82.84 59.32 82.64 59.3 82.37 59.3L81.96 59.3L81.96 60.52ZM84.92 59.74C85.13 59.74 85.31 59.79 85.48 59.89C85.65 59.99 85.78 60.13 85.88 60.3C85.97 60.48 86.02 60.68 86.02 60.89C86.02 61.22 85.92 61.49 85.71 61.71C85.5 61.92 85.24 62.03 84.93 62.03C84.71 62.03 84.52 61.98 84.34 61.88C84.17 61.78 84.03 61.65 83.93 61.47C83.83 61.3 83.78 61.1 83.78 60.89C83.78 60.56 83.89 60.28 84.11 60.07C84.32 59.85 84.59 59.74 84.92 59.74ZM84.9 60.01C84.66 60.01 84.47 60.1 84.31 60.27C84.16 60.43 84.08 60.64 84.08 60.89C84.08 61.14 84.16 61.35 84.32 61.51C84.48 61.68 84.68 61.76 84.92 61.76C85.16 61.76 85.35 61.68 85.5 61.52C85.65 61.35 85.73 61.15 85.73 60.9C85.73 60.64 85.65 60.43 85.49 60.26C85.34 60.1 85.14 60.01 84.9 60.01ZM87.34 59.8C87.34 59.8 87.44 59.8 87.63 59.8C87.63 59.8 87.63 60.13 87.63 60.79C87.63 60.79 87.91 60.46 88.48 59.8C88.48 59.8 88.6 59.8 88.84 59.8C88.84 59.8 88.53 60.15 87.92 60.86C87.92 60.86 88.23 61.23 88.84 61.98C88.84 61.98 88.72 61.98 88.48 61.98C88.48 61.98 88.19 61.63 87.63 60.93C87.63 60.93 87.63 61.28 87.63 61.98C87.63 61.98 87.54 61.98 87.34 61.98C87.34 61.98 87.34 61.63 87.34 60.93C87.34 60.93 87.06 61.28 86.5 61.98C86.5 61.98 86.37 61.98 86.13 61.98C86.13 61.98 86.44 61.6 87.05 60.86C87.05 60.86 86.74 60.5 86.13 59.8C86.13 59.8 86.25 59.8 86.5 59.8C86.5 59.8 86.78 60.13 87.34 60.79C87.34 60.79 87.34 60.46 87.34 59.8ZM91.11 61.98C91.11 61.98 90.49 61.98 89.23 61.98C89.23 61.98 89.2 62.15 89.13 62.48C89.13 62.48 89.06 62.48 88.93 62.48C88.93 62.48 88.93 62.22 88.93 61.71C88.93 61.71 89.02 61.71 89.2 61.71C89.2 61.71 89.47 61.07 90.01 59.8C90.01 59.8 90.12 59.8 90.34 59.8C90.34 59.8 90.6 60.43 91.14 61.71C91.14 61.71 91.23 61.71 91.42 61.71C91.42 61.71 91.42 61.97 91.42 62.48C91.42 62.48 91.35 62.48 91.22 62.48C91.22 62.48 91.18 62.31 91.11 61.98ZM90.83 61.71C90.83 61.71 90.61 61.18 90.17 60.13C90.17 60.13 89.95 60.66 89.51 61.71C89.51 61.71 89.95 61.71 90.83 61.71ZM93.68 60.98C93.68 60.98 93.04 60.98 91.75 60.98C91.76 61.2 91.84 61.38 92.01 61.53C92.17 61.68 92.36 61.76 92.58 61.76C92.74 61.76 92.89 61.71 93.03 61.62C93.17 61.53 93.27 61.41 93.33 61.26L93.63 61.26C93.55 61.49 93.41 61.68 93.22 61.82C93.03 61.96 92.82 62.03 92.59 62.03C92.43 62.03 92.28 62 92.14 61.94C92 61.88 91.88 61.8 91.78 61.7C91.68 61.59 91.6 61.47 91.54 61.33C91.48 61.19 91.46 61.04 91.46 60.88C91.46 60.67 91.5 60.48 91.6 60.3C91.7 60.13 91.83 59.99 92 59.89C92.17 59.79 92.36 59.74 92.56 59.74C92.78 59.74 92.97 59.8 93.15 59.9C93.33 60.01 93.46 60.15 93.55 60.34C93.6 60.43 93.63 60.52 93.65 60.62C93.67 60.72 93.68 60.84 93.68 60.98ZM91.75 60.72L93.39 60.72C93.35 60.5 93.25 60.33 93.1 60.2C92.95 60.08 92.77 60.01 92.56 60.01C92.36 60.01 92.19 60.08 92.04 60.21C91.89 60.34 91.79 60.51 91.75 60.72ZM95.95 61.98C95.95 61.98 95.85 61.98 95.66 61.98C95.66 61.98 95.66 61.65 95.66 61C95.66 61 95.23 61 94.37 61C94.37 61 94.37 61.33 94.37 61.98C94.37 61.98 94.28 61.98 94.08 61.98C94.08 61.98 94.08 61.25 94.08 59.8C94.08 59.8 94.18 59.8 94.37 59.8C94.37 59.8 94.37 60.11 94.37 60.73C94.37 60.73 94.8 60.73 95.66 60.73C95.66 60.73 95.66 60.42 95.66 59.8C95.66 59.8 95.75 59.8 95.95 59.8C95.95 59.8 95.95 60.52 95.95 61.98ZM98.03 59.8C98.03 59.8 98.13 59.8 98.32 59.8C98.32 59.8 98.32 60.52 98.32 61.98C98.32 61.98 98.22 61.98 98.03 61.98C98.03 61.98 98.03 61.39 98.03 60.22C98.03 60.22 97.6 60.8 96.73 61.98C96.73 61.98 96.63 61.98 96.44 61.98C96.44 61.98 96.44 61.25 96.44 59.8C96.44 59.8 96.53 59.8 96.73 59.8C96.73 59.8 96.73 60.38 96.73 61.56C96.73 61.56 97.16 60.97 98.03 59.8ZM100.01 60.83C100.01 60.83 100.01 60.57 100.01 60.06C100.01 60.06 99.84 60.06 99.51 60.06C99.17 60.06 99 60.19 99 60.45C99 60.7 99.17 60.83 99.51 60.83C99.51 60.83 99.68 60.83 100.01 60.83ZM99.54 61.1C99.54 61.1 99.33 61.39 98.93 61.98C98.93 61.98 98.82 61.98 98.6 61.98C98.6 61.98 98.81 61.68 99.22 61.07C99.06 61.03 98.93 60.96 98.84 60.85C98.75 60.74 98.7 60.6 98.7 60.45C98.7 60.26 98.77 60.1 98.9 59.98C99.04 59.86 99.22 59.8 99.44 59.8L100.3 59.8L100.3 61.98C100.3 61.98 100.2 61.98 100.01 61.98C100.01 61.98 100.01 61.68 100.01 61.1C100.01 61.1 99.85 61.1 99.54 61.1Z" fill="#FFFFFF" fill-opacity="1.000000" fill-rule="nonzero"/>
				<path id="Vector" d="M65.46 200.87C65.46 200.87 65.02 200.41 64.15 199.49C64.15 199.49 64.15 199.95 64.15 200.87C64.15 200.87 64.05 200.87 63.86 200.87C63.86 200.87 63.86 199.88 63.86 197.92C63.86 197.92 63.96 197.92 64.15 197.92C64.15 197.92 64.15 198.37 64.15 199.27C64.15 199.27 64.59 198.82 65.47 197.92C65.47 197.92 65.59 197.92 65.85 197.92C65.85 197.92 65.37 198.41 64.42 199.38C64.42 199.38 64.9 199.87 65.85 200.87C65.85 200.87 65.72 200.87 65.46 200.87ZM68.14 198.68C68.14 198.68 68.14 199.41 68.14 200.87C68.14 200.87 68.05 200.87 67.85 200.87C67.85 200.87 67.85 200.74 67.85 200.48C67.74 200.64 67.62 200.75 67.49 200.82C67.37 200.88 67.21 200.92 67.03 200.92C66.81 200.92 66.62 200.87 66.44 200.77C66.27 200.67 66.13 200.54 66.03 200.37C65.93 200.19 65.88 200 65.88 199.78C65.88 199.57 65.93 199.37 66.03 199.19C66.13 199.02 66.26 198.88 66.43 198.78C66.6 198.68 66.8 198.63 67.01 198.63C67.2 198.63 67.36 198.67 67.49 198.74C67.62 198.81 67.75 198.92 67.85 199.07L67.85 198.68L68.14 198.68ZM67 198.9C66.78 198.9 66.58 198.99 66.42 199.16C66.26 199.32 66.18 199.53 66.18 199.77C66.18 200.01 66.26 200.22 66.42 200.39C66.59 200.56 66.79 200.65 67.03 200.65C67.26 200.65 67.46 200.56 67.61 200.39C67.77 200.23 67.85 200.02 67.85 199.77C67.85 199.52 67.77 199.32 67.61 199.15C67.45 198.99 67.25 198.9 67 198.9ZM68.63 198.68C68.63 198.68 68.73 198.68 68.93 198.68C68.93 198.68 68.93 198.81 68.93 199.06C69.01 198.92 69.13 198.81 69.27 198.74C69.42 198.67 69.58 198.63 69.77 198.63C69.98 198.63 70.17 198.68 70.34 198.78C70.51 198.88 70.65 199.02 70.74 199.19C70.84 199.37 70.89 199.56 70.89 199.78C70.89 199.99 70.84 200.18 70.74 200.36C70.64 200.53 70.51 200.67 70.33 200.77C70.16 200.87 69.97 200.92 69.76 200.92C69.58 200.92 69.42 200.88 69.28 200.81C69.14 200.74 69.02 200.63 68.93 200.49L68.93 201.63L68.63 201.63L68.63 198.68ZM69.74 198.9C69.51 198.9 69.31 198.99 69.15 199.16C68.98 199.32 68.9 199.53 68.9 199.78C68.9 200.02 68.99 200.23 69.15 200.4C69.31 200.56 69.51 200.65 69.75 200.65C70 200.65 70.2 200.56 70.36 200.4C70.52 200.24 70.6 200.03 70.6 199.79C70.6 199.53 70.52 199.32 70.36 199.15C70.2 198.99 69.99 198.9 69.74 198.9ZM71.3 200.87C71.3 200.87 71.3 200.14 71.3 198.68C71.3 198.68 71.45 198.68 71.75 198.68C71.75 198.68 72 199.27 72.5 200.45C72.5 200.45 72.75 199.86 73.25 198.68C73.25 198.68 73.4 198.68 73.7 198.68C73.7 198.68 73.7 199.41 73.7 200.87C73.7 200.87 73.6 200.87 73.41 200.87C73.41 200.87 73.41 200.25 73.41 199.01C73.41 199.01 73.15 199.63 72.62 200.87C72.62 200.87 72.54 200.87 72.37 200.87C72.37 200.87 72.11 200.25 71.59 199.01C71.59 199.01 71.59 199.63 71.59 200.87C71.59 200.87 71.5 200.87 71.3 200.87ZM75.79 198.68C75.79 198.68 75.88 198.68 76.07 198.68C76.07 198.68 76.07 199.41 76.07 200.87C76.07 200.87 75.98 200.87 75.79 200.87C75.79 200.87 75.79 200.28 75.79 199.1C75.79 199.1 75.35 199.69 74.48 200.87C74.48 200.87 74.39 200.87 74.19 200.87C74.19 200.87 74.19 200.14 74.19 198.68C74.19 198.68 74.29 198.68 74.48 198.68C74.48 198.68 74.48 199.27 74.48 200.45C74.48 200.45 74.92 199.86 75.79 198.68ZM78.12 198.68C78.12 198.68 78.12 199.41 78.12 200.87C78.12 200.87 78.03 200.87 77.83 200.87C77.83 200.87 77.83 200.58 77.83 200C77.62 200.02 77.39 200.04 77.16 200.04C77.09 200.04 77.01 200.03 76.94 200C76.86 199.98 76.79 199.95 76.75 199.91C76.58 199.8 76.5 199.61 76.5 199.35L76.5 198.68C76.5 198.68 76.6 198.68 76.79 198.68C76.79 198.68 76.79 198.91 76.79 199.35C76.79 199.43 76.8 199.5 76.81 199.56C76.83 199.61 76.86 199.65 76.91 199.68C76.96 199.72 77.02 199.74 77.09 199.75C77.17 199.76 77.27 199.77 77.39 199.77C77.5 199.77 77.65 199.76 77.83 199.73L77.83 198.68L78.12 198.68ZM80.76 199.87C80.76 199.87 80.12 199.87 78.83 199.87C78.84 200.09 78.92 200.27 79.09 200.42C79.25 200.57 79.44 200.65 79.66 200.65C79.82 200.65 79.97 200.6 80.11 200.51C80.25 200.42 80.35 200.3 80.41 200.15L80.71 200.15C80.63 200.38 80.49 200.56 80.3 200.71C80.11 200.85 79.9 200.92 79.67 200.92C79.51 200.92 79.36 200.89 79.22 200.83C79.08 200.77 78.96 200.69 78.86 200.59C78.76 200.48 78.68 200.36 78.62 200.22C78.57 200.07 78.54 199.92 78.54 199.77C78.54 199.56 78.58 199.37 78.68 199.19C78.78 199.02 78.91 198.88 79.08 198.78C79.25 198.68 79.44 198.63 79.64 198.63C79.86 198.63 80.05 198.68 80.23 198.79C80.41 198.9 80.54 199.04 80.63 199.23C80.68 199.32 80.71 199.41 80.73 199.51C80.75 199.61 80.76 199.73 80.76 199.87ZM78.83 199.61L80.47 199.61C80.43 199.39 80.33 199.22 80.18 199.09C80.03 198.97 79.85 198.9 79.64 198.9C79.44 198.9 79.27 198.97 79.12 199.1C78.97 199.23 78.87 199.4 78.83 199.61ZM82.97 200.22C82.97 200.22 83.08 200.22 83.3 200.22C83.24 200.34 83.18 200.43 83.13 200.5C83.08 200.57 83.02 200.63 82.94 200.68C82.75 200.84 82.52 200.92 82.25 200.92C82.03 200.92 81.83 200.87 81.65 200.77C81.48 200.67 81.34 200.53 81.23 200.35C81.13 200.18 81.08 199.98 81.08 199.77C81.08 199.56 81.13 199.37 81.23 199.19C81.33 199.02 81.47 198.88 81.65 198.78C81.82 198.68 82.02 198.63 82.23 198.63C82.47 198.63 82.69 198.7 82.88 198.82C83.07 198.95 83.21 199.13 83.29 199.35L82.97 199.35C82.88 199.2 82.78 199.09 82.65 199.02C82.52 198.94 82.38 198.9 82.22 198.9C81.99 198.9 81.78 198.99 81.62 199.16C81.46 199.32 81.38 199.53 81.38 199.78C81.38 200.02 81.46 200.23 81.62 200.39C81.79 200.56 82 200.65 82.24 200.65C82.39 200.65 82.52 200.61 82.63 200.55C82.74 200.48 82.86 200.38 82.97 200.22ZM83.7 198.68C83.7 198.68 83.79 198.68 83.99 198.68C83.99 198.68 83.99 199.01 83.99 199.66C83.99 199.66 84.31 199.33 84.97 198.68C84.97 198.68 85.09 198.68 85.34 198.68C85.34 198.68 84.99 199.04 84.27 199.74C84.27 199.74 84.63 200.12 85.34 200.87C85.34 200.87 85.22 200.87 84.96 200.87C84.96 200.87 84.64 200.52 83.99 199.84C83.99 199.84 83.99 200.18 83.99 200.87C83.99 200.87 83.89 200.87 83.7 200.87C83.7 200.87 83.7 200.14 83.7 198.68ZM86.59 198.63C86.8 198.63 86.98 198.68 87.15 198.78C87.32 198.88 87.45 199.02 87.54 199.19C87.64 199.37 87.69 199.56 87.69 199.78C87.69 200.11 87.58 200.38 87.38 200.6C87.17 200.81 86.91 200.92 86.6 200.92C86.38 200.92 86.19 200.87 86.01 200.77C85.84 200.67 85.7 200.54 85.6 200.36C85.5 200.19 85.45 199.99 85.45 199.78C85.45 199.45 85.56 199.17 85.77 198.96C85.99 198.74 86.26 198.63 86.59 198.63ZM86.57 198.9C86.33 198.9 86.14 198.99 85.98 199.15C85.83 199.32 85.75 199.53 85.75 199.78C85.75 200.03 85.83 200.24 85.99 200.4C86.15 200.56 86.35 200.65 86.59 200.65C86.82 200.65 87.02 200.57 87.17 200.4C87.32 200.24 87.4 200.04 87.4 199.79C87.4 199.53 87.32 199.32 87.16 199.15C87.01 198.99 86.81 198.9 86.57 198.9ZM90.25 199.87C90.25 199.87 89.6 199.87 88.31 199.87C88.32 200.09 88.41 200.27 88.57 200.42C88.73 200.57 88.92 200.65 89.14 200.65C89.31 200.65 89.46 200.6 89.59 200.51C89.73 200.42 89.83 200.3 89.89 200.15L90.19 200.15C90.11 200.38 89.98 200.56 89.79 200.71C89.6 200.85 89.38 200.92 89.15 200.92C88.99 200.92 88.85 200.89 88.71 200.83C88.57 200.77 88.45 200.69 88.35 200.59C88.24 200.48 88.16 200.36 88.11 200.22C88.05 200.07 88.02 199.92 88.02 199.77C88.02 199.56 88.07 199.37 88.17 199.19C88.26 199.02 88.4 198.88 88.57 198.78C88.74 198.68 88.92 198.63 89.13 198.63C89.34 198.63 89.53 198.68 89.71 198.79C89.89 198.9 90.02 199.04 90.12 199.23C90.16 199.32 90.2 199.41 90.22 199.51C90.24 199.61 90.25 199.73 90.25 199.87ZM88.32 199.61L89.96 199.61C89.91 199.39 89.81 199.22 89.66 199.09C89.51 198.97 89.33 198.9 89.13 198.9C88.92 198.9 88.75 198.97 88.6 199.1C88.45 199.23 88.36 199.4 88.32 199.61ZM93.29 198.68C93.29 198.68 93.29 199.41 93.29 200.87C93.29 200.87 93.19 200.87 93 200.87C93 200.87 93 200.58 93 200C92.78 200.02 92.56 200.04 92.32 200.04C92.25 200.04 92.18 200.03 92.1 200C92.02 199.98 91.96 199.95 91.91 199.91C91.74 199.8 91.66 199.61 91.66 199.35L91.66 198.68C91.66 198.68 91.76 198.68 91.95 198.68C91.95 198.68 91.95 198.91 91.95 199.35C91.95 199.43 91.96 199.5 91.98 199.56C91.99 199.61 92.03 199.65 92.07 199.68C92.12 199.72 92.18 199.74 92.26 199.75C92.33 199.76 92.43 199.77 92.55 199.77C92.67 199.77 92.81 199.76 93 199.73L93 198.68L93.29 198.68ZM95.37 198.68C95.37 198.68 95.47 198.68 95.66 198.68C95.66 198.68 95.66 199.41 95.66 200.87C95.66 200.87 95.57 200.87 95.37 200.87C95.37 200.87 95.37 200.28 95.37 199.1C95.37 199.1 94.94 199.69 94.07 200.87C94.07 200.87 93.97 200.87 93.78 200.87C93.78 200.87 93.78 200.14 93.78 198.68C93.78 198.68 93.88 198.68 94.07 198.68C94.07 198.68 94.07 199.27 94.07 200.45C94.07 200.45 94.51 199.86 95.37 198.68ZM97.96 200.22C97.96 200.22 98.07 200.22 98.29 200.22C98.23 200.34 98.17 200.43 98.12 200.5C98.07 200.57 98.01 200.63 97.94 200.68C97.74 200.84 97.51 200.92 97.24 200.92C97.02 200.92 96.83 200.87 96.65 200.77C96.47 200.67 96.33 200.53 96.23 200.35C96.13 200.18 96.08 199.98 96.08 199.77C96.08 199.56 96.13 199.37 96.23 199.19C96.33 199.02 96.47 198.88 96.64 198.78C96.82 198.68 97.01 198.63 97.22 198.63C97.46 198.63 97.68 198.7 97.87 198.82C98.06 198.95 98.2 199.13 98.29 199.35L97.96 199.35C97.88 199.2 97.77 199.09 97.65 199.02C97.52 198.94 97.38 198.9 97.22 198.9C96.98 198.9 96.78 198.99 96.61 199.16C96.45 199.32 96.37 199.53 96.37 199.78C96.37 200.02 96.45 200.23 96.62 200.39C96.79 200.56 96.99 200.65 97.23 200.65C97.38 200.65 97.51 200.61 97.63 200.55C97.74 200.48 97.85 200.38 97.96 200.22ZM100.56 200.87C100.56 200.87 100.46 200.87 100.26 200.87C100.26 200.87 100 200.25 99.48 199.02C99.48 199.02 99.22 199.64 98.7 200.87C98.7 200.87 98.6 200.87 98.4 200.87C98.4 200.87 98.7 200.14 99.32 198.68C99.32 198.68 99.43 198.68 99.64 198.68C99.64 198.68 99.95 199.41 100.56 200.87ZM101.77 198.63C101.98 198.63 102.17 198.68 102.33 198.78C102.5 198.88 102.63 199.02 102.73 199.19C102.82 199.37 102.87 199.56 102.87 199.78C102.87 200.11 102.77 200.38 102.56 200.6C102.35 200.81 102.09 200.92 101.78 200.92C101.56 200.92 101.37 200.87 101.19 200.77C101.02 200.67 100.88 200.54 100.78 200.36C100.68 200.19 100.64 199.99 100.64 199.78C100.64 199.45 100.74 199.17 100.96 198.96C101.17 198.74 101.44 198.63 101.77 198.63ZM101.75 198.9C101.51 198.9 101.32 198.99 101.16 199.15C101.01 199.32 100.93 199.53 100.93 199.78C100.93 200.03 101.01 200.24 101.17 200.4C101.33 200.56 101.53 200.65 101.77 200.65C102.01 200.65 102.2 200.57 102.35 200.4C102.5 200.24 102.58 200.04 102.58 199.79C102.58 199.53 102.5 199.32 102.34 199.15C102.19 198.99 101.99 198.9 101.75 198.9Z" fill="#FFFFFF" fill-opacity="1.000000" fill-rule="nonzero"/>
				<path id="Vector" d="M95.33 139.64C95.33 139.64 96.01 138.94 97.37 137.55C97.37 137.55 97.48 137.66 97.69 137.88C97.69 137.88 97.36 138.72 96.69 140.41C96.69 140.41 97.52 140.07 99.17 139.39C99.17 139.39 99.28 139.5 99.49 139.72C99.49 139.72 98.81 140.41 97.45 141.8C97.45 141.8 97.38 141.73 97.24 141.59C97.24 141.59 97.85 140.97 99.06 139.74C99.06 139.74 98.2 140.09 96.47 140.81C96.47 140.81 96.41 140.75 96.3 140.63C96.3 140.63 96.65 139.75 97.35 137.99C97.35 137.99 96.74 138.61 95.53 139.85C95.53 139.85 95.46 139.78 95.33 139.64ZM97.49 142.93C97.49 142.93 97.77 142.82 98.32 142.59C98.32 142.59 98.61 141.89 99.2 140.5C99.2 140.5 99.27 140.57 99.42 140.73C99.42 140.73 99.18 141.3 98.69 142.45C98.69 142.45 99.27 142.21 100.41 141.74C100.41 141.74 100.48 141.81 100.63 141.96C100.63 141.96 99.66 142.36 97.71 143.15C97.71 143.15 97.64 143.08 97.49 142.93ZM101.52 142.87C101.52 142.87 101.59 142.94 101.73 143.08C101.73 143.08 101.5 143.31 101.04 143.78C101.04 143.78 101.47 143.75 102.33 143.69C102.33 143.69 102.41 143.78 102.58 143.95C102.58 143.95 102.12 143.98 101.2 144.04C101.2 144.04 101.16 144.53 101.07 145.49C101.07 145.49 100.98 145.41 100.81 145.23C100.81 145.23 100.86 144.78 100.94 143.88C100.94 143.88 100.7 144.13 100.22 144.62C100.22 144.62 100.15 144.55 100.01 144.41C100.01 144.41 100.25 144.17 100.74 143.67C100.74 143.67 100.3 143.72 99.41 143.8C99.41 143.8 99.33 143.72 99.16 143.54C99.16 143.54 99.63 143.5 100.58 143.41C100.58 143.41 100.61 142.94 100.67 142C100.67 142 100.76 142.09 100.93 142.26C100.93 142.26 100.9 142.7 100.84 143.57C100.84 143.57 101.07 143.34 101.52 142.87ZM102.93 146.48C102.93 146.48 103.01 146.56 103.16 146.72C103.04 146.75 102.93 146.78 102.85 146.79C102.77 146.8 102.68 146.8 102.59 146.79C102.35 146.76 102.13 146.64 101.94 146.45C101.78 146.3 101.68 146.12 101.62 145.92C101.57 145.72 101.56 145.52 101.61 145.32C101.66 145.12 101.76 144.95 101.91 144.8C102.06 144.65 102.22 144.55 102.42 144.5C102.61 144.45 102.8 144.46 103 144.51C103.19 144.57 103.36 144.67 103.51 144.82C103.68 145 103.79 145.2 103.84 145.42C103.88 145.65 103.86 145.88 103.77 146.09L103.54 145.86C103.58 145.7 103.58 145.55 103.54 145.4C103.51 145.25 103.43 145.12 103.32 145.01C103.15 144.84 102.95 144.75 102.72 144.75C102.49 144.75 102.28 144.84 102.11 145.02C101.95 145.19 101.86 145.39 101.86 145.63C101.86 145.87 101.95 146.08 102.12 146.25C102.23 146.36 102.34 146.43 102.47 146.47C102.59 146.5 102.75 146.5 102.93 146.48ZM104.51 145.92C104.51 145.92 104.58 145.99 104.72 146.13C104.72 146.13 104.49 146.36 104.04 146.81C104.04 146.81 104.5 146.82 105.41 146.83C105.41 146.83 105.5 146.92 105.68 147.1C105.68 147.1 105.18 147.09 104.19 147.08C104.19 147.08 104.18 147.6 104.16 148.64C104.16 148.64 104.07 148.55 103.89 148.37C103.89 148.37 103.9 147.89 103.92 146.94C103.92 146.94 103.68 147.18 103.21 147.67C103.21 147.67 103.14 147.6 103 147.46C103 147.46 103.5 146.95 104.51 145.92ZM106.59 147.96C106.74 148.11 106.84 148.28 106.89 148.47C106.94 148.67 106.94 148.86 106.88 149.05C106.83 149.24 106.72 149.42 106.57 149.57C106.35 149.8 106.09 149.92 105.79 149.92C105.5 149.92 105.24 149.81 105.01 149.59C104.86 149.43 104.76 149.25 104.7 149.06C104.65 148.86 104.65 148.67 104.7 148.47C104.75 148.28 104.85 148.11 105 147.96C105.23 147.72 105.49 147.61 105.79 147.61C106.1 147.61 106.36 147.73 106.59 147.96ZM106.39 148.14C106.22 147.97 106.03 147.89 105.8 147.89C105.58 147.9 105.38 147.99 105.2 148.17C105.03 148.35 104.94 148.55 104.94 148.78C104.94 149.01 105.03 149.21 105.2 149.39C105.36 149.56 105.56 149.64 105.77 149.63C105.99 149.63 106.19 149.54 106.36 149.36C106.54 149.18 106.63 148.97 106.64 148.75C106.64 148.52 106.56 148.31 106.39 148.14ZM108.42 148.78C108.42 148.78 108.49 148.85 108.63 148.99C108.47 149.14 108.47 149.3 108.61 149.44C108.76 149.59 108.9 149.58 109.06 149.43L109.26 149.63C109.12 149.74 108.99 149.78 108.85 149.77C108.72 149.75 108.6 149.69 108.48 149.57C108.37 149.46 108.31 149.33 108.29 149.2C108.28 149.06 108.32 148.92 108.42 148.78ZM108.75 150.24C108.75 150.24 108.82 150.31 108.96 150.45C108.96 150.45 108.45 150.96 107.44 151.99C107.44 151.99 107.38 151.92 107.24 151.78C107.24 151.78 107.65 151.37 108.46 150.53C108.46 150.53 107.75 150.64 106.32 150.84C106.32 150.84 106.25 150.77 106.11 150.63C106.11 150.63 106.62 150.12 107.63 149.09C107.63 149.09 107.7 149.16 107.83 149.3C107.83 149.3 107.42 149.72 106.61 150.55C106.61 150.55 107.32 150.44 108.75 150.24ZM110.08 151.59C110.08 151.59 110.14 151.66 110.28 151.8C110.28 151.8 110.19 151.88 110.02 152.06C110.18 152.03 110.34 152.03 110.49 152.09C110.64 152.14 110.78 152.23 110.91 152.36C111.06 152.52 111.16 152.69 111.21 152.88C111.27 153.08 111.27 153.27 111.21 153.47C111.16 153.66 111.06 153.84 110.91 153.99C110.77 154.14 110.6 154.24 110.41 154.29C110.22 154.34 110.02 154.34 109.83 154.28C109.64 154.23 109.47 154.13 109.32 153.98C109.2 153.85 109.11 153.71 109.06 153.55C109.01 153.4 109 153.24 109.03 153.07L108.24 153.88L108.03 153.67L110.08 151.59ZM110.71 152.54C110.54 152.37 110.34 152.28 110.11 152.29C109.88 152.29 109.68 152.38 109.51 152.55C109.34 152.73 109.25 152.93 109.25 153.17C109.25 153.4 109.34 153.61 109.51 153.78C109.68 153.95 109.88 154.04 110.1 154.04C110.33 154.04 110.53 153.95 110.7 153.78C110.88 153.6 110.97 153.39 110.97 153.16C110.97 152.92 110.88 152.72 110.71 152.54ZM112.74 154.23C112.89 154.38 112.99 154.55 113.04 154.74C113.09 154.93 113.08 155.12 113.03 155.32C112.98 155.51 112.87 155.68 112.72 155.84C112.5 156.07 112.24 156.18 111.94 156.19C111.64 156.19 111.39 156.08 111.16 155.85C111.01 155.7 110.91 155.52 110.85 155.33C110.8 155.13 110.79 154.94 110.84 154.74C110.9 154.55 111 154.37 111.15 154.22C111.38 153.99 111.64 153.87 111.94 153.87C112.24 153.87 112.51 153.99 112.74 154.23ZM112.54 154.41C112.37 154.24 112.18 154.16 111.95 154.16C111.73 154.17 111.53 154.26 111.35 154.44C111.18 154.61 111.09 154.82 111.09 155.05C111.09 155.28 111.18 155.48 111.35 155.65C111.51 155.82 111.7 155.91 111.92 155.9C112.14 155.89 112.34 155.8 112.51 155.63C112.69 155.45 112.78 155.24 112.79 155.01C112.79 154.78 112.71 154.58 112.54 154.41ZM113.54 158.21C113.54 158.21 113.1 157.75 112.22 156.85C112.22 156.85 112.08 156.95 111.79 157.13C111.79 157.13 111.75 157.08 111.65 156.99C111.65 156.99 111.83 156.81 112.19 156.44C112.19 156.44 112.25 156.51 112.38 156.64C112.38 156.64 113.01 156.39 114.28 155.87C114.28 155.87 114.35 155.95 114.51 156.11C114.51 156.11 114.26 156.75 113.75 158.04C113.75 158.04 113.81 158.1 113.94 158.24C113.94 158.24 113.77 158.42 113.41 158.78C113.41 158.78 113.36 158.73 113.27 158.64C113.27 158.64 113.36 158.49 113.54 158.21ZM113.53 157.82C113.53 157.82 113.74 157.29 114.16 156.22C114.16 156.22 113.64 156.44 112.6 156.86C112.6 156.86 112.91 157.18 113.53 157.82Z" fill="#FFFFFF" fill-opacity="1.000000" fill-rule="nonzero"/>
				<path id="Vector" d="M55.83 155.37C55.83 155.37 54.97 155.02 53.25 154.31C53.25 154.31 53.6 155.19 54.29 156.95C54.29 156.95 54.22 157.02 54.07 157.17C54.07 157.17 53.68 156.18 52.9 154.19C52.9 154.19 52.98 154.11 53.13 153.96C53.13 153.96 54.11 154.36 56.06 155.15C56.06 155.15 55.98 155.22 55.83 155.37ZM55.87 152.25C55.87 152.25 55.94 152.18 56.08 152.04C56.08 152.04 56.58 152.55 57.59 153.58C57.59 153.58 57.52 153.65 57.39 153.79C57.39 153.79 56.98 153.37 56.16 152.54C56.16 152.54 56.27 153.27 56.47 154.73C56.47 154.73 56.4 154.8 56.26 154.94C56.26 154.94 55.76 154.42 54.75 153.39C54.75 153.39 54.82 153.33 54.95 153.19C54.95 153.19 55.36 153.6 56.18 154.43C56.18 154.43 56.07 153.7 55.87 152.25ZM59.26 151.88C59.26 151.88 59.19 151.95 59.05 152.09C59.05 152.09 58.83 151.86 58.38 151.4C58.38 151.4 58.07 151.71 57.47 152.32C57.47 152.32 57.69 152.55 58.15 153.02C58.15 153.02 58.08 153.09 57.94 153.22C57.94 153.22 57.44 152.71 56.43 151.68C56.43 151.68 56.5 151.61 56.63 151.47C56.63 151.47 56.85 151.69 57.28 152.14C57.28 152.14 57.59 151.83 58.19 151.21C58.19 151.21 57.97 150.99 57.54 150.55C57.54 150.55 57.61 150.48 57.75 150.34C57.75 150.34 58.25 150.85 59.26 151.88ZM59.22 148.84C59.22 148.84 59.29 148.77 59.42 148.63C59.42 148.63 59.93 149.14 60.94 150.17C60.94 150.17 60.87 150.24 60.73 150.38C60.73 150.38 60.33 149.96 59.51 149.13C59.51 149.13 59.61 149.86 59.81 151.32C59.81 151.32 59.74 151.39 59.61 151.53C59.61 151.53 59.1 151.01 58.09 149.99C58.09 149.99 58.16 149.92 58.3 149.78C58.3 149.78 58.71 150.19 59.52 151.02C59.52 151.02 59.42 150.29 59.22 148.84ZM61.33 148.14C61.33 148.14 61.16 147.96 60.8 147.6C60.8 147.6 60.69 147.72 60.45 147.96C60.21 148.21 60.18 148.42 60.35 148.6C60.53 148.78 60.74 148.75 60.98 148.5C60.98 148.5 61.1 148.38 61.33 148.14ZM61.18 148.67C61.18 148.67 61.25 149.02 61.37 149.73C61.37 149.73 61.29 149.81 61.14 149.97C61.14 149.97 61.07 149.61 60.95 148.88C60.81 148.97 60.66 149.01 60.52 149C60.38 148.98 60.25 148.92 60.15 148.81C60.02 148.68 59.95 148.52 59.96 148.34C59.97 148.16 60.06 147.98 60.21 147.82L60.82 147.2L62.34 148.75C62.34 148.75 62.27 148.82 62.13 148.95C62.13 148.95 61.93 148.75 61.52 148.33C61.52 148.33 61.41 148.44 61.18 148.67ZM62.63 145.36C62.63 145.36 62.7 145.29 62.84 145.15C62.84 145.15 63.07 145.38 63.53 145.85C63.53 145.85 63.5 145.41 63.44 144.54C63.44 144.54 63.52 144.45 63.69 144.28C63.69 144.28 63.72 144.75 63.78 145.69C63.78 145.69 64.26 145.73 65.21 145.82C65.21 145.82 65.12 145.91 64.95 146.08C64.95 146.08 64.51 146.04 63.63 145.95C63.63 145.95 63.87 146.2 64.35 146.69C64.35 146.69 64.28 146.76 64.15 146.9C64.15 146.9 63.91 146.65 63.42 146.16C63.42 146.16 63.46 146.61 63.55 147.51C63.55 147.51 63.46 147.6 63.29 147.77C63.29 147.77 63.25 147.29 63.16 146.32C63.16 146.32 62.7 146.29 61.78 146.23C61.78 146.23 61.86 146.14 62.04 145.97C62.04 145.97 62.46 146 63.32 146.06C63.32 146.06 63.09 145.82 62.63 145.36ZM65.01 142.94C65.01 142.94 65.08 142.87 65.21 142.73C65.21 142.73 65.72 143.24 66.73 144.27C66.73 144.27 66.66 144.34 66.52 144.48C66.52 144.48 66.12 144.06 65.3 143.23C65.3 143.23 65.4 143.96 65.6 145.42C65.6 145.42 65.53 145.49 65.4 145.63C65.4 145.63 64.89 145.11 63.88 144.09C63.88 144.09 63.95 144.02 64.09 143.88C64.09 143.88 64.5 144.29 65.31 145.12C65.31 145.12 65.21 144.39 65.01 142.94ZM66.73 142.81L66.56 142.64C66.7 142.5 66.77 142.38 66.79 142.27C66.82 142.16 66.79 142.06 66.71 141.98C66.65 141.92 66.57 141.89 66.47 141.9C66.37 141.91 66.28 141.96 66.2 142.04C66.12 142.11 66.08 142.2 66.08 142.3C66.07 142.39 66.09 142.48 66.15 142.55L65.94 142.76C65.83 142.63 65.78 142.48 65.79 142.31C65.8 142.13 65.88 141.98 66.01 141.84C66.15 141.7 66.31 141.62 66.48 141.61C66.66 141.6 66.8 141.65 66.92 141.77C66.99 141.84 67.04 141.93 67.05 142.04C67.07 142.15 67.05 142.25 67 142.35C67.12 142.28 67.24 142.24 67.36 142.24C67.49 142.25 67.6 142.3 67.69 142.39C67.82 142.53 67.88 142.7 67.87 142.9C67.85 143.11 67.76 143.29 67.6 143.45C67.45 143.61 67.27 143.7 67.07 143.72C66.87 143.73 66.7 143.67 66.56 143.54L66.77 143.33C66.86 143.41 66.96 143.44 67.08 143.43C67.2 143.42 67.31 143.36 67.41 143.26C67.51 143.16 67.57 143.05 67.58 142.92C67.6 142.79 67.57 142.69 67.49 142.61C67.41 142.52 67.3 142.5 67.17 142.52C67.04 142.55 66.89 142.65 66.73 142.81ZM69.72 141.22C69.72 141.22 69.66 141.29 69.52 141.43C69.52 141.43 69.29 141.2 68.84 140.73C68.84 140.73 68.54 141.04 67.93 141.66C67.93 141.66 68.16 141.89 68.61 142.35C68.61 142.35 68.54 142.42 68.41 142.56C68.41 142.56 67.9 142.05 66.89 141.02C66.89 141.02 66.96 140.95 67.1 140.81C67.1 140.81 67.32 141.03 67.75 141.47C67.75 141.47 68.05 141.16 68.66 140.55C68.66 140.55 68.44 140.33 68 139.88C68 139.88 68.07 139.81 68.21 139.67C68.21 139.67 68.72 140.19 69.72 141.22ZM69.68 138.17C69.68 138.17 69.75 138.1 69.89 137.96C69.89 137.96 70.39 138.48 71.4 139.5C71.4 139.5 71.33 139.58 71.2 139.71C71.2 139.71 70.79 139.3 69.98 138.47C69.98 138.47 70.08 139.2 70.28 140.65C70.28 140.65 70.21 140.72 70.07 140.86C70.07 140.86 69.57 140.35 68.56 139.32C68.56 139.32 68.63 139.25 68.76 139.11C68.76 139.11 69.17 139.53 69.99 140.36C69.99 140.36 69.89 139.63 69.68 138.17Z" fill="#FFFFFF" fill-opacity="1.000000" fill-rule="nonzero"/>
				<path id="Vector" d="M57.14 102.14C57.14 102.14 57.49 101.27 58.18 99.51C58.18 99.51 57.32 99.86 55.6 100.57C55.6 100.57 55.53 100.49 55.38 100.34C55.38 100.34 56.35 99.95 58.3 99.16C58.3 99.16 58.38 99.23 58.53 99.39C58.53 99.39 58.14 100.38 57.37 102.37C57.37 102.37 57.29 102.29 57.14 102.14ZM60.21 102.18C60.21 102.18 60.28 102.25 60.42 102.39C60.42 102.39 59.91 102.91 58.9 103.94C58.9 103.94 58.83 103.87 58.7 103.73C58.7 103.73 59.11 103.31 59.92 102.48C59.92 102.48 59.21 102.58 57.78 102.79C57.78 102.79 57.71 102.72 57.57 102.58C57.57 102.58 58.08 102.06 59.08 101.04C59.08 101.04 59.15 101.11 59.29 101.25C59.29 101.25 58.88 101.66 58.07 102.49C58.07 102.49 58.78 102.39 60.21 102.18ZM60.57 105.63C60.57 105.63 60.5 105.57 60.37 105.43C60.37 105.43 60.59 105.2 61.04 104.73C61.04 104.73 60.74 104.43 60.14 103.81C60.14 103.81 59.91 104.04 59.46 104.5C59.46 104.5 59.39 104.43 59.25 104.29C59.25 104.29 59.76 103.78 60.77 102.75C60.77 102.75 60.83 102.82 60.97 102.96C60.97 102.96 60.75 103.18 60.32 103.62C60.32 103.62 60.62 103.93 61.23 104.55C61.23 104.55 61.45 104.32 61.88 103.88C61.88 103.88 61.95 103.95 62.08 104.09C62.08 104.09 61.58 104.61 60.57 105.63ZM63.56 105.6C63.56 105.6 63.63 105.66 63.76 105.8C63.76 105.8 63.26 106.32 62.25 107.35C62.25 107.35 62.18 107.28 62.04 107.14C62.04 107.14 62.45 106.72 63.27 105.89C63.27 105.89 62.55 105.99 61.12 106.2C61.12 106.2 61.05 106.13 60.92 105.99C60.92 105.99 61.42 105.47 62.43 104.45C62.43 104.45 62.5 104.52 62.64 104.66C62.64 104.66 62.23 105.07 61.41 105.9C61.41 105.9 62.13 105.8 63.56 105.6ZM64.24 107.75C64.24 107.75 64.42 107.57 64.77 107.21C64.77 107.21 64.65 107.09 64.42 106.85C64.18 106.6 63.97 106.57 63.79 106.75C63.61 106.93 63.64 107.14 63.89 107.39C63.89 107.39 64.01 107.51 64.24 107.75ZM63.72 107.6C63.72 107.6 63.37 107.66 62.68 107.79C62.68 107.79 62.6 107.71 62.45 107.55C62.45 107.55 62.8 107.48 63.52 107.36C63.43 107.21 63.39 107.07 63.4 106.92C63.41 106.78 63.47 106.65 63.58 106.54C63.71 106.41 63.87 106.34 64.05 106.35C64.23 106.36 64.4 106.45 64.55 106.61L65.16 107.23L63.65 108.77C63.65 108.77 63.58 108.7 63.44 108.56C63.44 108.56 63.65 108.35 64.06 107.94C64.06 107.94 63.94 107.83 63.72 107.6ZM66.97 109.07C66.97 109.07 67.04 109.14 67.18 109.28C67.18 109.28 66.95 109.52 66.49 109.98C66.49 109.98 66.92 109.95 67.77 109.89C67.77 109.89 67.86 109.98 68.03 110.15C68.03 110.15 67.57 110.18 66.65 110.24C66.65 110.24 66.6 110.73 66.52 111.7C66.52 111.7 66.43 111.61 66.26 111.43C66.26 111.43 66.3 110.99 66.39 110.09C66.39 110.09 66.15 110.33 65.66 110.83C65.66 110.83 65.6 110.76 65.46 110.62C65.46 110.62 65.7 110.37 66.18 109.88C66.18 109.88 65.74 109.92 64.86 110.01C64.86 110.01 64.77 109.92 64.6 109.74C64.6 109.74 65.08 109.7 66.03 109.61C66.03 109.61 66.06 109.14 66.12 108.2C66.12 108.2 66.2 108.29 66.37 108.47C66.37 108.47 66.34 108.9 66.29 109.77C66.29 109.77 66.51 109.54 66.97 109.07ZM69.35 111.5C69.35 111.5 69.42 111.56 69.55 111.7C69.55 111.7 69.05 112.22 68.04 113.25C68.04 113.25 67.97 113.18 67.83 113.04C67.83 113.04 68.24 112.62 69.06 111.79C69.06 111.79 68.34 111.89 66.91 112.1C66.91 112.1 66.84 112.03 66.71 111.89C66.71 111.89 67.21 111.37 68.22 110.35C68.22 110.35 68.29 110.42 68.43 110.56C68.43 110.56 68.02 110.97 67.2 111.8C67.2 111.8 67.92 111.7 69.35 111.5ZM69.47 113.25L69.64 113.08C69.77 113.21 69.89 113.29 70 113.31C70.11 113.34 70.21 113.31 70.29 113.23C70.35 113.17 70.37 113.08 70.36 112.98C70.35 112.88 70.31 112.79 70.23 112.71C70.15 112.63 70.07 112.59 69.97 112.58C69.88 112.57 69.8 112.6 69.73 112.66L69.52 112.45C69.64 112.33 69.79 112.28 69.96 112.29C70.14 112.31 70.29 112.38 70.42 112.52C70.56 112.66 70.64 112.82 70.65 113C70.66 113.17 70.61 113.32 70.49 113.44C70.42 113.52 70.33 113.56 70.23 113.58C70.12 113.59 70.02 113.58 69.93 113.52C70 113.65 70.03 113.77 70.03 113.9C70.03 114.02 69.98 114.13 69.88 114.23C69.75 114.36 69.58 114.42 69.38 114.41C69.18 114.39 69 114.3 68.84 114.14C68.69 113.98 68.6 113.8 68.58 113.6C68.57 113.39 68.62 113.22 68.75 113.08L68.96 113.29C68.88 113.38 68.85 113.49 68.86 113.61C68.87 113.73 68.93 113.84 69.03 113.94C69.13 114.05 69.24 114.1 69.37 114.12C69.49 114.13 69.59 114.1 69.67 114.02C69.75 113.94 69.78 113.83 69.75 113.7C69.73 113.56 69.63 113.41 69.47 113.25ZM71.04 116.3C71.04 116.3 70.97 116.23 70.83 116.09C70.83 116.09 71.06 115.86 71.51 115.4C71.51 115.4 71.21 115.09 70.6 114.48C70.6 114.48 70.38 114.71 69.92 115.17C69.92 115.17 69.85 115.1 69.72 114.96C69.72 114.96 70.22 114.44 71.23 113.42C71.23 113.42 71.3 113.49 71.44 113.62C71.44 113.62 71.22 113.85 70.79 114.29C70.79 114.29 71.09 114.6 71.69 115.21C71.69 115.21 71.91 114.99 72.34 114.55C72.34 114.55 72.41 114.62 72.55 114.76C72.55 114.76 72.04 115.27 71.04 116.3ZM74.02 116.26C74.02 116.26 74.09 116.33 74.23 116.47C74.23 116.47 73.72 116.98 72.71 118.01C72.71 118.01 72.65 117.94 72.51 117.8C72.51 117.8 72.92 117.39 73.73 116.56C73.73 116.56 73.02 116.66 71.59 116.86C71.59 116.86 71.52 116.79 71.38 116.65C71.38 116.65 71.89 116.14 72.9 115.11C72.9 115.11 72.96 115.18 73.1 115.32C73.1 115.32 72.69 115.74 71.88 116.57C71.88 116.57 72.59 116.47 74.02 116.26Z" fill="#FFFFFF" fill-opacity="1.000000" fill-rule="nonzero"/>
			</g>
		</g>
		<rect id="card_matrix" rx="10.000000" width="159.741928" height="252.000000" transform="translate(4.000000 4.000000)" stroke="#D6BEFF" stroke-opacity="1.000000" stroke-width="8.000000"/>
	</g>
</svg>
