<svg width="52.000000" height="52.000000" viewBox="0 0 52 52" fill="none" xmlns="http://www.w3.org/2000/svg" xmlns:xlink="http://www.w3.org/1999/xlink">
	<desc>
			Created with Pixso.
	</desc>
	<defs>
		<clipPath id="clip87_9348">
			<rect id="check" rx="0.000000" width="51.000000" height="51.000000" transform="translate(0.500000 0.500000)" fill="white" fill-opacity="0"/>
		</clipPath>
	</defs>
	<rect id="check" rx="0.000000" width="51.000000" height="51.000000" transform="translate(0.500000 0.500000)" fill="#FFFFFF" fill-opacity="0"/>
	<g clip-path="url(#clip87_9348)">
		<path id="Vector" d="M45.87 20.88C45.11 20.08 44.31 19.26 44.02 18.53C43.74 17.87 43.72 16.77 43.71 15.7C43.68 13.72 43.64 11.47 42.08 9.91C40.52 8.35 38.27 8.31 36.29 8.28C35.23 8.27 34.12 8.25 33.46 7.97C32.74 7.68 31.91 6.88 31.11 6.12C29.71 4.77 28.12 3.25 26 3.25C23.87 3.25 22.28 4.77 20.88 6.12C20.08 6.88 19.26 7.68 18.53 7.97C17.87 8.25 16.77 8.27 15.7 8.28C13.72 8.31 11.47 8.35 9.91 9.91C8.35 11.47 8.32 13.72 8.28 15.7C8.27 16.77 8.25 17.87 7.97 18.53C7.68 19.25 6.88 20.08 6.12 20.88C4.77 22.28 3.25 23.87 3.25 26C3.25 28.12 4.77 29.71 6.12 31.11C6.88 31.91 7.68 32.73 7.97 33.46C8.25 34.12 8.27 35.23 8.28 36.29C8.31 38.27 8.35 40.52 9.91 42.08C11.47 43.64 13.72 43.68 15.7 43.71C16.77 43.72 17.87 43.74 18.53 44.02C19.25 44.31 20.08 45.11 20.88 45.87C22.28 47.22 23.87 48.75 26 48.75C28.12 48.75 29.71 47.22 31.11 45.87C31.91 45.11 32.73 44.31 33.46 44.02C34.12 43.74 35.23 43.72 36.29 43.71C38.27 43.68 40.52 43.64 42.08 42.08C43.64 40.52 43.68 38.27 43.71 36.29C43.72 35.23 43.74 34.12 44.02 33.46C44.31 32.74 45.11 31.91 45.87 31.11C47.22 29.71 48.75 28.12 48.75 26C48.75 23.87 47.22 22.28 45.87 20.88ZM35.27 22.27L23.89 33.64C23.74 33.8 23.56 33.92 23.37 34C23.17 34.08 22.96 34.12 22.75 34.12C22.53 34.12 22.32 34.08 22.12 34C21.93 33.92 21.75 33.8 21.6 33.64L16.72 28.77C16.42 28.46 16.24 28.05 16.24 27.62C16.24 27.19 16.42 26.78 16.72 26.47C17.03 26.17 17.44 25.99 17.87 25.99C18.3 25.99 18.71 26.17 19.02 26.47L22.75 30.2L32.97 19.97C33.12 19.82 33.3 19.7 33.5 19.62C33.7 19.54 33.91 19.49 34.12 19.49C34.33 19.49 34.54 19.54 34.74 19.62C34.94 19.7 35.12 19.82 35.27 19.97C35.42 20.12 35.54 20.3 35.62 20.5C35.7 20.7 35.75 20.91 35.75 21.12C35.75 21.33 35.7 21.54 35.62 21.74C35.54 21.94 35.42 22.12 35.27 22.27Z" fill="#5285EE" fill-opacity="1.000000" fill-rule="nonzero"/>
	</g>
</svg>
