<svg width="32.000000" height="32.000000" viewBox="0 0 32 32" fill="none" xmlns="http://www.w3.org/2000/svg" xmlns:xlink="http://www.w3.org/1999/xlink">
	<desc>
			Created with Pixso.
	</desc>
	<defs>
		<clipPath id="clip90_3667">
			<rect id="arrow_back" rx="7.500000" width="31.000000" height="31.000000" transform="translate(0.500000 0.500000)" fill="white" fill-opacity="0"/>
		</clipPath>
	</defs>
	<rect id="arrow_back" rx="7.500000" width="31.000000" height="31.000000" transform="translate(0.500000 0.500000)" fill="#transparent" fill-opacity="1.000000"/>
	<g clip-path="url(#clip90_3667)">
		<path id="Vector" d="M25.75 15.87C25.75 16.17 25.63 16.46 25.42 16.67C25.21 16.88 24.92 17 24.62 17L10.84 17L15.67 21.83C15.88 22.04 16 22.32 16 22.62C16 22.92 15.88 23.21 15.67 23.42C15.46 23.63 15.17 23.75 14.87 23.75C14.57 23.75 14.29 23.63 14.08 23.42L7.33 16.67C7.22 16.56 7.14 16.44 7.08 16.3C7.02 16.17 7 16.02 7 15.87C7 15.72 7.02 15.58 7.08 15.44C7.14 15.3 7.22 15.18 7.33 15.08L14.08 8.33C14.18 8.22 14.3 8.14 14.44 8.08C14.58 8.02 14.72 8 14.87 8C15.02 8 15.17 8.02 15.3 8.08C15.44 8.14 15.57 8.22 15.67 8.33C15.77 8.43 15.86 8.55 15.91 8.69C15.97 8.83 16 8.97 16 9.12C16 9.27 15.97 9.42 15.91 9.55C15.86 9.69 15.77 9.81 15.67 9.92L10.84 14.75L24.62 14.75C24.92 14.75 25.21 14.86 25.42 15.08C25.63 15.29 25.75 15.57 25.75 15.87Z" fill="#FFFFFF" fill-opacity="1.000000" fill-rule="evenodd"/>
	</g>
</svg>
