<svg width="32" height="32" viewBox="0 0 32 32" fill="none" xmlns="http://www.w3.org/2000/svg">
<rect width="32" height="32" rx="8" fill="#5285EE"/>
<path d="M23.4238 21.8329C23.6352 22.0442 23.7539 22.3309 23.7539 22.6298C23.7539 22.9286 23.6352 23.2153 23.4238 23.4266C23.2125 23.638 22.9258 23.7567 22.627 23.7567C22.3281 23.7567 22.0414 23.638 21.8301 23.4266L15.8779 17.4726L9.92383 23.4248C9.71248 23.6361 9.42584 23.7548 9.12695 23.7548C8.82807 23.7548 8.54142 23.6361 8.33008 23.4248C8.11873 23.2134 8 22.9268 8 22.6279C8 22.329 8.11873 22.0424 8.33008 21.831L14.2841 15.8788L8.33195 9.92476C8.12061 9.71342 8.00188 9.42677 8.00188 9.12789C8.00188 8.829 8.12061 8.54236 8.33195 8.33101C8.5433 8.11967 8.82994 8.00094 9.12883 8.00094C9.42771 8.00094 9.71436 8.11967 9.9257 8.33101L15.8779 14.2851L21.832 8.33008C22.0433 8.11873 22.3299 8 22.6288 8C22.9277 8 23.2144 8.11873 23.4257 8.33008C23.637 8.54142 23.7558 8.82807 23.7558 9.12695C23.7558 9.42584 23.637 9.71248 23.4257 9.92383L17.4716 15.8788L23.4238 21.8329Z" fill="white"/>
</svg>
