<svg width="24.000000" height="24.000000" viewBox="0 0 24 24" fill="none" xmlns="http://www.w3.org/2000/svg" xmlns:xlink="http://www.w3.org/1999/xlink">
	<desc>
			Created with Pixso.
	</desc>
	<defs>
		<clipPath id="clip14_44331">
			<rect id="vk-svgrepo-com 1" rx="0.000000" width="23.000000" height="23.000000" transform="translate(0.500000 0.500000)" fill="white" fill-opacity="0"/>
		</clipPath>
	</defs>
	<rect id="vk-svgrepo-com 1" rx="0.000000" width="23.000000" height="23.000000" transform="translate(0.500000 0.500000)" fill="#FFFFFF" fill-opacity="0"/>
	<g clip-path="url(#clip14_44331)">
		<path id="Vector" d="M18.91 16.8L17.27 16.8C16.65 16.8 16.46 16.3 15.35 15.18C14.38 14.24 13.96 14.11 13.72 14.11C13.38 14.11 13.29 14.21 13.29 14.67L13.29 16.15C13.29 16.54 13.16 16.78 12.11 16.78C10 16.64 8.18 15.49 7.13 13.81L7.11 13.78C5.89 12.26 4.99 10.43 4.54 8.42L4.53 8.34C4.53 8.1 4.62 7.88 5.08 7.88L6.72 7.88C7.13 7.88 7.29 8.07 7.45 8.51C8.25 10.84 9.6 12.89 10.16 12.89C10.37 12.89 10.46 12.8 10.46 12.27L10.46 9.86C10.4 8.75 9.81 8.65 9.81 8.26C9.82 8.04 9.99 7.87 10.21 7.87C10.21 7.87 10.22 7.87 10.22 7.88L10.22 7.88L12.8 7.88C13.14 7.88 13.27 8.07 13.27 8.48L13.27 11.73C13.27 12.08 13.43 12.21 13.53 12.21C13.73 12.21 13.91 12.08 14.29 11.7C15.08 10.74 15.75 9.63 16.27 8.44L16.3 8.35C16.41 8.08 16.67 7.89 16.98 7.89C16.99 7.89 17.01 7.89 17.02 7.89L17.02 7.89L18.65 7.89C19.14 7.89 19.26 8.15 19.14 8.5C18.49 9.94 17.75 11.18 16.9 12.33L16.94 12.27C16.76 12.56 16.7 12.69 16.94 13C17.11 13.24 17.68 13.73 18.07 14.18C18.62 14.72 19.08 15.36 19.43 16.06L19.45 16.1C19.61 16.56 19.37 16.8 18.91 16.8L18.91 16.8ZM15.45 0.75L8.54 0.75C2.24 0.75 0.75 2.24 0.75 8.54L0.75 15.45C0.75 21.75 2.24 23.24 8.54 23.24L15.45 23.24C21.75 23.24 23.24 21.75 23.24 15.45L23.24 8.54C23.24 2.24 21.73 0.75 15.45 0.75Z" fill="#FFFFFF" fill-opacity="1.000000" fill-rule="nonzero"/>
	</g>
</svg>
