<svg width="32.000000" height="32.000000" viewBox="0 0 32 32" fill="none" xmlns="http://www.w3.org/2000/svg" xmlns:xlink="http://www.w3.org/1999/xlink">
	<desc>
			Created with Pixso.
	</desc>
	<defs>
		<clipPath id="clip86_4540">
			<rect id="arrow" rx="0.000000" width="31.000000" height="31.000000" transform="translate(0.500000 0.500000)" fill="white" fill-opacity="0"/>
		</clipPath>
	</defs>
	<rect id="arrow" rx="0.000000" width="31.000000" height="31.000000" transform="translate(0.500000 0.500000)" fill="#FFFFFF" fill-opacity="0"/>
	<g clip-path="url(#clip86_4540)">
		<path id="Vector" d="M29.5 24.99C29.5 25.39 29.34 25.77 29.06 26.06C28.77 26.34 28.39 26.49 28 26.49C27.6 26.49 27.22 26.34 26.93 26.06C26.65 25.77 26.5 25.39 26.5 24.99C26.49 22.21 25.38 19.54 23.42 17.57C21.45 15.61 18.78 14.5 16 14.49L7.62 14.49L11.06 17.93C11.34 18.22 11.5 18.6 11.5 19C11.5 19.39 11.34 19.78 11.06 20.06C10.78 20.34 10.4 20.5 10 20.5C9.6 20.5 9.22 20.34 8.94 20.06L2.94 14.06C2.8 13.92 2.68 13.75 2.61 13.57C2.53 13.39 2.49 13.19 2.49 13C2.49 12.8 2.53 12.6 2.61 12.42C2.68 12.24 2.8 12.07 2.94 11.93L8.94 5.93C9.07 5.79 9.24 5.68 9.42 5.61C9.6 5.53 9.8 5.49 10 5.49C10.19 5.49 10.39 5.53 10.57 5.61C10.75 5.68 10.92 5.79 11.06 5.93C11.2 6.07 11.31 6.24 11.39 6.42C11.46 6.6 11.5 6.8 11.5 7C11.5 7.19 11.46 7.39 11.39 7.57C11.31 7.75 11.2 7.92 11.06 8.06L7.62 11.49L16 11.49C19.57 11.5 23.01 12.92 25.54 15.45C28.07 17.98 29.49 21.42 29.5 24.99Z" fill="#FFFFFF" fill-opacity="1.000000" fill-rule="nonzero"/>
	</g>
</svg>
