<svg width="32.000000" height="32.000000" viewBox="0 0 32 32" fill="none" xmlns="http://www.w3.org/2000/svg" xmlns:xlink="http://www.w3.org/1999/xlink">
	<desc>
			Created with Pixso.
	</desc>
	<defs>
		<clipPath id="clip86_4541">
			<rect id="arrow" rx="0.000000" width="31.000000" height="31.000000" transform="translate(0.500000 0.500000)" fill="white" fill-opacity="0"/>
		</clipPath>
	</defs>
	<rect id="arrow" rx="0.000000" width="31.000000" height="31.000000" transform="translate(0.500000 0.500000)" fill="#FFFFFF" fill-opacity="0"/>
	<g clip-path="url(#clip86_4541)">
		<path id="Vector" d="M29.06 14.06L23.06 20.06C22.77 20.34 22.39 20.5 21.99 20.5C21.6 20.5 21.21 20.34 20.93 20.06C20.65 19.77 20.49 19.39 20.49 18.99C20.49 18.6 20.65 18.21 20.93 17.93L24.37 14.5L16 14.5C13.21 14.5 10.54 15.61 8.57 17.57C6.61 19.54 5.5 22.21 5.5 25C5.5 25.39 5.34 25.77 5.06 26.06C4.77 26.34 4.39 26.5 4 26.5C3.6 26.5 3.22 26.34 2.93 26.06C2.65 25.77 2.5 25.39 2.5 25C2.5 21.42 3.92 17.98 6.45 15.45C8.98 12.92 12.42 11.5 16 11.5L24.37 11.5L20.93 8.05C20.65 7.77 20.49 7.39 20.49 6.99C20.49 6.59 20.65 6.21 20.93 5.93C21.22 5.65 21.6 5.49 22 5.49C22.39 5.49 22.78 5.65 23.06 5.93L29.06 11.93C29.2 12.07 29.31 12.24 29.39 12.42C29.46 12.6 29.5 12.8 29.5 12.99C29.5 13.19 29.46 13.39 29.38 13.57C29.31 13.75 29.2 13.92 29.06 14.06Z" fill="#FFFFFF" fill-opacity="1.000000" fill-rule="nonzero"/>
	</g>
</svg>
