<svg width="37.000000" height="24.000000" viewBox="0 0 37 24" fill="none" xmlns="http://www.w3.org/2000/svg" xmlns:xlink="http://www.w3.org/1999/xlink">
	<desc>
			Created with Pixso.
	</desc>
	<defs/>
	<path id="“" d="M12.22 0L12.22 1.9C9.45 3.33 7.47 4.82 6.27 6.37C5.08 7.92 4.48 9.61 4.48 11.44C4.48 12.52 4.64 13.27 4.95 13.67C5.23 14.1 5.58 14.32 5.99 14.32C6.4 14.32 6.95 14.21 7.64 14C8.33 13.75 8.96 13.62 9.53 13.62C10.82 13.62 11.93 14.1 12.88 15.06C13.85 16 14.34 17.14 14.34 18.51C14.34 20 13.76 21.28 12.6 22.37C11.43 23.42 9.98 23.95 8.25 23.95C6.15 23.95 4.24 23.05 2.54 21.25C0.84 19.45 0 17.24 0 14.6C0 11.5 1.03 8.62 3.11 5.95C5.22 3.25 8.25 1.27 12.22 0ZM34.73 0.13L34.73 1.9C31.55 3.7 29.46 5.31 28.45 6.74C27.45 8.17 26.94 9.84 26.94 11.76C26.94 12.63 27.12 13.28 27.46 13.72C27.81 14.15 28.17 14.37 28.55 14.37C28.89 14.37 29.41 14.24 30.1 14C30.8 13.75 31.49 13.62 32.18 13.62C33.47 13.62 34.59 14.09 35.53 15.02C36.51 15.92 37 17.03 37 18.37C37 19.89 36.38 21.2 35.15 22.32C33.96 23.44 32.48 24 30.72 24C28.64 24 26.77 23.11 25.1 21.34C23.43 19.58 22.6 17.37 22.6 14.74C22.6 11.48 23.65 8.52 25.76 5.86C27.87 3.16 30.86 1.25 34.73 0.13Z" fill="#FFFFFF" fill-opacity="1.000000" fill-rule="evenodd"/>
</svg>
