<svg width="335" height="349" viewBox="0 0 335 349" fill="none" xmlns="http://www.w3.org/2000/svg">
<path d="M311.154 173.83L167.493 27.3677L24.3139 173.34L167.974 319.803L311.154 173.83Z" stroke="white"/>
<path d="M34.2256 173.844H300.762" stroke="white"/>
<path d="M166.816 38.1541V309.539" stroke="white"/>
<path d="M63.2627 70.8911L266.954 276.659" stroke="#9BD1FF"/>
<path d="M267.646 70.8911L63.9541 276.659" stroke="#FF72BA"/>
<path d="M167.494 187.001C174.629 187.001 180.413 181.111 180.413 173.847C180.413 166.582 174.629 160.693 167.494 160.693C160.359 160.693 154.575 166.582 154.575 173.847C154.575 181.111 160.359 187.001 167.494 187.001Z" fill="#D6BEFF"/>
<path d="M167.493 181.462C171.624 181.462 174.973 178.053 174.973 173.847C174.973 169.641 171.624 166.231 167.493 166.231C163.363 166.231 160.014 169.641 160.014 173.847C160.014 178.053 163.363 181.462 167.493 181.462Z" fill="url(#paint0_linear_2_3432)"/>
<path d="M266.763 71.387H63.4651V277.69H266.763V71.387Z" stroke="white"/>
<path d="M167.186 16.0022H167.122C161.32 16.0022 156.617 20.7911 156.617 26.6984C156.617 32.6058 161.32 37.3946 167.122 37.3946H167.186C172.987 37.3946 177.691 32.6058 177.691 26.6984C177.691 20.7911 172.987 16.0022 167.186 16.0022Z" fill="white"/>
<path d="M167.186 16.0022H167.122C161.32 16.0022 156.617 20.7911 156.617 26.6984C156.617 32.6058 161.32 37.3946 167.122 37.3946H167.186C172.987 37.3946 177.691 32.6058 177.691 26.6984C177.691 20.7911 172.987 16.0022 167.186 16.0022Z" stroke="white" stroke-width="1.86001"/>
<path d="M163.931 30.4166C163.931 30.4166 163.931 28.1431 163.931 23.5961C163.931 23.5961 163.593 23.5961 162.918 23.5961C162.918 23.5961 162.918 23.1331 162.918 22.207C162.918 22.207 163.741 22.207 165.385 22.207C165.385 22.207 165.385 24.9436 165.385 30.4166C165.385 30.4166 164.9 30.4166 163.931 30.4166ZM170.037 30.4166C170.037 30.4166 170.037 28.1431 170.037 23.5961C170.037 23.5961 169.7 23.5961 169.025 23.5961C169.025 23.5961 169.025 23.1331 169.025 22.207C169.025 22.207 169.848 22.207 171.493 22.207C171.493 22.207 171.493 24.9436 171.493 30.4166C171.493 30.4166 171.008 30.4166 170.037 30.4166Z" fill="black"/>
<path d="M312.321 162.771H311.641C306.01 162.771 301.444 167.42 301.444 173.154V173.154C301.444 178.888 306.01 183.536 311.641 183.536H312.321C317.953 183.536 322.518 178.888 322.518 173.154V173.154C322.518 167.42 317.953 162.771 312.321 162.771Z" fill="white"/>
<path d="M312.321 162.771H311.641C306.01 162.771 301.444 167.42 301.444 173.154V173.154C301.444 178.888 306.01 183.536 311.641 183.536H312.321C317.953 183.536 322.518 178.888 322.518 173.154V173.154C322.518 167.42 317.953 162.771 312.321 162.771Z" stroke="white" stroke-width="1.86001"/>
<path d="M310.457 172.693C310.205 172.422 310.03 172.175 309.935 171.955C309.839 171.734 309.79 171.47 309.79 171.162C309.79 170.537 310.005 170.005 310.436 169.567C310.869 169.126 311.393 168.905 312.008 168.905C312.64 168.905 313.164 169.118 313.58 169.546C313.999 169.968 314.209 170.5 314.209 171.141C314.209 171.81 313.983 172.327 313.532 172.693C313.706 172.801 313.837 172.89 313.927 172.958C314.015 173.023 314.098 173.101 314.177 173.191C314.504 173.575 314.667 174.073 314.667 174.684C314.667 175.462 314.411 176.111 313.899 176.632C313.392 177.149 312.756 177.408 311.992 177.408C311.228 177.408 310.589 177.147 310.073 176.626C309.558 176.106 309.301 175.462 309.301 174.695C309.301 174.123 309.453 173.646 309.759 173.262C309.844 173.15 309.935 173.054 310.03 172.975C310.13 172.891 310.272 172.797 310.457 172.693ZM311.992 170.262C311.764 170.262 311.571 170.35 311.411 170.528C311.255 170.701 311.176 170.913 311.176 171.162C311.176 171.412 311.256 171.622 311.416 171.792C311.579 171.961 311.777 172.047 312.008 172.047C312.239 172.047 312.432 171.96 312.589 171.786C312.745 171.609 312.823 171.394 312.823 171.141C312.823 170.891 312.743 170.683 312.584 170.516C312.424 170.347 312.226 170.262 311.992 170.262ZM311.97 173.474C311.633 173.474 311.345 173.601 311.107 173.854C310.869 174.103 310.75 174.405 310.75 174.76C310.75 175.121 310.871 175.427 311.112 175.677C311.354 175.926 311.653 176.051 312.008 176.051C312.353 176.051 312.64 175.929 312.871 175.682C313.102 175.433 313.217 175.121 313.217 174.749C313.217 174.391 313.097 174.088 312.855 173.843C312.617 173.597 312.322 173.474 311.97 173.474Z" fill="black"/>
<path d="M167.186 310.233H167.122C161.32 310.233 156.617 315.022 156.617 320.93C156.617 326.837 161.32 331.626 167.122 331.626H167.186C172.987 331.626 177.691 326.837 177.691 320.93C177.691 315.022 172.987 310.233 167.186 310.233Z" fill="white"/>
<path d="M167.186 310.233H167.122C161.32 310.233 156.617 315.022 156.617 320.93C156.617 326.837 161.32 331.626 167.122 331.626H167.186C172.987 331.626 177.691 326.837 177.691 320.93C177.691 315.022 172.987 310.233 167.186 310.233Z" stroke="white" stroke-width="1.86001"/>
<path d="M163.642 325.036C163.642 325.036 163.642 322.763 163.642 318.216C163.642 318.216 163.305 318.216 162.629 318.216C162.629 318.216 162.629 317.753 162.629 316.827C162.629 316.827 163.452 316.827 165.097 316.827C165.097 316.827 165.097 319.564 165.097 325.036C165.097 325.036 164.612 325.036 163.642 325.036ZM167.26 322.6C167.26 322.6 168.498 320.676 170.975 316.827C170.975 316.827 171.382 316.827 172.195 316.827C172.195 316.827 172.195 318.712 172.195 322.481C172.195 322.481 172.48 322.481 173.048 322.481C173.048 322.481 173.048 322.922 173.048 323.805C173.048 323.805 172.763 323.805 172.195 323.805C172.195 323.805 172.195 324.216 172.195 325.036C172.195 325.036 171.712 325.036 170.746 325.036C170.746 325.036 170.746 324.626 170.746 323.805C170.746 323.805 169.584 323.805 167.26 323.805C167.26 323.805 167.26 323.403 167.26 322.6ZM170.746 322.481C170.746 322.481 170.746 321.425 170.746 319.312C170.746 319.312 170.076 320.368 168.737 322.481C168.737 322.481 169.406 322.481 170.746 322.481Z" fill="black"/>
<path d="M23.0383 163.464H22.9749C17.173 163.464 12.4697 168.253 12.4697 174.16C12.4697 180.067 17.173 184.856 22.9749 184.856H23.0383C28.8402 184.856 33.5435 180.067 33.5435 174.16C33.5435 168.253 28.8402 163.464 23.0383 163.464Z" fill="white"/>
<path d="M23.0383 163.464H22.9749C17.173 163.464 12.4697 168.253 12.4697 174.16C12.4697 180.067 17.173 184.856 22.9749 184.856H23.0383C28.8402 184.856 33.5435 180.067 33.5435 174.16C33.5435 168.253 28.8402 163.464 23.0383 163.464Z" stroke="white" stroke-width="1.86001"/>
<path d="M22.4098 174.312C22.4098 174.312 22.4098 173.838 22.4098 172.89C22.7579 172.879 23.0226 172.838 23.2038 172.765C23.5022 172.628 23.6515 172.387 23.6515 172.044C23.6515 171.816 23.5857 171.629 23.4543 171.485C23.3228 171.34 23.1523 171.268 22.9426 171.268C22.7402 171.268 22.5838 171.328 22.4737 171.447C22.3672 171.567 22.2978 171.755 22.2659 172.011H20.795C20.8234 171.664 20.8768 171.385 20.9549 171.176C21.0366 170.966 21.1681 170.767 21.3493 170.579C21.7649 170.134 22.2925 169.912 22.932 169.912C23.5538 169.912 24.0706 170.121 24.4828 170.54C24.8984 170.96 25.1063 171.487 25.1063 172.12C25.1063 172.438 25.0512 172.711 24.9411 172.939C24.8345 173.167 24.664 173.366 24.4295 173.536C25.2644 173.923 25.6818 174.63 25.6818 175.658C25.6818 176.454 25.426 177.112 24.9144 177.633C24.4028 178.153 23.7563 178.414 22.9746 178.414C22.2001 178.414 21.5535 178.168 21.0348 177.676C20.5161 177.184 20.2355 176.551 20.1929 175.777H21.6531C21.7028 176.168 21.8449 176.478 22.0793 176.71C22.3174 176.941 22.6123 177.057 22.964 177.057C23.3299 177.057 23.6319 176.929 23.87 176.672C24.1115 176.412 24.2323 176.085 24.2323 175.69C24.2323 175.271 24.0885 174.936 23.8006 174.686C23.5164 174.437 23.1328 174.312 22.6495 174.312H22.4098Z" fill="black"/>
<path d="M190.492 142.324C190.492 142.324 190.325 142.495 189.99 142.835C189.99 142.835 189.203 142.032 187.626 140.428C187.626 140.428 187.787 141.87 188.108 144.752C188.108 144.752 187.898 144.966 187.478 145.393C187.478 145.393 187.312 143.852 186.98 140.77C186.98 140.77 185.483 140.618 182.489 140.314C182.489 140.314 182.697 140.103 183.112 139.679C183.112 139.679 184.518 139.829 187.329 140.126C187.329 140.126 186.553 139.336 185.001 137.756C185.001 137.756 185.169 137.586 185.503 137.245C185.503 137.245 186.279 138.036 187.831 139.616C187.831 139.616 187.684 138.184 187.392 135.322C187.392 135.322 187.6 135.11 188.015 134.688C188.015 134.688 188.165 136.212 188.464 139.26C188.464 139.26 189.977 139.429 193.004 139.767C193.004 139.767 192.794 139.98 192.375 140.408C192.375 140.408 190.959 140.245 188.127 139.918C188.127 139.918 188.916 140.72 190.492 142.324ZM195.217 134.09C195.217 134.09 194.104 135.224 191.877 137.49C192.261 137.842 192.721 138.006 193.255 137.981C193.787 137.954 194.243 137.747 194.623 137.36C194.905 137.073 195.087 136.731 195.171 136.332C195.252 135.932 195.218 135.55 195.068 135.188L195.59 134.657C195.842 135.192 195.925 135.75 195.837 136.332C195.747 136.912 195.5 137.407 195.098 137.816C194.83 138.089 194.525 138.298 194.181 138.441C193.839 138.584 193.493 138.655 193.146 138.655C192.799 138.655 192.453 138.584 192.111 138.441C191.768 138.298 191.462 138.089 191.194 137.816C190.843 137.458 190.604 137.043 190.479 136.571C190.353 136.098 190.352 135.627 190.475 135.157C190.598 134.688 190.836 134.273 191.187 133.915C191.553 133.544 191.978 133.294 192.464 133.166C192.951 133.037 193.431 133.048 193.901 133.2C194.139 133.276 194.356 133.381 194.554 133.516C194.75 133.648 194.971 133.839 195.217 134.09ZM191.438 137.018L194.267 134.137C193.817 133.848 193.356 133.726 192.885 133.771C192.417 133.814 192.005 134.017 191.646 134.382C191.296 134.738 191.103 135.159 191.066 135.644C191.026 136.127 191.15 136.585 191.438 137.018ZM200.806 131.824C200.806 131.824 200.639 131.994 200.304 132.334C200.304 132.334 199.753 131.772 198.65 130.649C198.65 130.649 197.912 131.4 196.437 132.901C196.437 132.901 196.988 133.464 198.092 134.587C198.092 134.587 197.925 134.757 197.591 135.097C197.591 135.097 196.36 133.844 193.898 131.337C193.898 131.337 194.065 131.167 194.399 130.827C194.399 130.827 194.928 131.365 195.985 132.442C195.985 132.442 196.723 131.691 198.198 130.189C198.198 130.189 197.669 129.65 196.611 128.574C196.611 128.574 196.779 128.404 197.113 128.064C197.113 128.064 198.344 129.317 200.806 131.824ZM203.678 126.684C203.678 126.684 203.867 126.491 204.245 126.107C204.339 126.418 204.4 126.677 204.427 126.882C204.451 127.086 204.447 127.297 204.416 127.517C204.344 128.132 204.076 128.676 203.612 129.149C203.238 129.529 202.813 129.789 202.336 129.93C201.856 130.069 201.38 130.077 200.908 129.954C200.434 129.829 200.015 129.582 199.655 129.216C199.301 128.855 199.064 128.437 198.943 127.96C198.824 127.481 198.832 127.001 198.966 126.52C199.098 126.037 199.345 125.61 199.708 125.24C200.125 124.816 200.607 124.547 201.152 124.435C201.699 124.321 202.233 124.376 202.755 124.603L202.194 125.173C201.81 125.072 201.442 125.068 201.093 125.16C200.743 125.252 200.432 125.436 200.16 125.714C199.748 126.132 199.544 126.632 199.546 127.211C199.55 127.789 199.761 128.289 200.176 128.712C200.587 129.131 201.078 129.34 201.65 129.34C202.222 129.335 202.715 129.122 203.13 128.698C203.395 128.43 203.567 128.143 203.648 127.836C203.732 127.527 203.741 127.143 203.678 126.684ZM202.332 122.75C202.332 122.75 202.5 122.58 202.833 122.24C202.833 122.24 203.382 122.798 204.479 123.915C204.479 123.915 204.493 122.784 204.522 120.521C204.522 120.521 204.738 120.301 205.168 119.863C205.168 119.863 205.15 121.095 205.112 123.559C205.112 123.559 206.362 123.58 208.861 123.623C208.861 123.623 208.644 123.844 208.208 124.288C208.208 124.288 207.068 124.267 204.786 124.227C204.786 124.227 205.366 124.818 206.526 125.999C206.526 125.999 206.36 126.17 206.025 126.509C206.025 126.509 204.795 125.256 202.332 122.75ZM208.38 116.593C208.38 116.593 208.546 116.424 208.878 116.086C208.878 116.086 210.109 117.339 212.571 119.846C212.571 119.846 212.405 120.015 212.073 120.353C212.073 120.353 211.078 119.34 209.089 117.315C209.089 117.315 209.334 119.091 209.824 122.642C209.824 122.642 209.657 122.813 209.323 123.152C209.323 123.152 208.092 121.899 205.63 119.393C205.63 119.393 205.797 119.223 206.131 118.882C206.131 118.882 207.126 119.895 209.115 121.92C209.115 121.92 208.87 120.144 208.38 116.593ZM208.984 113.239C208.984 113.239 209.149 113.071 209.482 112.732C209.859 113.117 210.225 113.13 210.576 112.773C210.928 112.414 210.915 112.043 210.536 111.658L211.034 111.151C211.279 111.502 211.383 111.843 211.35 112.171C211.32 112.498 211.165 112.804 210.886 113.088C210.607 113.372 210.305 113.531 209.983 113.565C209.661 113.596 209.328 113.487 208.984 113.239ZM212.481 112.416C212.481 112.416 212.648 112.248 212.979 111.91C212.979 111.91 214.211 113.163 216.672 115.669C216.672 115.669 216.507 115.839 216.174 116.176C216.174 116.176 215.18 115.164 213.191 113.138C213.191 113.138 213.436 114.914 213.926 118.466C213.926 118.466 213.759 118.636 213.425 118.976C213.425 118.976 212.194 117.723 209.732 115.216C209.732 115.216 209.899 115.047 210.233 114.706C210.233 114.706 211.228 115.719 213.217 117.744C213.217 117.744 212.972 115.968 212.481 112.416ZM215.707 109.133C215.707 109.133 215.874 108.963 216.207 108.623C216.207 108.623 216.419 108.838 216.841 109.268C216.76 108.871 216.78 108.486 216.904 108.109C217.029 107.732 217.251 107.38 217.57 107.056C217.933 106.686 218.347 106.437 218.813 106.307C219.278 106.177 219.745 106.177 220.211 106.307C220.676 106.432 221.091 106.679 221.454 107.049C221.812 107.413 222.054 107.834 222.179 108.311C222.303 108.785 222.298 109.262 222.166 109.741C222.036 110.218 221.79 110.64 221.428 111.01C221.122 111.321 220.784 111.54 220.415 111.665C220.046 111.785 219.662 111.809 219.265 111.735L221.197 113.702L220.696 114.212L215.707 109.133ZM217.988 107.562C217.582 107.977 217.382 108.471 217.388 109.046C217.395 109.621 217.606 110.121 218.021 110.543C218.436 110.967 218.927 111.179 219.492 111.181C220.054 111.181 220.544 110.97 220.96 110.547C221.375 110.124 221.582 109.63 221.582 109.066C221.582 108.498 221.375 108.002 220.96 107.579C220.524 107.136 220.027 106.915 219.469 106.915C218.91 106.91 218.417 107.126 217.988 107.562ZM222.038 102.507C222.396 102.142 222.804 101.899 223.26 101.778C223.718 101.653 224.177 101.659 224.636 101.795C225.097 101.929 225.511 102.183 225.879 102.557C226.433 103.121 226.714 103.77 226.723 104.504C226.732 105.238 226.465 105.882 225.921 106.434C225.55 106.812 225.13 107.07 224.662 107.207C224.194 107.343 223.727 107.348 223.26 107.223C222.797 107.096 222.383 106.846 222.018 106.475C221.457 105.904 221.179 105.245 221.183 104.497C221.186 103.747 221.47 103.084 222.038 102.507ZM222.457 103.013C222.052 103.425 221.857 103.912 221.873 104.474C221.886 105.033 222.106 105.53 222.532 105.965C222.954 106.394 223.441 106.61 223.992 106.612C224.545 106.614 225.03 106.403 225.447 105.978C225.853 105.564 226.051 105.086 226.037 104.544C226.024 103.998 225.806 103.509 225.381 103.077C224.946 102.634 224.455 102.407 223.907 102.396C223.357 102.382 222.874 102.588 222.457 103.013ZM231.557 100.516C231.557 100.516 230.476 101.616 228.316 103.816C228.316 103.816 228.538 104.167 228.982 104.87C228.982 104.87 228.867 104.986 228.639 105.219C228.639 105.219 228.205 104.777 227.336 103.893C227.336 103.893 227.496 103.731 227.815 103.406C227.815 103.406 227.196 101.836 225.958 98.6959C225.958 98.6959 226.147 98.504 226.525 98.1187C226.525 98.1187 228.068 98.749 231.151 100.009C231.151 100.009 231.311 99.8468 231.629 99.5219C231.629 99.5219 232.064 99.964 232.932 100.848C232.932 100.848 232.818 100.965 232.589 101.197C232.589 101.197 232.245 100.97 231.557 100.516ZM230.624 100.546C230.624 100.546 229.352 100.026 226.809 98.985C226.809 98.985 227.32 100.28 228.342 102.869C228.342 102.869 229.103 102.095 230.624 100.546Z" fill="white"/>
<path d="M10.7761 199.574C10.7761 199.574 12.374 199.574 15.5697 199.574C15.5697 199.574 14.7708 197.669 13.1729 193.858C13.1729 193.858 12.374 195.763 10.7761 199.574ZM17.0525 199.574C17.0525 199.574 17.0525 200.233 17.0525 201.549C17.0525 201.549 16.8862 201.549 16.5535 201.549C16.5535 201.549 16.4649 201.107 16.2877 200.225C16.2877 200.225 14.2128 200.225 10.0627 200.225C10.0627 200.225 9.97251 200.666 9.79222 201.549C9.79222 201.549 9.62749 201.549 9.29794 201.549C9.29794 201.549 9.29794 200.891 9.29794 199.574C9.29794 199.574 9.54042 199.574 10.0254 199.574C10.0254 199.574 10.9409 197.396 12.7719 193.041C12.7719 193.041 13.0392 193.041 13.5739 193.041C13.5739 193.041 14.491 195.219 16.3251 199.574C16.3251 199.574 16.5676 199.574 17.0525 199.574ZM22.5782 197.803C22.5782 197.803 21.0036 197.803 17.8545 197.803C17.8825 198.328 18.0939 198.775 18.4887 199.142C18.8835 199.506 19.3498 199.688 19.8876 199.688C20.2855 199.688 20.6523 199.577 20.9881 199.356C21.3238 199.131 21.5647 198.837 21.7108 198.473H22.4475C22.2549 199.033 21.9253 199.487 21.459 199.835C20.9927 200.181 20.4751 200.353 19.9062 200.353C19.527 200.353 19.1664 200.28 18.8244 200.134C18.4825 199.989 18.1887 199.791 17.9431 199.541C17.6975 199.291 17.5032 198.992 17.3603 198.644C17.2173 198.296 17.1457 197.928 17.1457 197.542C17.1457 197.036 17.2654 196.57 17.5048 196.146C17.7442 195.722 18.0706 195.388 18.484 195.145C18.8975 194.901 19.3529 194.779 19.8503 194.779C20.3663 194.779 20.8404 194.909 21.2725 195.168C21.7077 195.428 22.0388 195.78 22.2657 196.227C22.3807 196.452 22.4615 196.682 22.5082 196.92C22.5548 197.154 22.5782 197.449 22.5782 197.803ZM17.8732 197.153H21.874C21.7559 196.624 21.515 196.206 21.1513 195.899C20.7906 195.592 20.357 195.439 19.8503 195.439C19.356 195.439 18.927 195.597 18.5633 195.913C18.1996 196.227 17.9696 196.64 17.8732 197.153ZM28.1037 200.225C28.1037 200.225 27.8675 200.225 27.395 200.225C27.395 200.225 27.395 199.43 27.395 197.842C27.395 197.842 26.3521 197.842 24.2662 197.842C24.2662 197.842 24.2662 198.635 24.2662 200.225C24.2662 200.225 24.0298 200.225 23.5573 200.225C23.5573 200.225 23.5573 198.452 23.5573 194.907C23.5573 194.907 23.7936 194.907 24.2662 194.907C24.2662 194.907 24.2662 195.668 24.2662 197.191C24.2662 197.191 25.3091 197.191 27.395 197.191C27.395 197.191 27.395 196.429 27.395 194.907C27.395 194.907 27.6312 194.907 28.1037 194.907C28.1037 194.907 28.1037 196.679 28.1037 200.225ZM30.0109 197.685C30.0109 197.685 30.0109 198.314 30.0109 199.574C30.0109 199.574 30.4617 199.574 31.3632 199.574C32.2057 199.574 32.6269 199.259 32.6269 198.629C32.6269 197.999 32.2057 197.685 31.3632 197.685H30.0109ZM31.545 197.034C32.086 197.034 32.5196 197.184 32.846 197.485C33.1755 197.783 33.3403 198.164 33.3403 198.629C33.3403 199.095 33.1755 199.478 32.846 199.778C32.5196 200.076 32.086 200.225 31.545 200.225H29.3022V194.907H30.0109V197.034H31.545ZM0 212.174C0 212.174 0 209.779 0 204.99C0 204.99 0.648091 204.99 1.94442 204.99C2.40137 204.99 2.77441 205.018 3.06354 205.076C3.35576 205.133 3.61064 205.229 3.82826 205.365C4.09561 205.527 4.30237 205.764 4.44848 206.077C4.59458 206.387 4.66764 206.75 4.66764 207.165C4.66764 207.525 4.60698 207.848 4.48574 208.133C4.36449 208.418 4.19044 208.646 3.96351 208.817C3.74897 208.978 3.49717 209.094 3.20811 209.163C2.91898 209.233 2.53662 209.268 2.06097 209.268H0.704055V212.174H0ZM0.704055 208.613H2.01439C2.64855 208.613 3.10088 208.532 3.37131 208.371C3.55783 208.269 3.70085 208.112 3.80031 207.9C3.90285 207.688 3.95419 207.44 3.95419 207.155C3.95419 206.804 3.88576 206.511 3.74897 206.277C3.61225 206.039 3.41634 205.879 3.16146 205.797C2.85685 205.693 2.37189 205.64 1.70663 205.64H0.704055V208.613ZM7.93633 206.728C8.44309 206.728 8.90003 206.85 9.30726 207.094C9.71763 207.334 10.0378 207.668 10.2679 208.095C10.501 208.522 10.6176 209 10.6176 209.529C10.6176 210.327 10.3658 210.988 9.8622 211.513C9.3586 212.039 8.72283 212.302 7.95504 212.302C7.42965 212.302 6.954 212.182 6.52815 211.94C6.10223 211.7 5.76806 211.368 5.52557 210.944C5.28624 210.519 5.16654 210.045 5.16654 209.519C5.16654 208.712 5.42765 208.046 5.94996 207.521C6.47219 206.992 7.13436 206.728 7.93633 206.728ZM7.88044 207.388C7.30841 207.388 6.83276 207.592 6.45355 208C6.07428 208.405 5.88468 208.915 5.88468 209.529C5.88468 210.137 6.07897 210.64 6.46749 211.039C6.85608 211.438 7.34575 211.637 7.93633 211.637C8.51145 211.637 8.9824 211.441 9.34928 211.048C9.71917 210.652 9.90415 210.15 9.90415 209.539C9.90415 208.911 9.71455 208.398 9.33527 207.995C8.956 207.59 8.47103 207.388 7.88044 207.388ZM13.8443 206.856C13.8443 206.856 14.0806 206.856 14.5532 206.856C14.5532 206.856 14.5532 207.66 14.5532 209.268C14.5532 209.268 15.2401 208.464 16.6142 206.856C16.6142 206.856 16.9095 206.856 17.5002 206.856C17.5002 206.856 16.7556 207.719 15.2666 209.443C15.2666 209.443 16.0111 210.354 17.5002 212.174C17.5002 212.174 17.2048 212.174 16.6142 212.174C16.6142 212.174 15.9272 211.324 14.5532 209.624C14.5532 209.624 14.5532 210.474 14.5532 212.174C14.5532 212.174 14.3169 212.174 13.8443 212.174C13.8443 212.174 13.8443 211.324 13.8443 209.624C13.8443 209.624 13.1574 210.474 11.7833 212.174C11.7833 212.174 11.4865 212.174 10.8927 212.174C10.8927 212.174 11.6372 211.263 13.1263 209.443C13.1263 209.443 12.3817 208.581 10.8927 206.856C10.8927 206.856 11.1896 206.856 11.7833 206.856C11.7833 206.856 12.4703 207.66 13.8443 209.268C13.8443 209.268 13.8443 208.464 13.8443 206.856ZM23.0444 212.174C23.0444 212.174 21.5165 212.174 18.4607 212.174C18.4607 212.174 18.3736 212.582 18.1996 213.398C18.1996 213.398 18.0379 213.398 17.7146 213.398C17.7146 213.398 17.7146 212.773 17.7146 211.523C17.7146 211.523 17.94 211.523 18.3908 211.523C18.3908 211.523 19.0436 209.967 20.3492 206.856C20.3492 206.856 20.6166 206.856 21.1513 206.856C21.1513 206.856 21.8041 208.412 23.1097 211.523C23.1097 211.523 23.3351 211.523 23.7858 211.523C23.7858 211.523 23.7858 212.148 23.7858 213.398C23.7858 213.398 23.6242 213.398 23.3009 213.398C23.3009 213.398 23.2154 212.99 23.0444 212.174ZM22.3636 211.523C22.3636 211.523 21.8258 210.239 20.7502 207.672C20.7502 207.672 20.2124 208.956 19.1368 211.523C19.1368 211.523 20.2124 211.523 22.3636 211.523ZM29.3162 209.752C29.3162 209.752 27.7416 209.752 24.5926 209.752C24.6205 210.277 24.8319 210.724 25.2267 211.091C25.6215 211.455 26.0878 211.637 26.6256 211.637C27.0235 211.637 27.3903 211.526 27.7261 211.305C28.0618 211.08 28.3027 210.786 28.4488 210.421H29.1856C28.9928 210.982 28.6633 211.436 28.197 211.784C27.7307 212.129 27.2132 212.302 26.6442 212.302C26.265 212.302 25.9044 212.229 25.5624 212.083C25.2205 211.938 24.9267 211.74 24.6812 211.49C24.4355 211.24 24.2412 210.941 24.0983 210.593C23.9553 210.244 23.8837 209.877 23.8837 209.491C23.8837 208.985 24.0034 208.519 24.2428 208.095C24.4822 207.671 24.8086 207.337 25.222 207.094C25.6355 206.85 26.0909 206.728 26.5883 206.728C27.1043 206.728 27.5784 206.858 28.0105 207.117C28.4457 207.377 28.7768 207.729 29.0037 208.176C29.1187 208.401 29.1995 208.631 29.2462 208.869C29.2928 209.103 29.3162 209.398 29.3162 209.752ZM24.6112 209.102H28.612C28.4939 208.573 28.253 208.155 27.8893 207.848C27.5286 207.541 27.095 207.388 26.5883 207.388C26.094 207.388 25.665 207.546 25.3013 207.862C24.9376 208.176 24.7076 208.589 24.6112 209.102ZM34.8418 212.174C34.8418 212.174 34.6055 212.174 34.133 212.174C34.133 212.174 34.133 211.379 34.133 209.79C34.133 209.79 33.0901 209.79 31.0042 209.79C31.0042 209.79 31.0042 210.584 31.0042 212.174C31.0042 212.174 30.7679 212.174 30.2953 212.174C30.2953 212.174 30.2953 210.401 30.2953 206.856C30.2953 206.856 30.5316 206.856 31.0042 206.856C31.0042 206.856 31.0042 207.617 31.0042 209.14C31.0042 209.14 32.0471 209.14 34.133 209.14C34.133 209.14 34.133 208.378 34.133 206.856C34.133 206.856 34.3692 206.856 34.8418 206.856C34.8418 206.856 34.8418 208.628 34.8418 212.174ZM39.9291 206.856C39.9291 206.856 40.1638 206.856 40.6332 206.856C40.6332 206.856 40.6332 208.628 40.6332 212.174C40.6332 212.174 40.3985 212.174 39.9291 212.174C39.9291 212.174 39.9291 210.741 39.9291 207.877C39.9291 207.877 38.8691 209.309 36.749 212.174C36.749 212.174 36.5126 212.174 36.0401 212.174C36.0401 212.174 36.0401 210.401 36.0401 206.856C36.0401 206.856 36.2764 206.856 36.749 206.856C36.749 206.856 36.749 208.288 36.749 211.153C36.749 211.153 37.809 209.72 39.9291 206.856ZM44.7553 209.372C44.7553 209.372 44.7553 208.75 44.7553 207.507C44.7553 207.507 44.3511 207.507 43.5429 207.507C42.7005 207.507 42.2792 207.818 42.2792 208.442C42.2792 209.062 42.7005 209.372 43.5429 209.372C43.5429 209.372 43.947 209.372 44.7553 209.372ZM43.5989 210.023C43.5989 210.023 43.1077 210.74 42.1254 212.174C42.1254 212.174 41.858 212.174 41.3233 212.174C41.3233 212.174 41.8269 211.438 42.8341 209.966C42.4394 209.874 42.1284 209.692 41.9015 209.42C41.6777 209.144 41.5658 208.818 41.5658 208.442C41.5658 207.982 41.729 207.605 42.0554 207.307C42.3849 207.006 42.8202 206.856 43.361 206.856H45.4594V212.174C45.4594 212.174 45.2247 212.174 44.7553 212.174C44.7553 212.174 44.7553 211.457 44.7553 210.023C44.7553 210.023 44.3698 210.023 43.5989 210.023Z" fill="white"/>
<path d="M306.694 193.691C306.694 193.691 305.78 193.691 303.952 193.691C303.952 193.691 303.952 195.869 303.952 200.225C303.952 200.225 303.718 200.225 303.248 200.225C303.248 200.225 303.248 197.83 303.248 193.041C303.248 193.041 304.397 193.041 306.694 193.041C306.694 193.041 306.694 193.258 306.694 193.691ZM309.095 194.779C309.602 194.779 310.059 194.901 310.466 195.145C310.876 195.385 311.197 195.719 311.427 196.146C311.66 196.573 311.776 197.051 311.776 197.58C311.776 198.378 311.525 199.039 311.021 199.564C310.518 200.09 309.882 200.353 309.114 200.353C308.588 200.353 308.113 200.233 307.687 199.992C307.261 199.751 306.927 199.419 306.684 198.995C306.445 198.57 306.326 198.096 306.326 197.57C306.326 196.763 306.587 196.097 307.109 195.572C307.631 195.043 308.293 194.779 309.095 194.779ZM309.04 195.439C308.467 195.439 307.991 195.643 307.612 196.051C307.233 196.456 307.044 196.966 307.044 197.58C307.044 198.188 307.238 198.691 307.626 199.09C308.015 199.489 308.505 199.688 309.095 199.688C309.67 199.688 310.141 199.492 310.508 199.099C310.878 198.703 311.063 198.201 311.063 197.59C311.063 196.963 310.873 196.449 310.494 196.046C310.115 195.641 309.63 195.439 309.04 195.439ZM317.209 200.225C317.209 200.225 315.681 200.225 312.625 200.225C312.625 200.225 312.538 200.633 312.364 201.449C312.364 201.449 312.202 201.449 311.879 201.449C311.879 201.449 311.879 200.824 311.879 199.574C311.879 199.574 312.105 199.574 312.555 199.574C312.555 199.574 313.208 198.019 314.513 194.907C314.513 194.907 314.781 194.907 315.316 194.907C315.316 194.907 315.969 196.463 317.274 199.574C317.274 199.574 317.499 199.574 317.95 199.574C317.95 199.574 317.95 200.199 317.95 201.449C317.95 201.449 317.788 201.449 317.466 201.449C317.466 201.449 317.38 201.041 317.209 200.225ZM316.528 199.574C316.528 199.574 315.99 198.29 314.915 195.724C314.915 195.724 314.377 197.007 313.301 199.574C313.301 199.574 314.377 199.574 316.528 199.574ZM288.974 212.174C288.974 212.174 288.974 209.779 288.974 204.99C288.974 204.99 289.622 204.99 290.919 204.99C291.376 204.99 291.749 205.018 292.038 205.076C292.33 205.133 292.585 205.229 292.803 205.365C293.07 205.527 293.277 205.764 293.423 206.077C293.569 206.387 293.642 206.75 293.642 207.165C293.642 207.525 293.582 207.848 293.46 208.133C293.339 208.418 293.165 208.646 292.938 208.817C292.724 208.978 292.472 209.094 292.182 209.163C291.893 209.233 291.511 209.268 291.035 209.268H289.678V212.174H288.974ZM289.678 208.613H290.989C291.623 208.613 292.075 208.532 292.346 208.371C292.532 208.269 292.675 208.112 292.775 207.9C292.878 207.688 292.929 207.44 292.929 207.155C292.929 206.804 292.86 206.511 292.724 206.277C292.586 206.039 292.391 205.879 292.136 205.797C291.831 205.693 291.346 205.64 290.681 205.64H289.678V208.613ZM296.911 206.728C297.418 206.728 297.875 206.85 298.282 207.094C298.692 207.334 299.012 207.668 299.243 208.095C299.475 208.522 299.592 209 299.592 209.529C299.592 210.327 299.34 210.988 298.837 211.513C298.333 212.039 297.697 212.302 296.929 212.302C296.404 212.302 295.929 212.182 295.503 211.94C295.077 211.7 294.743 211.368 294.5 210.944C294.261 210.519 294.141 210.045 294.141 209.519C294.141 208.712 294.402 208.046 294.925 207.521C295.447 206.992 296.109 206.728 296.911 206.728ZM296.855 207.388C296.283 207.388 295.807 207.592 295.428 208C295.049 208.405 294.859 208.915 294.859 209.529C294.859 210.137 295.053 210.64 295.442 211.039C295.831 211.438 296.321 211.637 296.911 211.637C297.486 211.637 297.957 211.441 298.324 211.048C298.694 210.652 298.879 210.15 298.879 209.539C298.879 208.911 298.689 208.398 298.31 207.995C297.93 207.59 297.446 207.388 296.855 207.388ZM302.819 206.856C302.819 206.856 303.055 206.856 303.528 206.856C303.528 206.856 303.528 207.66 303.528 209.268C303.528 209.268 304.215 208.464 305.589 206.856C305.589 206.856 305.884 206.856 306.475 206.856C306.475 206.856 305.73 207.719 304.241 209.443C304.241 209.443 304.986 210.354 306.475 212.174C306.475 212.174 306.179 212.174 305.589 212.174C305.589 212.174 304.901 211.324 303.528 209.624C303.528 209.624 303.528 210.474 303.528 212.174C303.528 212.174 303.291 212.174 302.819 212.174C302.819 212.174 302.819 211.324 302.819 209.624C302.819 209.624 302.132 210.474 300.758 212.174C300.758 212.174 300.461 212.174 299.867 212.174C299.867 212.174 300.612 211.263 302.101 209.443C302.101 209.443 301.357 208.581 299.867 206.856C299.867 206.856 300.164 206.856 300.758 206.856C300.758 206.856 301.445 207.66 302.819 209.268C302.819 209.268 302.819 208.464 302.819 206.856ZM312.019 212.174C312.019 212.174 310.491 212.174 307.435 212.174C307.435 212.174 307.348 212.582 307.174 213.398C307.174 213.398 307.012 213.398 306.689 213.398C306.689 213.398 306.689 212.773 306.689 211.523C306.689 211.523 306.915 211.523 307.365 211.523C307.365 211.523 308.018 209.967 309.323 206.856C309.323 206.856 309.591 206.856 310.126 206.856C310.126 206.856 310.779 208.412 312.084 211.523C312.084 211.523 312.309 211.523 312.76 211.523C312.76 211.523 312.76 212.148 312.76 213.398C312.76 213.398 312.598 213.398 312.276 213.398C312.276 213.398 312.19 212.99 312.019 212.174ZM311.338 211.523C311.338 211.523 310.801 210.239 309.725 207.672C309.725 207.672 309.187 208.956 308.111 211.523C308.111 211.523 309.187 211.523 311.338 211.523ZM318.291 209.752C318.291 209.752 316.716 209.752 313.567 209.752C313.595 210.277 313.806 210.724 314.201 211.091C314.596 211.455 315.062 211.637 315.6 211.637C315.998 211.637 316.365 211.526 316.701 211.305C317.037 211.08 317.277 210.786 317.423 210.421H318.16C317.967 210.982 317.638 211.436 317.172 211.784C316.705 212.129 316.188 212.302 315.619 212.302C315.24 212.302 314.879 212.229 314.537 212.083C314.195 211.938 313.901 211.74 313.655 211.49C313.41 211.24 313.216 210.941 313.073 210.593C312.93 210.244 312.858 209.877 312.858 209.491C312.858 208.985 312.978 208.519 313.217 208.095C313.457 207.671 313.783 207.337 314.197 207.094C314.61 206.85 315.066 206.728 315.563 206.728C316.079 206.728 316.553 206.858 316.985 207.117C317.42 207.377 317.751 207.729 317.978 208.176C318.093 208.401 318.174 208.631 318.22 208.869C318.267 209.103 318.291 209.398 318.291 209.752ZM313.586 209.102H317.587C317.469 208.573 317.227 208.155 316.863 207.848C316.503 207.541 316.07 207.388 315.563 207.388C315.069 207.388 314.64 207.546 314.276 207.862C313.912 208.176 313.682 208.589 313.586 209.102ZM323.816 212.174C323.816 212.174 323.58 212.174 323.107 212.174C323.107 212.174 323.107 211.379 323.107 209.79C323.107 209.79 322.064 209.79 319.979 209.79C319.979 209.79 319.979 210.584 319.979 212.174C319.979 212.174 319.742 212.174 319.27 212.174C319.27 212.174 319.27 210.401 319.27 206.856C319.27 206.856 319.506 206.856 319.979 206.856C319.979 206.856 319.979 207.617 319.979 209.14C319.979 209.14 321.021 209.14 323.107 209.14C323.107 209.14 323.107 208.378 323.107 206.856C323.107 206.856 323.344 206.856 323.816 206.856C323.816 206.856 323.816 208.628 323.816 212.174ZM328.903 206.856C328.903 206.856 329.138 206.856 329.607 206.856C329.607 206.856 329.607 208.628 329.607 212.174C329.607 212.174 329.373 212.174 328.903 212.174C328.903 212.174 328.903 210.741 328.903 207.877C328.903 207.877 327.843 209.309 325.724 212.174C325.724 212.174 325.487 212.174 325.014 212.174C325.014 212.174 325.014 210.401 325.014 206.856C325.014 206.856 325.251 206.856 325.724 206.856C325.724 206.856 325.724 208.288 325.724 211.153C325.724 211.153 326.784 209.72 328.903 206.856ZM333.73 209.372C333.73 209.372 333.73 208.75 333.73 207.507C333.73 207.507 333.325 207.507 332.517 207.507C331.675 207.507 331.254 207.818 331.254 208.442C331.254 209.062 331.675 209.372 332.517 209.372C332.517 209.372 332.921 209.372 333.73 209.372ZM332.574 210.023C332.574 210.023 332.082 210.74 331.1 212.174C331.1 212.174 330.832 212.174 330.298 212.174C330.298 212.174 330.802 211.438 331.809 209.966C331.414 209.874 331.103 209.692 330.876 209.42C330.652 209.144 330.54 208.818 330.54 208.442C330.54 207.982 330.703 207.605 331.03 207.307C331.36 207.006 331.795 206.856 332.335 206.856H334.434V212.174C334.434 212.174 334.199 212.174 333.73 212.174C333.73 212.174 333.73 211.457 333.73 210.023C333.73 210.023 333.344 210.023 332.574 210.023Z" fill="white"/>
<path d="M126.819 7.70857C126.819 7.70857 126.819 5.31409 126.819 0.525146C126.819 0.525146 127.184 0.525146 127.915 0.525146C127.915 0.525146 128.772 2.56354 130.484 6.64034C130.484 6.64034 131.338 4.60193 133.045 0.525146C133.045 0.525146 133.41 0.525146 134.141 0.525146C134.141 0.525146 134.141 2.91962 134.141 7.70857C134.141 7.70857 133.906 7.70857 133.436 7.70857C133.436 7.70857 133.436 5.57524 133.436 1.30853C133.436 1.30853 132.552 3.44188 130.783 7.70857C130.783 7.70857 130.578 7.70857 130.167 7.70857C130.167 7.70857 129.286 5.57524 127.523 1.30853C127.523 1.30853 127.523 3.44188 127.523 7.70857C127.523 7.70857 127.289 7.70857 126.819 7.70857ZM140.775 5.28719C140.775 5.28719 139.201 5.28719 136.052 5.28719C136.08 5.81265 136.292 6.25894 136.686 6.62607C137.081 6.99007 137.548 7.17206 138.085 7.17206C138.483 7.17206 138.85 7.06131 139.185 6.83973C139.521 6.61502 139.763 6.32063 139.909 5.95663H140.645C140.453 6.51689 140.123 6.9711 139.657 7.31926C139.19 7.66428 138.673 7.8368 138.103 7.8368C137.724 7.8368 137.364 7.76398 137.022 7.61836C136.68 7.47273 136.386 7.27497 136.141 7.02487C135.895 6.77484 135.701 6.47574 135.558 6.12758C135.415 5.77942 135.343 5.41222 135.343 5.02606C135.343 4.51963 135.463 4.05435 135.702 3.63021C135.942 3.20607 136.268 2.87214 136.681 2.62842C137.095 2.3847 137.55 2.26284 138.048 2.26284C138.564 2.26284 139.038 2.39262 139.47 2.65216C139.906 2.91171 140.236 3.26463 140.463 3.71092C140.578 3.93565 140.659 4.16671 140.706 4.4041C140.753 4.63833 140.775 4.93269 140.775 5.28719ZM136.071 4.63675H140.071C139.953 4.10815 139.713 3.69035 139.349 3.38332C138.988 3.0763 138.555 2.92279 138.048 2.92279C137.553 2.92279 137.124 3.08105 136.761 3.39757C136.397 3.71092 136.167 4.12398 136.071 4.63675ZM146.157 6.14177C146.157 6.14177 146.424 6.14177 146.959 6.14177C146.81 6.42981 146.673 6.65617 146.549 6.82076C146.424 6.98215 146.275 7.12935 146.101 7.26228C145.622 7.64524 145.055 7.8368 144.399 7.8368C143.871 7.8368 143.389 7.71492 142.953 7.47116C142.518 7.22427 142.176 6.88723 141.928 6.45991C141.679 6.02945 141.554 5.55463 141.554 5.03556C141.554 4.52596 141.677 4.0591 141.923 3.63495C142.171 3.21082 142.51 2.87689 142.939 2.63317C143.368 2.38628 143.839 2.26284 144.352 2.26284C144.943 2.26284 145.47 2.41952 145.933 2.73288C146.399 3.04623 146.738 3.47037 146.95 4.00529H146.157C145.955 3.65711 145.699 3.38966 145.388 3.20291C145.077 3.01616 144.728 2.92279 144.343 2.92279C143.761 2.92279 143.271 3.12853 142.87 3.54C142.471 3.95147 142.273 4.45632 142.273 5.05455C142.273 5.64641 142.475 6.14811 142.879 6.55961C143.286 6.96789 143.783 7.17206 144.371 7.17206C144.744 7.17206 145.066 7.09298 145.336 6.93465C145.61 6.7764 145.883 6.51211 146.157 6.14177ZM150.853 4.90737C150.853 4.90737 150.853 4.28541 150.853 3.04148C150.853 3.04148 150.448 3.04148 149.64 3.04148C148.797 3.04148 148.376 3.35325 148.376 3.9768C148.376 4.59718 148.797 4.90737 149.64 4.90737C149.64 4.90737 150.044 4.90737 150.853 4.90737ZM149.696 5.55784C149.696 5.55784 149.204 6.2747 148.222 7.70857C148.222 7.70857 147.955 7.70857 147.421 7.70857C147.421 7.70857 147.924 6.97267 148.932 5.50086C148.536 5.40905 148.225 5.22705 147.999 4.95485C147.775 4.67947 147.663 4.35346 147.663 3.9768C147.663 3.51785 147.826 3.1396 148.153 2.84208C148.482 2.54138 148.917 2.39103 149.458 2.39103H151.557V7.70857C151.557 7.70857 151.322 7.70857 150.853 7.70857C150.853 7.70857 150.853 6.99163 150.853 5.55784C150.853 5.55784 150.467 5.55784 149.696 5.55784ZM157.161 2.39103C157.161 2.39103 157.161 3.94673 157.161 7.0581C157.161 7.0581 157.444 7.0581 158.01 7.0581C158.01 7.0581 158.01 7.68325 158.01 8.93349C158.01 8.93349 157.848 8.93349 157.525 8.93349C157.525 8.93349 157.44 8.52521 157.269 7.70857C157.269 7.70857 155.765 7.70857 152.76 7.70857C152.76 7.70857 152.76 5.9361 152.76 2.39103C152.76 2.39103 152.996 2.39103 153.468 2.39103C153.468 2.39103 153.468 3.94673 153.468 7.0581C153.468 7.0581 154.465 7.0581 156.457 7.0581C156.457 7.0581 156.457 5.50242 156.457 2.39103C156.457 2.39103 156.692 2.39103 157.161 2.39103ZM161.475 7.70857C161.475 7.70857 161.475 5.31409 161.475 0.525146C161.475 0.525146 162.123 0.525146 163.419 0.525146C163.876 0.525146 164.249 0.553637 164.538 0.610611C164.83 0.667578 165.086 0.764118 165.303 0.900224C165.57 1.06165 165.777 1.29904 165.923 1.6124C166.069 1.92258 166.142 2.285 166.142 2.69964C166.142 3.06047 166.082 3.38332 165.961 3.66819C165.84 3.95306 165.665 4.18095 165.438 4.35188C165.223 4.5133 164.972 4.62883 164.683 4.69846C164.394 4.7681 164.012 4.80292 163.536 4.80292H162.179V7.70857H161.475ZM162.179 4.14772H163.489C164.123 4.14772 164.576 4.06701 164.846 3.90558C165.033 3.80429 165.176 3.64762 165.275 3.43555C165.377 3.22348 165.429 2.97501 165.429 2.69014C165.429 2.33881 165.361 2.04603 165.223 1.8118C165.087 1.57441 164.891 1.41457 164.636 1.33227C164.332 1.22782 163.847 1.17559 163.181 1.17559H162.179V4.14772ZM169.411 2.26284C169.918 2.26284 170.375 2.3847 170.782 2.62842C171.192 2.86897 171.513 3.20291 171.742 3.63021C171.976 4.05751 172.092 4.53546 172.092 5.06405C172.092 5.86171 171.841 6.52324 171.337 7.04862C170.833 7.57407 170.198 7.8368 169.43 7.8368C168.905 7.8368 168.429 7.71649 168.003 7.47594C167.577 7.23539 167.243 6.90306 167.001 6.47888C166.761 6.05476 166.641 5.57994 166.641 5.05455C166.641 4.24743 166.902 3.58115 167.425 3.05572C167.947 2.52714 168.609 2.26284 169.411 2.26284ZM169.355 2.92279C168.783 2.92279 168.308 3.12695 167.928 3.53526C167.549 3.9404 167.359 4.45 167.359 5.06405C167.359 5.6718 167.554 6.175 167.942 6.57387C168.331 6.97267 168.82 7.17206 169.411 7.17206C169.987 7.17206 170.457 6.9758 170.824 6.58335C171.194 6.1877 171.379 5.68442 171.379 5.07354C171.379 4.44683 171.189 3.93248 170.81 3.53051C170.431 3.12536 169.945 2.92279 169.355 2.92279ZM175.319 2.39103C175.319 2.39103 175.555 2.39103 176.028 2.39103C176.028 2.39103 176.028 3.19499 176.028 4.80292C176.028 4.80292 176.715 3.99896 178.089 2.39103C178.089 2.39103 178.384 2.39103 178.975 2.39103C178.975 2.39103 178.231 3.25355 176.741 4.97858C176.741 4.97858 177.486 5.8886 178.975 7.70857C178.975 7.70857 178.68 7.70857 178.089 7.70857C178.089 7.70857 177.402 6.8587 176.028 5.159C176.028 5.159 176.028 6.00883 176.028 7.70857C176.028 7.70857 175.792 7.70857 175.319 7.70857C175.319 7.70857 175.319 6.8587 175.319 5.159C175.319 5.159 174.632 6.00883 173.258 7.70857C173.258 7.70857 172.961 7.70857 172.367 7.70857C172.367 7.70857 173.112 6.79858 174.601 4.97858C174.601 4.97858 173.856 4.11607 172.367 2.39103C172.367 2.39103 172.664 2.39103 173.258 2.39103C173.258 2.39103 173.945 3.19499 175.319 4.80292C175.319 4.80292 175.319 3.99896 175.319 2.39103ZM184.519 7.70857C184.519 7.70857 182.991 7.70857 179.935 7.70857C179.935 7.70857 179.849 8.11685 179.674 8.93349C179.674 8.93349 179.513 8.93349 179.189 8.93349C179.189 8.93349 179.189 8.30841 179.189 7.0581C179.189 7.0581 179.415 7.0581 179.866 7.0581C179.866 7.0581 180.518 5.50242 181.824 2.39103C181.824 2.39103 182.091 2.39103 182.626 2.39103C182.626 2.39103 183.279 3.94673 184.585 7.0581C184.585 7.0581 184.81 7.0581 185.26 7.0581C185.26 7.0581 185.26 7.68325 185.26 8.93349C185.26 8.93349 185.099 8.93349 184.775 8.93349C184.775 8.93349 184.69 8.52521 184.519 7.70857ZM183.838 7.0581C183.838 7.0581 183.3 5.77464 182.225 3.20765C182.225 3.20765 181.688 4.49114 180.612 7.0581C180.612 7.0581 181.688 7.0581 183.838 7.0581ZM190.791 5.28719C190.791 5.28719 189.217 5.28719 186.067 5.28719C186.095 5.81265 186.307 6.25894 186.702 6.62607C187.096 6.99007 187.563 7.17206 188.1 7.17206C188.499 7.17206 188.865 7.06131 189.2 6.83973C189.536 6.61502 189.778 6.32063 189.924 5.95663H190.66C190.468 6.51689 190.138 6.9711 189.672 7.31926C189.206 7.66428 188.688 7.8368 188.119 7.8368C187.739 7.8368 187.379 7.76398 187.037 7.61836C186.695 7.47273 186.402 7.27497 186.156 7.02487C185.91 6.77484 185.716 6.47574 185.573 6.12758C185.43 5.77942 185.359 5.41222 185.359 5.02606C185.359 4.51963 185.478 4.05435 185.717 3.63021C185.957 3.20607 186.283 2.87214 186.697 2.62842C187.11 2.3847 187.566 2.26284 188.063 2.26284C188.579 2.26284 189.053 2.39262 189.485 2.65216C189.921 2.91171 190.251 3.26463 190.478 3.71092C190.593 3.93565 190.674 4.16671 190.721 4.4041C190.768 4.63833 190.791 4.93269 190.791 5.28719ZM186.086 4.63675H190.086C189.968 4.10815 189.728 3.69035 189.364 3.38332C189.003 3.0763 188.57 2.92279 188.063 2.92279C187.568 2.92279 187.139 3.08105 186.776 3.39757C186.413 3.71092 186.182 4.12398 186.086 4.63675ZM196.317 7.70857C196.317 7.70857 196.08 7.70857 195.608 7.70857C195.608 7.70857 195.608 6.91412 195.608 5.32518C195.608 5.32518 194.565 5.32518 192.479 5.32518C192.479 5.32518 192.479 6.11966 192.479 7.70857C192.479 7.70857 192.243 7.70857 191.77 7.70857C191.77 7.70857 191.77 5.9361 191.77 2.39103C191.77 2.39103 192.007 2.39103 192.479 2.39103C192.479 2.39103 192.479 3.15226 192.479 4.67473C192.479 4.67473 193.522 4.67473 195.608 4.67473C195.608 4.67473 195.608 3.91349 195.608 2.39103C195.608 2.39103 195.844 2.39103 196.317 2.39103C196.317 2.39103 196.317 4.16355 196.317 7.70857ZM201.404 2.39103C201.404 2.39103 201.639 2.39103 202.108 2.39103C202.108 2.39103 202.108 4.16355 202.108 7.70857C202.108 7.70857 201.873 7.70857 201.404 7.70857C201.404 7.70857 201.404 6.27634 201.404 3.41181C201.404 3.41181 200.344 4.84407 198.224 7.70857C198.224 7.70857 197.987 7.70857 197.515 7.70857C197.515 7.70857 197.515 5.9361 197.515 2.39103C197.515 2.39103 197.751 2.39103 198.224 2.39103C198.224 2.39103 198.224 3.82328 198.224 6.68776C198.224 6.68776 199.283 5.25554 201.404 2.39103ZM206.23 4.90737C206.23 4.90737 206.23 4.28541 206.23 3.04148C206.23 3.04148 205.826 3.04148 205.018 3.04148C204.175 3.04148 203.754 3.35325 203.754 3.9768C203.754 4.59718 204.175 4.90737 205.018 4.90737C205.018 4.90737 205.422 4.90737 206.23 4.90737ZM205.073 5.55784C205.073 5.55784 204.583 6.2747 203.6 7.70857C203.6 7.70857 203.333 7.70857 202.798 7.70857C202.798 7.70857 203.301 6.97267 204.309 5.50086C203.914 5.40905 203.604 5.22705 203.376 4.95485C203.152 4.67947 203.04 4.35346 203.04 3.9768C203.04 3.51785 203.204 3.1396 203.53 2.84208C203.859 2.54138 204.295 2.39103 204.836 2.39103H206.934V7.70857C206.934 7.70857 206.699 7.70857 206.23 7.70857C206.23 7.70857 206.23 6.99163 206.23 5.55784C206.23 5.55784 205.844 5.55784 205.073 5.55784Z" fill="white"/>
<path d="M121.925 346.247C121.925 346.247 120.859 345.131 118.726 342.9C118.726 342.9 118.726 344.016 118.726 346.247C118.726 346.247 118.491 346.247 118.022 346.247C118.022 346.247 118.022 343.852 118.022 339.063C118.022 339.063 118.257 339.063 118.726 339.063C118.726 339.063 118.726 340.161 118.726 342.358C118.726 342.358 119.798 341.26 121.944 339.063C121.944 339.063 122.256 339.063 122.881 339.063C122.881 339.063 121.72 340.249 119.398 342.62C119.398 342.62 120.559 343.829 122.881 346.247C122.881 346.247 122.562 346.247 121.925 346.247ZM128.477 340.929C128.477 340.929 128.477 342.702 128.477 346.247C128.477 346.247 128.241 346.247 127.768 346.247C127.768 346.247 127.768 345.935 127.768 345.311C127.491 345.691 127.198 345.963 126.887 346.128C126.579 346.293 126.204 346.375 125.763 346.375C125.231 346.375 124.751 346.256 124.322 346.018C123.896 345.778 123.562 345.447 123.319 345.027C123.077 344.603 122.955 344.128 122.955 343.602C122.955 343.077 123.076 342.6 123.315 342.173C123.554 341.746 123.884 341.41 124.303 341.166C124.723 340.923 125.191 340.801 125.706 340.801C126.163 340.801 126.555 340.886 126.882 341.057C127.212 341.225 127.506 341.496 127.768 341.869V340.929H128.477ZM125.698 341.461C125.138 341.461 124.661 341.667 124.266 342.078C123.871 342.49 123.674 342.988 123.674 343.573C123.674 344.172 123.876 344.679 124.28 345.093C124.684 345.505 125.175 345.71 125.753 345.71C126.323 345.71 126.799 345.506 127.185 345.098C127.573 344.686 127.768 344.178 127.768 343.573C127.768 342.969 127.57 342.466 127.176 342.064C126.781 341.662 126.288 341.461 125.698 341.461ZM129.675 340.929C129.675 340.929 129.911 340.929 130.384 340.929C130.384 340.929 130.384 341.233 130.384 341.841C130.602 341.502 130.884 341.244 131.232 341.067C131.584 340.889 131.985 340.801 132.435 340.801C132.948 340.801 133.415 340.923 133.834 341.166C134.254 341.41 134.584 341.746 134.823 342.173C135.066 342.597 135.187 343.07 135.187 343.593C135.187 344.109 135.066 344.58 134.823 345.007C134.581 345.432 134.246 345.765 133.82 346.01C133.398 346.253 132.93 346.375 132.417 346.375C131.985 346.375 131.595 346.287 131.246 346.109C130.902 345.929 130.614 345.669 130.384 345.331V348.113H129.675V340.929ZM132.38 341.461C131.805 341.461 131.32 341.667 130.924 342.078C130.53 342.49 130.332 342.995 130.332 343.593C130.332 344.191 130.531 344.694 130.93 345.102C131.327 345.508 131.82 345.71 132.407 345.71C132.995 345.71 133.485 345.511 133.877 345.112C134.271 344.71 134.468 344.21 134.468 343.612C134.468 342.985 134.271 342.47 133.877 342.069C133.485 341.664 132.985 341.461 132.38 341.461ZM136.185 346.247C136.185 346.247 136.185 344.474 136.185 340.929C136.185 340.929 136.552 340.929 137.285 340.929C137.285 340.929 137.893 342.368 139.108 345.245C139.108 345.245 139.716 343.806 140.931 340.929C140.931 340.929 141.296 340.929 142.027 340.929C142.027 340.929 142.027 342.702 142.027 346.247C142.027 346.247 141.792 346.247 141.323 346.247C141.323 346.247 141.323 344.737 141.323 341.718C141.323 341.718 140.686 343.227 139.411 346.247C139.411 346.247 139.207 346.247 138.8 346.247C138.8 346.247 138.164 344.737 136.893 341.718C136.893 341.718 136.893 343.227 136.893 346.247C136.893 346.247 136.657 346.247 136.185 346.247ZM147.124 340.929C147.124 340.929 147.358 340.929 147.828 340.929C147.828 340.929 147.828 342.702 147.828 346.247C147.828 346.247 147.593 346.247 147.124 346.247C147.124 346.247 147.124 344.815 147.124 341.95C147.124 341.95 146.064 343.382 143.943 346.247C143.943 346.247 143.707 346.247 143.235 346.247C143.235 346.247 143.235 344.474 143.235 340.929C143.235 340.929 143.471 340.929 143.943 340.929C143.943 340.929 143.943 342.361 143.943 345.226C143.943 345.226 145.004 343.794 147.124 340.929ZM152.826 340.929C152.826 340.929 152.826 342.702 152.826 346.247C152.826 346.247 152.592 346.247 152.122 346.247C152.122 346.247 152.122 345.541 152.122 344.129C151.594 344.193 151.046 344.224 150.476 344.224C150.306 344.224 150.124 344.197 149.931 344.143C149.739 344.087 149.583 344.013 149.465 343.925C149.064 343.644 148.863 343.183 148.863 342.544V340.929C148.863 340.929 149.1 340.929 149.572 340.929C149.572 340.929 149.572 341.467 149.572 342.544C149.572 342.756 149.592 342.924 149.632 343.051C149.676 343.178 149.755 343.282 149.871 343.365C149.986 343.444 150.133 343.5 150.314 343.531C150.497 343.559 150.739 343.573 151.04 343.573C151.318 343.573 151.678 343.544 152.122 343.484V340.929H152.826ZM159.266 343.825C159.266 343.825 157.692 343.825 154.543 343.825C154.571 344.351 154.782 344.797 155.176 345.164C155.572 345.529 156.038 345.71 156.576 345.71C156.973 345.71 157.34 345.6 157.676 345.378C158.012 345.153 158.253 344.859 158.399 344.495H159.136C158.943 345.055 158.613 345.509 158.147 345.857C157.681 346.202 157.163 346.375 156.594 346.375C156.215 346.375 155.854 346.302 155.512 346.157C155.171 346.011 154.876 345.813 154.631 345.563C154.386 345.313 154.191 345.014 154.048 344.666C153.905 344.317 153.834 343.951 153.834 343.564C153.834 343.058 153.954 342.592 154.193 342.169C154.432 341.745 154.758 341.41 155.172 341.166C155.586 340.923 156.041 340.801 156.539 340.801C157.054 340.801 157.529 340.93 157.961 341.19C158.396 341.45 158.727 341.803 158.954 342.249C159.069 342.474 159.15 342.705 159.197 342.942C159.243 343.176 159.266 343.471 159.266 343.825ZM154.561 343.175H158.562C158.444 342.647 158.203 342.228 157.84 341.922C157.479 341.615 157.045 341.461 156.539 341.461C156.044 341.461 155.615 341.619 155.251 341.936C154.887 342.249 154.658 342.662 154.561 343.175ZM164.647 344.68C164.647 344.68 164.915 344.68 165.449 344.68C165.3 344.968 165.163 345.194 165.039 345.359C164.915 345.52 164.766 345.668 164.591 345.8C164.112 346.184 163.545 346.375 162.89 346.375C162.361 346.375 161.879 346.253 161.444 346.01C161.009 345.762 160.666 345.426 160.418 344.998C160.169 344.567 160.045 344.092 160.045 343.573C160.045 343.064 160.168 342.597 160.413 342.173C160.662 341.749 161.001 341.415 161.43 341.171C161.859 340.925 162.33 340.801 162.843 340.801C163.433 340.801 163.96 340.957 164.423 341.271C164.89 341.585 165.229 342.009 165.44 342.544H164.647C164.445 342.196 164.189 341.927 163.878 341.741C163.567 341.554 163.219 341.461 162.833 341.461C162.252 341.461 161.761 341.667 161.36 342.078C160.962 342.49 160.763 342.995 160.763 343.593C160.763 344.184 160.965 344.686 161.369 345.098C161.776 345.506 162.274 345.71 162.862 345.71C163.234 345.71 163.556 345.631 163.827 345.473C164.101 345.314 164.374 345.051 164.647 344.68ZM166.429 340.929C166.429 340.929 166.665 340.929 167.137 340.929C167.137 340.929 167.137 341.719 167.137 343.299C167.137 343.299 167.933 342.508 169.525 340.929C169.525 340.929 169.83 340.929 170.438 340.929C170.438 340.929 169.57 341.787 167.832 343.503C167.832 343.503 168.701 344.417 170.438 346.247C170.438 346.247 170.131 346.247 169.516 346.247C169.516 346.247 168.723 345.411 167.137 343.74C167.137 343.74 167.137 344.576 167.137 346.247C167.137 346.247 166.901 346.247 166.429 346.247C166.429 346.247 166.429 344.474 166.429 340.929ZM173.484 340.801C173.991 340.801 174.448 340.923 174.855 341.166C175.265 341.407 175.585 341.741 175.815 342.169C176.048 342.596 176.165 343.074 176.165 343.602C176.165 344.4 175.913 345.061 175.409 345.587C174.906 346.112 174.27 346.375 173.502 346.375C172.977 346.375 172.502 346.255 172.076 346.014C171.649 345.774 171.316 345.441 171.073 345.017C170.834 344.593 170.714 344.118 170.714 343.593C170.714 342.786 170.975 342.119 171.498 341.594C172.02 341.065 172.681 340.801 173.484 340.801ZM173.428 341.461C172.856 341.461 172.38 341.665 172.001 342.073C171.622 342.479 171.432 342.988 171.432 343.602C171.432 344.21 171.626 344.713 172.015 345.112C172.403 345.511 172.893 345.71 173.484 345.71C174.059 345.71 174.53 345.514 174.896 345.122C175.267 344.726 175.452 344.222 175.452 343.612C175.452 342.985 175.262 342.47 174.882 342.069C174.503 341.664 174.018 341.461 173.428 341.461ZM182.404 343.825C182.404 343.825 180.829 343.825 177.681 343.825C177.709 344.351 177.92 344.797 178.314 345.164C178.709 345.529 179.175 345.71 179.713 345.71C180.111 345.71 180.478 345.6 180.814 345.378C181.15 345.153 181.391 344.859 181.537 344.495H182.274C182.081 345.055 181.751 345.509 181.285 345.857C180.818 346.202 180.301 346.375 179.732 346.375C179.353 346.375 178.992 346.302 178.65 346.157C178.309 346.011 178.014 345.813 177.769 345.563C177.524 345.313 177.329 345.014 177.186 344.666C177.043 344.317 176.971 343.951 176.971 343.564C176.971 343.058 177.091 342.592 177.331 342.169C177.57 341.745 177.896 341.41 178.31 341.166C178.724 340.923 179.178 340.801 179.676 340.801C180.192 340.801 180.666 340.93 181.099 341.19C181.534 341.45 181.864 341.803 182.092 342.249C182.207 342.474 182.288 342.705 182.334 342.942C182.381 343.176 182.404 343.471 182.404 343.825ZM177.699 343.175H181.7C181.582 342.647 181.341 342.228 180.977 341.922C180.617 341.615 180.183 341.461 179.676 341.461C179.182 341.461 178.753 341.619 178.389 341.936C178.025 342.249 177.795 342.662 177.699 343.175ZM189.822 340.929C189.822 340.929 189.822 342.702 189.822 346.247C189.822 346.247 189.588 346.247 189.118 346.247C189.118 346.247 189.118 345.541 189.118 344.129C188.59 344.193 188.042 344.224 187.472 344.224C187.302 344.224 187.12 344.197 186.927 344.143C186.735 344.087 186.579 344.013 186.461 343.925C186.06 343.644 185.86 343.183 185.86 342.544V340.929C185.86 340.929 186.096 340.929 186.568 340.929C186.568 340.929 186.568 341.467 186.568 342.544C186.568 342.756 186.588 342.924 186.629 343.051C186.672 343.178 186.751 343.282 186.867 343.365C186.982 343.444 187.129 343.5 187.31 343.531C187.493 343.559 187.735 343.573 188.037 343.573C188.314 343.573 188.674 343.544 189.118 343.484V340.929H189.822ZM194.919 340.929C194.919 340.929 195.154 340.929 195.623 340.929C195.623 340.929 195.623 342.702 195.623 346.247C195.623 346.247 195.389 346.247 194.919 346.247C194.919 346.247 194.919 344.815 194.919 341.95C194.919 341.95 193.86 343.382 191.739 346.247C191.739 346.247 191.503 346.247 191.031 346.247C191.031 346.247 191.031 344.474 191.031 340.929C191.031 340.929 191.267 340.929 191.739 340.929C191.739 340.929 191.739 342.361 191.739 345.226C191.739 345.226 192.8 343.794 194.919 340.929ZM201.233 344.68C201.233 344.68 201.501 344.68 202.035 344.68C201.886 344.968 201.749 345.194 201.625 345.359C201.501 345.52 201.351 345.668 201.177 345.8C200.698 346.184 200.131 346.375 199.475 346.375C198.947 346.375 198.465 346.253 198.029 346.01C197.594 345.762 197.253 345.426 197.004 344.998C196.755 344.567 196.631 344.092 196.631 343.573C196.631 343.064 196.754 342.597 196.999 342.173C197.248 341.749 197.587 341.415 198.015 341.171C198.444 340.925 198.915 340.801 199.429 340.801C200.019 340.801 200.546 340.957 201.009 341.271C201.476 341.585 201.815 342.009 202.026 342.544H201.233C201.031 342.196 200.775 341.927 200.464 341.741C200.153 341.554 199.805 341.461 199.419 341.461C198.838 341.461 198.347 341.667 197.946 342.078C197.548 342.49 197.349 342.995 197.349 343.593C197.349 344.184 197.551 344.686 197.955 345.098C198.362 345.506 198.86 345.71 199.447 345.71C199.82 345.71 200.142 345.631 200.412 345.473C200.686 345.314 200.959 345.051 201.233 344.68ZM207.575 346.247C207.575 346.247 207.326 346.247 206.829 346.247C206.829 346.247 206.199 344.747 204.94 341.746C204.94 341.746 204.306 343.246 203.037 346.247C203.037 346.247 202.789 346.247 202.291 346.247C202.291 346.247 203.041 344.474 204.54 340.929C204.54 340.929 204.804 340.929 205.332 340.929C205.332 340.929 206.08 342.702 207.575 346.247ZM210.526 340.801C211.033 340.801 211.49 340.923 211.898 341.166C212.308 341.407 212.628 341.741 212.858 342.169C213.091 342.596 213.208 343.074 213.208 343.602C213.208 344.4 212.956 345.061 212.452 345.587C211.948 346.112 211.313 346.375 210.545 346.375C210.02 346.375 209.544 346.255 209.119 346.014C208.692 345.774 208.358 345.441 208.116 345.017C207.876 344.593 207.756 344.118 207.756 343.593C207.756 342.786 208.018 342.119 208.54 341.594C209.062 341.065 209.724 340.801 210.526 340.801ZM210.47 341.461C209.898 341.461 209.423 341.665 209.044 342.073C208.665 342.479 208.475 342.988 208.475 343.602C208.475 344.21 208.669 344.713 209.058 345.112C209.446 345.511 209.936 345.71 210.526 345.71C211.102 345.71 211.573 345.514 211.939 345.122C212.309 344.726 212.494 344.222 212.494 343.612C212.494 342.985 212.305 342.47 211.926 342.069C211.546 341.664 211.061 341.461 210.47 341.461Z" fill="white"/>
<path d="M194.8 197.005C194.8 197.005 196.463 195.312 199.789 191.925C199.789 191.925 200.047 192.189 200.563 192.715C200.563 192.715 199.754 194.772 198.133 198.889C198.133 198.889 200.153 198.061 204.191 196.408C204.191 196.408 204.449 196.671 204.966 197.196C204.966 197.196 203.303 198.889 199.977 202.275C199.977 202.275 199.811 202.107 199.479 201.768C199.479 201.768 200.96 200.26 203.923 197.243C203.923 197.243 201.817 198.115 197.602 199.859C197.602 199.859 197.458 199.711 197.167 199.415C197.167 199.415 198.026 197.272 199.743 192.987C199.743 192.987 198.261 194.495 195.298 197.511C195.298 197.511 195.132 197.343 194.8 197.005ZM200.086 205.025C200.086 205.025 200.759 204.749 202.107 204.195C202.107 204.195 202.819 202.497 204.243 199.1C204.243 199.1 204.426 199.285 204.791 199.657C204.791 199.657 204.199 201.054 203.017 203.847C203.017 203.847 204.415 203.272 207.211 202.121C207.211 202.121 207.388 202.301 207.742 202.661C207.742 202.661 205.368 203.631 200.62 205.569C200.62 205.569 200.442 205.387 200.086 205.025ZM209.925 204.884C209.925 204.884 210.092 205.054 210.426 205.394C210.426 205.394 209.867 205.962 208.751 207.1C208.751 207.1 209.795 207.026 211.884 206.878C211.884 206.878 212.092 207.091 212.51 207.516C212.51 207.516 211.384 207.59 209.133 207.737C209.133 207.737 209.028 208.917 208.817 211.276C208.817 211.276 208.608 211.063 208.191 210.638C208.191 210.638 208.295 209.543 208.504 207.351C208.504 207.351 207.913 207.953 206.733 209.154C206.733 209.154 206.566 208.984 206.232 208.644C206.232 208.644 206.822 208.043 208.002 206.841C208.002 206.841 206.926 206.947 204.774 207.16C204.774 207.16 204.564 206.947 204.145 206.519C204.145 206.519 205.303 206.411 207.62 206.197C207.62 206.197 207.693 205.05 207.838 202.759C207.838 202.759 208.048 202.973 208.467 203.4C208.467 203.4 208.395 204.463 208.25 206.59C208.25 206.59 208.808 206.021 209.925 204.884ZM213.354 213.68C213.354 213.68 213.543 213.872 213.921 214.257C213.615 214.353 213.362 214.415 213.159 214.442C212.96 214.466 212.751 214.462 212.537 214.431C211.932 214.358 211.397 214.085 210.934 213.613C210.56 213.232 210.304 212.799 210.165 212.313C210.03 211.825 210.021 211.341 210.142 210.86C210.266 210.376 210.508 209.951 210.868 209.584C211.222 209.224 211.633 208.982 212.101 208.858C212.572 208.738 213.043 208.746 213.516 208.882C213.99 209.017 214.409 209.268 214.772 209.637C215.189 210.063 215.454 210.553 215.564 211.108C215.676 211.665 215.621 212.209 215.399 212.74L214.838 212.169C214.937 211.777 214.942 211.404 214.851 211.047C214.761 210.692 214.58 210.375 214.307 210.097C213.896 209.679 213.406 209.471 212.836 209.473C212.27 209.478 211.778 209.691 211.362 210.115C210.951 210.533 210.746 211.033 210.746 211.615C210.751 212.197 210.96 212.699 211.375 213.122C211.639 213.391 211.922 213.566 212.223 213.649C212.526 213.734 212.903 213.744 213.354 213.68ZM217.218 212.309C217.218 212.309 217.385 212.48 217.72 212.82C217.72 212.82 217.171 213.378 216.075 214.495C216.075 214.495 217.186 214.51 219.408 214.539C219.408 214.539 219.623 214.758 220.055 215.197C220.055 215.197 218.844 215.178 216.424 215.14C216.424 215.14 216.403 216.412 216.362 218.957C216.362 218.957 216.144 218.735 215.709 218.292C215.709 218.292 215.728 217.131 215.767 214.808C215.767 214.808 215.187 215.398 214.027 216.58C214.027 216.58 213.86 216.41 213.525 216.07C213.525 216.07 214.757 214.816 217.218 212.309ZM222.297 217.298C222.655 217.663 222.893 218.079 223.012 218.544C223.135 219.009 223.13 219.476 222.996 219.944C222.864 220.414 222.614 220.836 222.247 221.209C221.693 221.774 221.056 222.06 220.335 222.069C219.614 222.078 218.981 221.806 218.439 221.253C218.067 220.875 217.815 220.447 217.68 219.971C217.546 219.494 217.541 219.018 217.663 218.544C217.789 218.072 218.034 217.65 218.399 217.278C218.959 216.707 219.607 216.424 220.341 216.429C221.078 216.431 221.729 216.721 222.297 217.298ZM221.799 217.725C221.394 217.313 220.916 217.115 220.364 217.131C219.815 217.144 219.327 217.368 218.9 217.802C218.478 218.232 218.266 218.728 218.264 219.289C218.262 219.851 218.47 220.344 218.887 220.769C219.294 221.184 219.763 221.384 220.295 221.37C220.831 221.357 221.312 221.134 221.736 220.703C222.171 220.259 222.394 219.759 222.405 219.202C222.419 218.642 222.216 218.15 221.799 217.725ZM226.758 219.282C226.758 219.282 226.923 219.451 227.256 219.789C226.878 220.174 226.865 220.546 227.216 220.904C227.568 221.262 227.933 221.249 228.311 220.863L228.808 221.37C228.464 221.619 228.129 221.727 227.807 221.693C227.485 221.662 227.185 221.503 226.906 221.22C226.627 220.935 226.471 220.629 226.438 220.3C226.407 219.973 226.513 219.634 226.758 219.282ZM227.566 222.844C227.566 222.844 227.732 223.013 228.063 223.351C228.063 223.351 226.833 224.604 224.37 227.111C224.37 227.111 224.204 226.942 223.873 226.604C223.873 226.604 224.868 225.591 226.857 223.566C226.857 223.566 225.113 223.816 221.624 224.314C221.624 224.314 221.457 224.145 221.122 223.804C221.122 223.804 222.354 222.551 224.815 220.044C224.815 220.044 224.983 220.214 225.317 220.555C225.317 220.555 224.322 221.568 222.333 223.593C222.333 223.593 224.077 223.344 227.566 222.844ZM230.79 226.128C230.79 226.128 230.958 226.298 231.292 226.638C231.292 226.638 231.081 226.853 230.658 227.282C231.048 227.199 231.427 227.221 231.796 227.346C232.168 227.473 232.512 227.7 232.832 228.025C233.195 228.393 233.44 228.815 233.567 229.29C233.694 229.765 233.694 230.239 233.567 230.713C233.444 231.188 233.2 231.61 232.838 231.979C232.479 232.343 232.067 232.59 231.599 232.717C231.132 232.843 230.664 232.838 230.194 232.704C229.725 232.572 229.31 232.322 228.947 231.952C228.642 231.641 228.427 231.297 228.305 230.921C228.186 230.546 228.162 230.155 228.235 229.75L226.303 231.717L225.801 231.207L230.79 226.128ZM232.334 228.451C231.927 228.036 231.441 227.833 230.876 227.839C230.311 227.846 229.821 228.061 229.406 228.484C228.99 228.907 228.781 229.406 228.779 229.981C228.779 230.555 228.987 231.052 229.403 231.476C229.818 231.898 230.303 232.11 230.856 232.11C231.414 232.11 231.901 231.898 232.317 231.476C232.752 231.032 232.97 230.526 232.97 229.958C232.975 229.39 232.763 228.887 232.334 228.451ZM237.299 232.573C237.658 232.938 237.896 233.353 238.015 233.818C238.138 234.284 238.132 234.751 237.999 235.219C237.867 235.688 237.617 236.11 237.25 236.484C236.696 237.048 236.059 237.334 235.338 237.343C234.617 237.352 233.985 237.08 233.442 236.528C233.07 236.15 232.818 235.722 232.683 235.245C232.549 234.769 232.543 234.293 232.667 233.818C232.792 233.346 233.037 232.924 233.402 232.553C233.963 231.983 234.61 231.699 235.344 231.703C236.081 231.706 236.732 231.995 237.299 232.573ZM236.802 233C236.397 232.588 235.919 232.39 235.367 232.405C234.818 232.419 234.329 232.643 233.903 233.077C233.481 233.506 233.269 234.002 233.266 234.564C233.264 235.126 233.473 235.619 233.89 236.045C234.297 236.458 234.766 236.658 235.298 236.645C235.834 236.632 236.315 236.409 236.739 235.977C237.174 235.534 237.397 235.034 237.408 234.476C237.422 233.917 237.219 233.425 236.802 233ZM239.255 242.265C239.255 242.265 238.174 241.165 236.013 238.965C236.013 238.965 235.669 239.191 234.978 239.643C234.978 239.643 234.864 239.527 234.635 239.294C234.635 239.294 235.069 238.852 235.938 237.968C235.938 237.968 236.097 238.13 236.416 238.454C236.416 238.454 237.958 237.825 241.042 236.564C241.042 236.564 241.231 236.757 241.609 237.142C241.609 237.142 240.991 238.712 239.753 241.852C239.753 241.852 239.912 242.015 240.231 242.339C240.231 242.339 239.797 242.781 238.928 243.665C238.928 243.665 238.814 243.548 238.586 243.315C238.586 243.315 238.809 242.965 239.255 242.265ZM239.225 241.315C239.225 241.315 239.736 240.021 240.758 237.431C240.758 237.431 239.487 237.951 236.943 238.992C236.943 238.992 237.704 239.766 239.225 241.315Z" fill="white"/>
<path d="M98.4389 235.36C98.4389 235.36 96.3375 234.498 92.134 232.775C92.134 232.775 92.9797 234.915 94.6696 239.197C94.6696 239.197 94.4906 239.379 94.1327 239.744C94.1327 239.744 93.1851 237.322 91.2905 232.479C91.2905 232.479 91.4746 232.291 91.8443 231.915C91.8443 231.915 94.2229 232.879 98.9795 234.809C98.9795 234.809 98.799 234.992 98.4389 235.36ZM98.5379 227.739C98.5379 227.739 98.7037 227.57 99.0359 227.232C99.0359 227.232 100.267 228.485 102.729 230.992C102.729 230.992 102.562 231.161 102.231 231.499C102.231 231.499 101.236 230.486 99.2464 228.46C99.2464 228.46 99.4922 230.236 99.9821 233.788C99.9821 233.788 99.8149 233.959 99.4811 234.298C99.4811 234.298 98.2497 233.045 95.7874 230.539C95.7874 230.539 95.9546 230.369 96.2891 230.028C96.2891 230.028 97.2837 231.041 99.2728 233.067C99.2728 233.067 99.0279 231.291 98.5379 227.739ZM106.797 226.849C106.797 226.849 106.63 227.019 106.297 227.36C106.297 227.36 105.745 226.798 104.641 225.674C104.641 225.674 103.904 226.425 102.429 227.927C102.429 227.927 102.981 228.489 104.084 229.612C104.084 229.612 103.917 229.782 103.583 230.122C103.583 230.122 102.352 228.869 99.8897 226.363C99.8897 226.363 100.057 226.192 100.391 225.852C100.391 225.852 100.919 226.39 101.977 227.467C101.977 227.467 102.714 226.716 104.189 225.214C104.189 225.214 103.66 224.676 102.604 223.6C102.604 223.6 102.771 223.429 103.104 223.089C103.104 223.089 104.336 224.343 106.797 226.849ZM106.702 219.427C106.702 219.427 106.868 219.258 107.2 218.92C107.2 218.92 108.431 220.173 110.893 222.679C110.893 222.679 110.727 222.849 110.395 223.187C110.395 223.187 109.401 222.174 107.411 220.149C107.411 220.149 107.656 221.924 108.146 225.476C108.146 225.476 107.979 225.647 107.645 225.986C107.645 225.986 106.414 224.733 103.952 222.227C103.952 222.227 104.119 222.057 104.453 221.716C104.453 221.716 105.448 222.729 107.437 224.754C107.437 224.754 107.192 222.978 106.702 219.427ZM111.862 217.731C111.862 217.731 111.43 217.292 110.567 216.412C110.567 216.412 110.281 216.703 109.709 217.285C109.114 217.892 109.032 218.415 109.465 218.856C109.896 219.295 110.409 219.211 111.005 218.604C111.005 218.604 111.291 218.314 111.862 217.731ZM111.496 219.024C111.496 219.024 111.647 219.884 111.948 221.606C111.948 221.606 111.759 221.798 111.381 222.183C111.381 222.183 111.226 221.3 110.916 219.534C110.573 219.753 110.227 219.848 109.877 219.819C109.528 219.786 109.222 219.636 108.96 219.37C108.642 219.045 108.495 218.66 108.519 218.215C108.543 217.765 108.746 217.345 109.129 216.956L110.613 215.445L114.306 219.205C114.306 219.205 114.139 219.374 113.808 219.712C113.808 219.712 113.31 219.205 112.314 218.191C112.314 218.191 112.042 218.469 111.496 219.024ZM115.031 210.947C115.031 210.947 115.198 210.777 115.532 210.436C115.532 210.436 116.091 211.005 117.208 212.142C117.208 212.142 117.135 211.079 116.99 208.952C116.99 208.952 117.199 208.74 117.616 208.315C117.616 208.315 117.689 209.461 117.834 211.752C117.834 211.752 118.992 211.86 121.309 212.075C121.309 212.075 121.1 212.288 120.683 212.713C120.683 212.713 119.607 212.606 117.455 212.394C117.455 212.394 118.045 212.995 119.225 214.196C119.225 214.196 119.058 214.367 118.724 214.707C118.724 214.707 118.134 214.106 116.954 212.904C116.954 212.904 117.058 213.999 117.267 216.19C117.267 216.19 117.056 216.404 116.637 216.832C116.637 216.832 116.531 215.652 116.32 213.294C116.32 213.294 115.195 213.22 112.944 213.072C112.944 213.072 113.154 212.858 113.574 212.43C113.574 212.43 114.618 212.504 116.706 212.652C116.706 212.652 116.148 212.084 115.031 210.947ZM120.828 205.045C120.828 205.045 120.994 204.876 121.326 204.538C121.326 204.538 122.557 205.791 125.019 208.298C125.019 208.298 124.853 208.467 124.521 208.805C124.521 208.805 123.526 207.793 121.537 205.766C121.537 205.766 121.782 207.542 122.272 211.094C122.272 211.094 122.105 211.264 121.771 211.605C121.771 211.605 120.54 210.351 118.078 207.845C118.078 207.845 118.245 207.675 118.579 207.335C118.579 207.335 119.574 208.347 121.563 210.373C121.563 210.373 121.318 208.597 120.828 205.045ZM125.029 204.743L124.616 204.323C124.942 203.992 125.131 203.69 125.183 203.417C125.236 203.139 125.168 202.905 124.979 202.712C124.828 202.557 124.631 202.494 124.389 202.521C124.145 202.545 123.928 202.655 123.736 202.849C123.549 203.04 123.447 203.253 123.43 203.491C123.412 203.723 123.474 203.926 123.617 204.098L123.11 204.616C122.835 204.309 122.712 203.942 122.74 203.514C122.769 203.087 122.948 202.705 123.278 202.369C123.61 202.032 123.99 201.846 124.418 201.812C124.845 201.776 125.201 201.904 125.487 202.195C125.665 202.376 125.774 202.599 125.813 202.863C125.853 203.123 125.81 203.37 125.685 203.605C125.979 203.435 126.276 203.352 126.575 203.357C126.874 203.361 127.141 203.483 127.376 203.722C127.698 204.049 127.838 204.463 127.798 204.964C127.757 205.463 127.544 205.909 127.159 206.3C126.779 206.688 126.345 206.902 125.86 206.945C125.374 206.983 124.962 206.843 124.623 206.525L125.128 206.012C125.339 206.2 125.591 206.28 125.886 206.253C126.179 206.224 126.446 206.087 126.687 205.84C126.933 205.59 127.074 205.31 127.109 205.002C127.145 204.688 127.065 204.433 126.872 204.236C126.674 204.035 126.416 203.968 126.097 204.038C125.778 204.107 125.422 204.342 125.029 204.743ZM132.332 200.852C132.332 200.852 132.165 201.022 131.831 201.363C131.831 201.363 131.279 200.8 130.176 199.677C130.176 199.677 129.438 200.428 127.963 201.929C127.963 201.929 128.515 202.492 129.619 203.615C129.619 203.615 129.451 203.785 129.118 204.125C129.118 204.125 127.886 202.872 125.425 200.366C125.425 200.366 125.591 200.195 125.926 199.855C125.926 199.855 126.454 200.393 127.511 201.47C127.511 201.47 128.249 200.719 129.724 199.217C129.724 199.217 129.195 198.679 128.138 197.602C128.138 197.602 128.305 197.432 128.639 197.092C128.639 197.092 129.87 198.345 132.332 200.852ZM132.236 193.429C132.236 193.429 132.403 193.26 132.734 192.923C132.734 192.923 133.966 194.176 136.427 196.682C136.427 196.682 136.262 196.852 135.93 197.189C135.93 197.189 134.935 196.177 132.946 194.151C132.946 194.151 133.191 195.927 133.681 199.479C133.681 199.479 133.514 199.649 133.18 199.989C133.18 199.989 131.949 198.736 129.487 196.229C129.487 196.229 129.654 196.059 129.988 195.719C129.988 195.719 130.983 196.732 132.972 198.757C132.972 198.757 132.727 196.981 132.236 193.429Z" fill="white"/>
<path d="M101.639 105.611C101.639 105.611 102.486 103.471 104.178 99.1921C104.178 99.1921 102.076 100.052 97.8699 101.774C97.8699 101.774 97.6909 101.592 97.333 101.226C97.333 101.226 99.7109 100.262 104.468 98.3325C104.468 98.3325 104.653 98.5207 105.022 98.8964C105.022 98.8964 104.074 101.318 102.18 106.161C102.18 106.161 101.999 105.978 101.639 105.611ZM109.124 105.712C109.124 105.712 109.29 105.881 109.622 106.219C109.622 106.219 108.391 107.472 105.929 109.978C105.929 109.978 105.763 109.809 105.431 109.471C105.431 109.471 106.426 108.458 108.415 106.433C108.415 106.433 106.671 106.683 103.182 107.182C103.182 107.182 103.015 107.012 102.681 106.671C102.681 106.671 103.912 105.418 106.374 102.912C106.374 102.912 106.541 103.081 106.875 103.422C106.875 103.422 105.881 104.435 103.891 106.46C103.891 106.46 105.635 106.211 109.124 105.712ZM109.998 114.121C109.998 114.121 109.831 113.951 109.497 113.611C109.497 113.611 110.048 113.049 111.152 111.925C111.152 111.925 110.414 111.175 108.939 109.673C108.939 109.673 108.388 110.234 107.284 111.358C107.284 111.358 107.117 111.188 106.783 110.848C106.783 110.848 108.014 109.594 110.476 107.088C110.476 107.088 110.643 107.258 110.977 107.598C110.977 107.598 110.448 108.137 109.391 109.213C109.391 109.213 110.128 109.964 111.603 111.466C111.603 111.466 112.132 110.927 113.19 109.851C113.19 109.851 113.357 110.021 113.691 110.361C113.691 110.361 112.46 111.615 109.998 114.121ZM117.288 114.024C117.288 114.024 117.454 114.192 117.786 114.531C117.786 114.531 116.555 115.784 114.093 118.29C114.093 118.29 113.927 118.121 113.595 117.784C113.595 117.784 114.59 116.771 116.579 114.745C116.579 114.745 114.835 114.995 111.347 115.494C111.347 115.494 111.179 115.324 110.845 114.984C110.845 114.984 112.076 113.73 114.538 111.224C114.538 111.224 114.705 111.394 115.04 111.734C115.04 111.734 114.045 112.747 112.055 114.772C112.055 114.772 113.799 114.523 117.288 114.024ZM118.953 119.278C118.953 119.278 119.385 118.838 120.249 117.958C120.249 117.958 119.963 117.667 119.392 117.086C118.796 116.478 118.282 116.396 117.849 116.837C117.418 117.275 117.5 117.798 118.096 118.404C118.096 118.404 118.382 118.696 118.953 119.278ZM117.684 118.905C117.684 118.905 116.839 119.058 115.148 119.365C115.148 119.365 114.959 119.172 114.581 118.788C114.581 118.788 115.448 118.629 117.183 118.314C116.967 117.965 116.874 117.612 116.903 117.257C116.936 116.9 117.082 116.59 117.344 116.323C117.663 115.999 118.041 115.849 118.479 115.874C118.92 115.898 119.333 116.105 119.715 116.494L121.199 118.005L117.506 121.765C117.506 121.765 117.34 121.596 117.008 121.258C117.008 121.258 117.506 120.751 118.502 119.738C118.502 119.738 118.229 119.46 117.684 118.905ZM125.618 122.504C125.618 122.504 125.784 122.674 126.119 123.014C126.119 123.014 125.56 123.582 124.443 124.719C124.443 124.719 125.488 124.646 127.576 124.498C127.576 124.498 127.785 124.711 128.202 125.135C128.202 125.135 127.077 125.209 124.826 125.357C124.826 125.357 124.721 126.536 124.509 128.896C124.509 128.896 124.3 128.683 123.883 128.258C123.883 128.258 123.987 127.162 124.196 124.971C124.196 124.971 123.606 125.572 122.426 126.774C122.426 126.774 122.258 126.604 121.924 126.264C121.924 126.264 122.514 125.663 123.695 124.461C123.695 124.461 122.619 124.567 120.467 124.78C120.467 124.78 120.257 124.566 119.837 124.138C119.837 124.138 120.995 124.031 123.312 123.817C123.312 123.817 123.385 122.67 123.53 120.378C123.53 120.378 123.74 120.593 124.16 121.02C124.16 121.02 124.088 122.083 123.942 124.209C123.942 124.209 124.501 123.64 125.618 122.504ZM131.414 128.405C131.414 128.405 131.58 128.575 131.912 128.912C131.912 128.912 130.681 130.165 128.219 132.672C128.219 132.672 128.053 132.503 127.721 132.165C127.721 132.165 128.716 131.153 130.705 129.127C130.705 129.127 128.961 129.377 125.472 129.875C125.472 129.875 125.305 129.706 124.971 129.365C124.971 129.365 126.202 128.112 128.664 125.605C128.664 125.605 128.831 125.775 129.165 126.116C129.165 126.116 128.171 127.129 126.181 129.154C126.181 129.154 127.925 128.905 131.414 128.405ZM131.711 132.682L132.123 132.263C132.448 132.594 132.745 132.787 133.013 132.84C133.286 132.894 133.516 132.825 133.706 132.632C133.857 132.477 133.92 132.277 133.893 132.031C133.869 131.783 133.762 131.561 133.571 131.366C133.384 131.176 133.174 131.072 132.941 131.054C132.712 131.036 132.513 131.1 132.344 131.245L131.836 130.728C132.137 130.449 132.498 130.324 132.918 130.353C133.337 130.382 133.712 130.564 134.042 130.899C134.374 131.238 134.556 131.624 134.589 132.061C134.625 132.495 134.499 132.858 134.213 133.149C134.036 133.33 133.816 133.441 133.557 133.481C133.302 133.521 133.059 133.478 132.828 133.35C132.996 133.651 133.077 133.952 133.073 134.257C133.068 134.561 132.949 134.833 132.713 135.073C132.392 135.4 131.986 135.542 131.493 135.502C131.003 135.459 130.566 135.243 130.181 134.851C129.801 134.464 129.589 134.023 129.548 133.528C129.51 133.034 129.648 132.614 129.96 132.27L130.464 132.783C130.28 132.998 130.2 133.256 130.227 133.555C130.255 133.853 130.391 134.125 130.632 134.371C130.879 134.621 131.154 134.765 131.457 134.801C131.765 134.837 132.015 134.756 132.209 134.559C132.407 134.358 132.471 134.094 132.403 133.77C132.335 133.445 132.104 133.083 131.711 132.682ZM135.533 140.118C135.533 140.118 135.365 139.948 135.031 139.608C135.031 139.608 135.583 139.046 136.686 137.922C136.686 137.922 135.949 137.172 134.474 135.67C134.474 135.67 133.922 136.232 132.819 137.355C132.819 137.355 132.652 137.185 132.318 136.845C132.318 136.845 133.549 135.592 136.011 133.085C136.011 133.085 136.177 133.256 136.512 133.595C136.512 133.595 135.983 134.134 134.926 135.21C134.926 135.21 135.663 135.961 137.138 137.463C137.138 137.463 137.667 136.925 138.724 135.848C138.724 135.848 138.891 136.018 139.226 136.359C139.226 136.359 137.994 137.612 135.533 140.118ZM142.823 140.021C142.823 140.021 142.989 140.19 143.321 140.528C143.321 140.528 142.09 141.781 139.628 144.287C139.628 144.287 139.462 144.119 139.13 143.781C139.13 143.781 140.125 142.768 142.114 140.742C142.114 140.742 140.37 140.992 136.881 141.491C136.881 141.491 136.714 141.321 136.38 140.981C136.38 140.981 137.611 139.727 140.073 137.221C140.073 137.221 140.24 137.391 140.574 137.731C140.574 137.731 139.579 138.744 137.59 140.769C137.59 140.769 139.334 140.52 142.823 140.021Z" fill="white"/>
<defs>
<linearGradient id="paint0_linear_2_3432" x1="167.493" y1="166.231" x2="167.493" y2="181.462" gradientUnits="userSpaceOnUse">
<stop stop-color="#2E1848"/>
<stop offset="1" stop-color="#4C1651"/>
</linearGradient>
</defs>
</svg>
