<?xml version="1.0" encoding="utf-8"?>
<!-- Generator: Adobe Illustrator 28.0.0, SVG Export Plug-In . SVG Version: 6.00 Build 0)  -->
<svg version="1.1" id="Слой_1" xmlns="http://www.w3.org/2000/svg" xmlns:xlink="http://www.w3.org/1999/xlink" x="0px" y="0px"
	 viewBox="0 0 1500 1500" style="enable-background:new 0 0 1500 1500;" xml:space="preserve">
<style type="text/css">
	.st0{fill:none;stroke:#000000;stroke-width:3;stroke-miterlimit:10;}
	.st1{fill:none;stroke:#8B499F;stroke-width:3;stroke-miterlimit:10;}
	.st2{fill:#8B499F;}
	.st3{fill:none;stroke:#FF0000;stroke-width:3;stroke-miterlimit:10;}
	.st4{fill:#FF0000;}
	.st5{fill:#FFEC45;}
	.st6{fill:#EB4642;}
	.st7{fill:#B6E274;}
	.st8{fill:#FFFFFF;stroke:#000000;stroke-width:3;stroke-miterlimit:10;}
	.st9{fill:#5374FD;}
	.st10{fill:#4FD2EC;}
	.st11{fill:#FFA93B;}
	.st12{fill:none;}
	.st13{fill:#A8FA66;}
	.st14{font-family:'Arial-BoldMT';}
	.st15{font-size:51px;}
	.st16{fill:#FA0907;}
	.st17{font-family:'ArialMT';}
	.st18{font-size:20px;}
	.st19{font-size:25px;}
	.st20{font-size:23px;}
</style>
<line class="st0" x1="743.5" y1="1149.25" x2="743.5" y2="384.25"/>
<g>
	<path class="st0" d="M1437,756.25c-65.33-163.33-130.67-326.67-196-490c-162-69.33-324-138.67-486-208
		c-162.33,66.33-324.67,132.67-487,199c-68.33,163.33-136.67,326.67-205,490c65.33,162.33,130.67,324.67,196,487
		c161.01,69.17,322.02,138.33,483.03,207.5c162.66-66.5,325.31-133,487.97-199.5C1299,1080.25,1368,918.25,1437,756.25z"/>
	<rect x="359.5" y="372.95" class="st0" width="777" height="784.6"/>
	<path class="st0" d="M739.5,1300.5c-182.33-176-364.67-352-547-528c183-182.33,366-364.67,549-547
		c187.33,179.67,374.67,359.33,562,539C1115.5,943.17,927.5,1121.83,739.5,1300.5z"/>
</g>
<line class="st0" x1="1126" y1="766.75" x2="361" y2="766.75"/>
<g>
	<g>
		<line class="st1" x1="940.51" y1="962.51" x2="985.3" y2="1005.6"/>
		<g>
			<path class="st2" d="M984.43,1004.76c-0.09-4.43,3.13-9.94,6.03-13.12c-0.91,7.14-0.37,14.64,2.54,21.36
				c-6.74-2.74-14.3-2.59-21.45-1.71C975.01,1008.23,979.7,1004.98,984.43,1004.76z"/>
		</g>
	</g>
</g>
<g>
	<g>
		<line class="st1" x1="508.55" y1="530.55" x2="901.46" y2="923.46"/>
		<g>
			<path class="st2" d="M509.41,531.41c4.43,0,9.87-3.33,13-6.28c-7.12,1.04-14.63,0.66-21.41-2.13c2.87,6.69,2.87,14.24,2.13,21.41
				C506.12,540.89,509.28,536.14,509.41,531.41z"/>
		</g>
		<g>
			<path class="st2" d="M900.6,922.6c0-4.43,3.33-9.87,6.28-13c-1.04,7.12-0.66,14.63,2.13,21.41c-6.69-2.87-14.24-2.87-21.41-2.13
				C891.12,925.89,895.87,922.73,900.6,922.6z"/>
		</g>
	</g>
</g>
<g>
	<g>
		<line class="st3" x1="987.49" y1="530.6" x2="523.51" y2="1000.4"/>
		<g>
			<path class="st4" d="M986.65,531.46c0.03,4.43,3.39,9.85,6.36,12.96c-1.09-7.12-0.75-14.63,1.99-21.42
				c-6.67,2.91-14.22,2.95-21.39,2.26C977.14,528.23,981.91,531.36,986.65,531.46z"/>
		</g>
		<g>
			<path class="st4" d="M524.35,999.54c4.43-0.03,9.89,3.27,13.04,6.2c-7.13-1-14.64-0.56-21.39,2.26
				c2.82-6.71,2.78-14.26,1.99-21.42C521.01,990.08,524.2,994.81,524.35,999.54z"/>
		</g>
	</g>
</g>
<g>
	<circle class="st5" cx="745" cy="765.3" r="59"/>
	<circle class="st6" cx="1288" cy="765.3" r="59"/>
	<circle class="st2" cx="209" cy="765.3" r="59"/>
	<circle class="st7" cx="550" cy="765.3" r="30"/>
	<circle class="st7" cx="748" cy="568" r="30"/>
	<circle class="st8" cx="918" cy="765.3" r="30"/>
	<circle class="st8" cx="1023.5" cy="866.5" r="30"/>
	<circle class="st8" cx="841.5" cy="1047.5" r="30"/>
	<circle class="st8" cx="931.5" cy="955.5" r="30"/>
	<circle class="st8" cx="466.5" cy="1035.5" r="30"/>
	<circle class="st8" cx="424.5" cy="1081.5" r="30"/>
	<circle class="st8" cx="1060.5" cy="1082.5" r="30"/>
	<circle class="st8" cx="1014.5" cy="1040.5" r="30"/>
	<circle class="st8" cx="1063.5" cy="449.5" r="30"/>
	<circle class="st8" cx="1021.5" cy="495.5" r="30"/>
	<circle class="st8" cx="429.5" cy="451.5" r="30"/>
	<circle class="st8" cx="475.5" cy="493.5" r="30"/>
	<circle class="st9" cx="298.39" cy="767.91" r="30"/>
	<circle class="st10" cx="358.61" cy="765.09" r="30"/>
	<circle class="st11" cx="1136.39" cy="767.91" r="30"/>
	<circle class="st8" cx="1198.61" cy="765.09" r="30"/>
	<circle class="st11" cx="740.09" cy="1153.39" r="30"/>
	<circle class="st8" cx="742.91" cy="1214.61" r="30"/>
	<circle class="st9" cx="740.5" cy="325.5" r="40.5"/>
	<circle class="st8" cx="845" cy="765.3" r="40.5"/>
	<circle class="st6" cx="741.5" cy="1304.5" r="59"/>
	<circle class="st8" cx="1125" cy="1148" r="59"/>
	<circle class="st8" cx="367.5" cy="383.5" r="59"/>
	<circle class="st8" cx="364.5" cy="1148.5" r="59"/>
	<circle class="st2" cx="741.5" cy="225.5" r="59"/>
	<circle class="st10" cx="739.75" cy="397.25" r="30"/>
	<circle class="st8" cx="1128.75" cy="384.4" r="59"/>
</g>
<g>
	<g>
		<circle cx="106" cy="641" r="8"/>
		<circle cx="125" cy="595" r="8"/>
		<circle cx="144" cy="551" r="8"/>
		<circle cx="181" cy="461" r="8"/>
		<circle cx="200" cy="415" r="8"/>
		<circle cx="219" cy="371" r="8"/>
		<circle class="st8" cx="160" cy="509" r="8"/>
	</g>
	<g>
		<circle cx="1391" cy="641" r="8"/>
		<circle cx="1372" cy="595" r="8"/>
		<circle cx="1353" cy="551" r="8"/>
		<circle cx="1316" cy="461" r="8"/>
		<circle cx="1297" cy="415" r="8"/>
		<circle cx="1278" cy="371" r="8"/>
		<circle class="st8" cx="1337" cy="509" r="8"/>
	</g>
	<g>
		<circle cx="1387" cy="867" r="8"/>
		<circle cx="1368" cy="913" r="8"/>
		<circle cx="1349" cy="957" r="8"/>
		<circle cx="1312" cy="1047" r="8"/>
		<circle cx="1293" cy="1093" r="8"/>
		<circle cx="1274" cy="1137" r="8"/>
		<circle class="st8" cx="1333" cy="999" r="8"/>
	</g>
	<g>
		<circle cx="217.42" cy="1138.05" r="8"/>
		<circle cx="199.3" cy="1091.7" r="8"/>
		<circle cx="181.14" cy="1047.34" r="8"/>
		<circle cx="145.86" cy="956.66" r="8"/>
		<circle cx="127.74" cy="910.3" r="8"/>
		<circle cx="109.58" cy="865.95" r="8"/>
		<circle class="st8" cx="165.94" cy="1005.05" r="8"/>
	</g>
	<g>
		<circle cx="640.83" cy="1399.07" r="8"/>
		<circle cx="595.24" cy="1379.11" r="8"/>
		<circle cx="551.04" cy="1360.59" r="8"/>
		<circle cx="461.96" cy="1321.41" r="8"/>
		<circle cx="416.37" cy="1301.45" r="8"/>
		<circle cx="372.17" cy="1282.93" r="8"/>
		<circle class="st8" cx="510.38" cy="1341.43" r="8"/>
	</g>
	<g>
		<circle cx="862.09" cy="1392.51" r="8"/>
		<circle cx="908.05" cy="1373.42" r="8"/>
		<circle cx="952.6" cy="1355.74" r="8"/>
		<circle cx="1042.4" cy="1318.26" r="8"/>
		<circle cx="1088.36" cy="1299.17" r="8"/>
		<circle cx="1132.91" cy="1281.49" r="8"/>
		<circle class="st8" cx="993.61" cy="1337.35" r="8"/>
	</g>
	<g>
		<circle cx="1133.59" cy="221.62" r="8"/>
		<circle cx="1088.09" cy="201.47" r="8"/>
		<circle cx="1043.96" cy="182.77" r="8"/>
		<circle cx="955.04" cy="143.23" r="8"/>
		<circle cx="909.53" cy="123.08" r="8"/>
		<circle cx="865.41" cy="104.38" r="8"/>
		<circle class="st8" cx="1003.38" cy="163.44" r="8"/>
	</g>
	<g>
		<circle cx="639.39" cy="106.69" r="8"/>
		<circle cx="593.09" cy="124.94" r="8"/>
		<circle cx="548.79" cy="143.23" r="8"/>
		<circle cx="458.21" cy="178.77" r="8"/>
		<circle cx="411.91" cy="197.03" r="8"/>
		<circle cx="367.61" cy="215.31" r="8"/>
		<circle class="st8" cx="506.54" cy="158.55" r="8"/>
	</g>
</g>
<rect x="928.66" y="830.94" class="st12" width="78.93" height="63.01"/>
<text transform="matrix(1 0 0 1 928.6641 867.4531)" class="st13 st14 st15">$</text>
<g>
	<path class="st16" d="M824.88,991.53c-0.83-3.15-2.01-6.1-3.54-8.86c-1.53-2.76-4.5-7.05-8.9-12.86c-3.23-4.27-5.21-6.98-5.96-8.12
		c-1.23-1.87-2.11-3.58-2.66-5.14c-0.55-1.56-0.82-3.14-0.82-4.74c0-2.96,0.99-5.44,2.96-7.44c1.97-2,4.41-3,7.32-3
		c2.93,0,5.48,1.04,7.64,3.12c1.63,1.55,2.95,3.85,3.96,6.92c0.88-3.01,2.12-5.31,3.72-6.88c2.21-2.13,4.77-3.2,7.68-3.2
		c2.88,0,5.32,0.99,7.32,2.98c2,1.99,3,4.36,3,7.1c0,2.4-0.59,4.9-1.76,7.5c-1.18,2.6-3.44,6.01-6.8,10.22
		c-4.37,5.52-7.56,10.06-9.56,13.6C826.91,985.53,825.71,988.46,824.88,991.53z"/>
</g>
<rect x="118.2" y="858.12" class="st12" width="145.58" height="21.88"/>
<text transform="matrix(1 0 0 1 118.1997 872.4434)" class="st17 st18">78-79</text>
<rect x="139.2" y="902.12" class="st12" width="145.58" height="21.88"/>
<text transform="matrix(1 0 0 1 139.1997 916.4434)" class="st17 st18">77-78</text>
<rect x="158.2" y="946.12" class="st12" width="145.58" height="21.88"/>
<text transform="matrix(1 0 0 1 158.1997 960.4434)" class="st17 st18">76-77</text>
<rect x="193.2" y="1035.12" class="st12" width="145.58" height="21.88"/>
<text transform="matrix(1 0 0 1 193.1997 1049.4434)" class="st17 st18">73-74</text>
<rect x="209.2" y="1081.12" class="st12" width="145.58" height="21.88"/>
<text transform="matrix(1 0 0 1 209.1997 1095.4434)" class="st17 st18">72-73</text>
<rect x="225.2" y="1127.12" class="st12" width="145.58" height="21.88"/>
<text transform="matrix(1 0 0 1 225.1997 1141.4434)" class="st17 st18">71-72</text>
<rect x="177.2" y="991.12" class="st12" width="145.58" height="21.88"/>
<text transform="matrix(1 0 0 1 177.1997 1009.0234)" class="st14 st19">75 лет</text>
<rect x="381.2" y="1261.12" class="st12" width="145.58" height="21.88"/>
<text transform="matrix(1 0 0 1 381.1997 1275.4434)" class="st17 st18">68-69</text>
<rect x="429.2" y="1280.12" class="st12" width="145.58" height="21.88"/>
<text transform="matrix(1 0 0 1 429.1997 1294.4434)" class="st17 st18">67-68</text>
<rect x="470.2" y="1298.12" class="st12" width="145.58" height="21.88"/>
<text transform="matrix(1 0 0 1 470.1997 1312.4434)" class="st17 st18">66-67</text>
<rect x="560.2" y="1340.12" class="st12" width="145.58" height="21.88"/>
<text transform="matrix(1 0 0 1 560.1997 1354.4434)" class="st17 st18">63-64</text>
<rect x="602.2" y="1358.12" class="st12" width="145.58" height="21.88"/>
<text transform="matrix(1 0 0 1 602.1997 1372.4434)" class="st17 st18">62-63</text>
<rect x="649.2" y="1381.12" class="st12" width="145.58" height="21.88"/>
<text transform="matrix(1 0 0 1 649.1997 1395.4434)" class="st17 st18">61-62</text>
<rect x="513.2" y="1310.12" class="st12" width="145.58" height="21.88"/>
<text transform="matrix(1 0 0 1 513.1997 1328.0234)" class="st14 st19">65 лет</text>
<rect x="1078.2" y="1256.12" class="st12" width="145.58" height="21.88"/>
<text transform="matrix(1 0 0 1 1078.1997 1270.4434)" class="st17 st18">51-52</text>
<rect x="1030.2" y="1275.12" class="st12" width="145.58" height="21.88"/>
<text transform="matrix(1 0 0 1 1030.1997 1289.4434)" class="st17 st18">52-53</text>
<rect x="985.2" y="1296.12" class="st12" width="145.58" height="21.88"/>
<text transform="matrix(1 0 0 1 985.1997 1310.4434)" class="st17 st18">53-54</text>
<rect x="889.2" y="1340.12" class="st12" width="145.58" height="21.88"/>
<text transform="matrix(1 0 0 1 889.1997 1354.4434)" class="st17 st18">56-57</text>
<rect x="848.2" y="1358.12" class="st12" width="145.58" height="21.88"/>
<text transform="matrix(1 0 0 1 848.1997 1372.4434)" class="st17 st18">57-58</text>
<rect x="797.2" y="1377.12" class="st12" width="145.58" height="21.88"/>
<text transform="matrix(1 0 0 1 797.1997 1391.4434)" class="st17 st18">58-59</text>
<rect x="914.2" y="1310.12" class="st12" width="145.58" height="21.88"/>
<text transform="matrix(1 0 0 1 914.1997 1328.0234)" class="st14 st19">55 лет</text>
<rect x="1322.2" y="855.12" class="st12" width="145.58" height="21.88"/>
<text transform="matrix(1 0 0 1 1322.1997 869.4434)" class="st17 st18">41-42</text>
<rect x="1303.2" y="899.12" class="st12" width="145.58" height="21.88"/>
<text transform="matrix(1 0 0 1 1303.1997 913.4434)" class="st17 st18">42-43</text>
<rect x="1287.2" y="943.12" class="st12" width="145.58" height="21.88"/>
<text transform="matrix(1 0 0 1 1287.1997 957.4434)" class="st17 st18">43-44</text>
<rect x="1252.2" y="1034.12" class="st12" width="145.58" height="21.88"/>
<text transform="matrix(1 0 0 1 1252.1997 1048.4434)" class="st17 st18">45-46</text>
<rect x="1231.2" y="1080.12" class="st12" width="145.58" height="21.88"/>
<text transform="matrix(1 0 0 1 1231.1997 1094.4434)" class="st17 st18">46-47</text>
<rect x="1210.2" y="1123.12" class="st12" width="145.58" height="21.88"/>
<text transform="matrix(1 0 0 1 1210.1997 1137.4434)" class="st17 st18">47-48</text>
<rect x="1243.2" y="990.12" class="st12" width="145.58" height="21.88"/>
<text transform="matrix(1 0 0 1 1243.1997 1008.0234)" class="st14 st19">45 лет</text>
<rect x="1213.2" y="368.12" class="st12" width="145.58" height="21.88"/>
<text transform="matrix(1 0 0 1 1213.1997 382.4434)" class="st17 st18">31-32</text>
<rect x="1232.2" y="411.12" class="st12" width="145.58" height="21.88"/>
<text transform="matrix(1 0 0 1 1232.1997 425.4434)" class="st17 st18">32-33</text>
<rect x="1248.2" y="458.12" class="st12" width="145.58" height="21.88"/>
<text transform="matrix(1 0 0 1 1248.1997 472.4434)" class="st17 st18">33-34</text>
<rect x="895.2" y="158.12" class="st12" width="145.58" height="21.88"/>
<text transform="matrix(1 0 0 1 895.1997 172.4434)" class="st17 st18">23-24</text>
<rect x="850.2" y="136.12" class="st12" width="145.58" height="21.88"/>
<text transform="matrix(1 0 0 1 850.1997 150.4434)" class="st17 st18">22-23</text>
<rect x="806.2" y="115.12" class="st12" width="145.58" height="21.88"/>
<text transform="matrix(1 0 0 1 806.1997 129.4434)" class="st17 st18">21-22</text>
<rect x="991.2" y="195.12" class="st12" width="145.58" height="21.88"/>
<text transform="matrix(1 0 0 1 991.1997 209.4434)" class="st17 st18">25-26</text>
<rect x="1031.2" y="213.12" class="st12" width="145.58" height="21.88"/>
<text transform="matrix(1 0 0 1 1031.1997 227.4434)" class="st17 st18">26-27</text>
<rect x="1077.2" y="229.12" class="st12" width="145.58" height="21.88"/>
<text transform="matrix(1 0 0 1 1077.1997 243.4434)" class="st17 st18">27-28</text>
<rect x="1286.2" y="546.12" class="st12" width="145.58" height="21.88"/>
<text transform="matrix(1 0 0 1 1286.1997 560.4434)" class="st17 st18">35-36</text>
<rect x="1307.2" y="595.12" class="st12" width="145.58" height="21.88"/>
<text transform="matrix(1 0 0 1 1307.1997 609.4434)" class="st17 st18">36-37</text>
<rect x="1329.2" y="643.12" class="st12" width="145.58" height="21.88"/>
<text transform="matrix(1 0 0 1 1329.1997 657.4434)" class="st17 st18">37-38</text>
<rect x="1245.2" y="499.12" class="st12" width="145.58" height="21.88"/>
<text transform="matrix(1 0 0 1 1245.1997 517.0234)" class="st14 st19">35 лет</text>
<rect x="230.2" y="368.12" class="st12" width="145.58" height="21.88"/>
<text transform="matrix(1 0 0 1 230.1997 382.4434)" class="st17 st18">8-9</text>
<rect x="212.2" y="411.12" class="st12" width="145.58" height="21.88"/>
<text transform="matrix(1 0 0 1 212.1997 425.4434)" class="st17 st18">7-8</text>
<rect x="194.2" y="458.12" class="st12" width="145.58" height="21.88"/>
<text transform="matrix(1 0 0 1 194.1997 472.4434)" class="st17 st18">6-7</text>
<rect x="158.2" y="546.12" class="st12" width="145.58" height="21.88"/>
<text transform="matrix(1 0 0 1 158.1997 560.4434)" class="st17 st18">3-4</text>
<rect x="137.2" y="595.12" class="st12" width="145.58" height="21.88"/>
<text transform="matrix(1 0 0 1 137.1997 609.4434)" class="st17 st18">2-3</text>
<rect x="119.2" y="636.12" class="st12" width="145.58" height="21.88"/>
<text transform="matrix(1 0 0 1 119.1997 650.4434)" class="st17 st18">1-2</text>
<rect x="176.2" y="499.12" class="st12" width="145.58" height="21.88"/>
<text transform="matrix(1 0 0 1 176.1997 517.0234)" class="st14 st19">5 лет</text>
<rect x="915.2" y="182.12" class="st12" width="145.58" height="21.88"/>
<text transform="matrix(1 0 0 1 915.1997 200.0234)" class="st14 st19">25 лет</text>
<rect x="552.2" y="155.12" class="st12" width="145.58" height="21.88"/>
<text transform="matrix(1 0 0 1 552.1997 169.4434)" class="st17 st18">16-17</text>
<rect x="601.2" y="132.12" class="st12" width="145.58" height="21.88"/>
<text transform="matrix(1 0 0 1 601.1997 146.4434)" class="st17 st18">17-18</text>
<rect x="649.2" y="112.12" class="st12" width="145.58" height="21.88"/>
<text transform="matrix(1 0 0 1 649.1997 126.4434)" class="st17 st18">18-19</text>
<rect x="453.2" y="189.12" class="st12" width="145.58" height="21.88"/>
<text transform="matrix(1 0 0 1 453.1997 203.4434)" class="st17 st18">13-14</text>
<rect x="408.2" y="209.12" class="st12" width="145.58" height="21.88"/>
<text transform="matrix(1 0 0 1 408.1997 223.4434)" class="st17 st18">12-13</text>
<rect x="364.2" y="229.12" class="st12" width="145.58" height="21.88"/>
<text transform="matrix(1 0 0 1 364.1997 243.4434)" class="st17 st18">11-12</text>
<rect x="509.2" y="182.12" class="st12" width="145.58" height="21.88"/>
<text transform="matrix(1 0 0 1 509.1997 200.0234)" class="st14 st19">15 лет</text>
<rect x="500.76" y="902.55" class="st12" width="500.24" height="34.45"/>
<text transform="matrix(1 0 0 1 647.6221 919.0127)" class="st14 st20">ЗОНА КОМФОРТА</text>
<rect x="732.85" y="610.55" transform="matrix(0.7071 -0.7071 0.7071 0.7071 -186.7769 804.626)" class="st12" width="290.07" height="34.45"/>
<text transform="matrix(0.7071 -0.7071 0.7071 0.7071 791.2744 713.3056)" class="st14 st20">линия женского рода</text>
<rect x="598.65" y="489.64" transform="matrix(0.7071 -0.7071 0.7071 0.7071 -263.515 619.3641)" class="st12" width="34.45" height="276.26"/>
<text transform="matrix(0.7071 0.7071 -0.7071 0.7071 529.2443 540.0614)" class="st14 st20">линия мужского рода</text>
</svg>
