<svg width="34.000000" height="34.000000" viewBox="0 0 34 34" fill="none" xmlns="http://www.w3.org/2000/svg" xmlns:xlink="http://www.w3.org/1999/xlink">
	<desc>
			Created with Pixso.
	</desc>
	<defs/>
	<rect id="Rectangle 240654369" x="1.000000" y="1.000000" rx="8.000000" width="32.000000" height="32.000000" fill="#5285EE" fill-opacity="1.000000"/>
	<rect id="Rectangle 240654369" x="0.500000" y="0.500000" rx="8.000000" width="33.000000" height="33.000000" stroke="#FFFFFF" stroke-opacity="1.000000" stroke-width="1.000000"/>
	<path id="Icon" d="M14.97 10.73C14.75 10.51 14.38 10.37 13.75 10.37L13.75 9.58C14.38 9.58 14.75 9.44 14.97 9.22C15.19 9 15.33 8.63 15.33 8L16.12 8C16.12 8.63 16.26 9 16.48 9.22C16.69 9.44 17.06 9.58 17.7 9.58L17.7 10.37C17.06 10.37 16.69 10.51 16.48 10.73C16.26 10.94 16.12 11.31 16.12 11.95L15.33 11.95C15.33 11.31 15.19 10.94 14.97 10.73ZM9 14.33C9.91 14.33 10.48 14.53 10.82 14.88C11.17 15.22 11.37 15.79 11.37 16.7L12.16 16.7C12.16 15.79 12.36 15.22 12.71 14.88C13.06 14.53 13.62 14.33 14.54 14.33L14.54 13.54C13.62 13.54 13.06 13.33 12.71 12.99C12.36 12.64 12.16 12.08 12.16 11.16L11.37 11.16C11.37 12.08 11.17 12.64 10.82 12.99C10.48 13.33 9.91 13.54 9 13.54L9 14.33ZM11.37 19.87C13.47 19.87 14.81 20.33 15.63 21.16C16.45 21.98 16.91 23.31 16.91 25.41L18.5 25.41C18.5 23.31 18.96 21.98 19.78 21.16C20.6 20.33 21.93 19.87 24.04 19.87L24.04 18.29C21.93 18.29 20.6 17.82 19.78 17C18.96 16.18 18.5 14.85 18.5 12.75L16.91 12.75C16.91 14.85 16.45 16.18 15.63 17C14.81 17.82 13.47 18.29 11.37 18.29L11.37 19.87Z" fill="#F2F6FF" fill-opacity="1.000000" fill-rule="evenodd"/>
</svg>
